  0
SECTION
  2
HEADER
  9
$ANGBASE
  50
0.0
  9
$ANGDIR
  70
1
  9
$MEASUREMENT
  70
1
  0
ENDSEC
  0
SECTION
  2
TABLES
  0
TABLE
  2
LTYPE
  70
4
  0
LTYPE
  5
40F
  2
CONTINUOUS
  70
0
  3
Solid line
  72
65
  73
0
  40
0.0
  0
LTYPE
  5
410
  2
DASHDOT
 70
0
  3
Dash Dot ____ _ ____ _
 72
65
 73
4
 40
2.0
 49
1.25
 49
-0.25
 49
0.25
 49
-0.25
  0
LTYPE
  5
411
  2
DASHED
 70
0
  3
Dashed __ __ __ __ __
 72
65
 73
2
 40
0.75
 49
0.5
 49
-0.25
  0
LTYPE
  5
43B
  2
DOTTED
 70
0
  3
Dotted .  .  .  .
 72
65
 73
2
 40
0.2
 49
0.0
 49
-0.2
  0
ENDTAB
  0
TABLE
  2
STYLE
  70
4
  0
STYLE
  2
KICAD
  70
0
  40
0
  41
1
  42
1
  50
0
  71
0
  3
isocp.shx
  0
STYLE
  2
KICADB
  70
0
  40
0
  41
1
  42
1
  50
0
  71
0
  3
isocp.shx
  0
STYLE
  2
KICADI
  70
0
  40
0
  41
1
  42
1
  50
15
  71
0
  3
isocp.shx
  0
STYLE
  2
KICADBI
  70
0
  40
0
  41
1
  42
1
  50
15
  71
0
  3
isocp.shx
  0
ENDTAB
  0
TABLE
  2
LAYER
  70
1
  0
LAYER
  2
BLACK
  70
0
  62
7
  6
CONTINUOUS
  0
ENDTAB
  0
ENDSEC
  0
SECTION
  2
ENTITIES
0
CIRCLE
8
BLACK
10
59.548
20
-132.55
40
1
0
CIRCLE
8
BLACK
10
130.798
20
-108.8
40
1
0
CIRCLE
8
BLACK
10
130.798
20
-61.3
40
1
0
CIRCLE
8
BLACK
10
35.798
20
-85.05
40
1
0
CIRCLE
8
BLACK
10
35.798
20
-61.3
40
1
0
CIRCLE
8
BLACK
10
130.798
20
-37.55
40
1
0
CIRCLE
8
BLACK
10
35.798
20
-37.55
40
1
0
LINE
8
BLACK
6
CONTINUOUS
10
33.298
20
-135.05
11
33.298
21
-35.05
0
LINE
8
BLACK
6
CONTINUOUS
10
133.298
20
-135.05
11
33.298
21
-135.05
0
LINE
8
BLACK
6
CONTINUOUS
10
133.298
20
-35.05
11
133.298
21
-135.05
0
LINE
8
BLACK
6
CONTINUOUS
10
33.298
20
-35.05
11
133.298
21
-35.05
0
CIRCLE
8
BLACK
10
38.298
20
-130.05
40
1.75
0
CIRCLE
8
BLACK
10
128.298
20
-130.05
40
1.75071
0
CIRCLE
8
BLACK
10
128.298
20
-50.05
40
1.75285
0
CIRCLE
8
BLACK
10
38.298
20
-50.05
40
1.75285
0
LINE
8
BLACK
6
CONTINUOUS
10
36.1123
20
-139.757
11
36.1123
21
-136.757
0
LINE
8
BLACK
6
CONTINUOUS
10
36.1123
20
-136.757
11
36.8266
21
-136.757
0
LINE
8
BLACK
6
CONTINUOUS
10
36.8266
20
-136.757
11
37.2551
21
-136.9
0
LINE
8
BLACK
6
CONTINUOUS
10
37.2551
20
-136.9
11
37.5409
21
-137.186
0
LINE
8
BLACK
6
CONTINUOUS
10
37.5409
20
-137.186
11
37.6837
21
-137.471
0
LINE
8
BLACK
6
CONTINUOUS
10
37.6837
20
-137.471
11
37.8266
21
-138.043
0
LINE
8
BLACK
6
CONTINUOUS
10
37.8266
20
-138.043
11
37.8266
21
-138.471
0
LINE
8
BLACK
6
CONTINUOUS
10
37.8266
20
-138.471
11
37.6837
21
-139.043
0
LINE
8
BLACK
6
CONTINUOUS
10
37.6837
20
-139.043
11
37.5409
21
-139.329
0
LINE
8
BLACK
6
CONTINUOUS
10
37.5409
20
-139.329
11
37.2551
21
-139.614
0
LINE
8
BLACK
6
CONTINUOUS
10
37.2551
20
-139.614
11
36.8266
21
-139.757
0
LINE
8
BLACK
6
CONTINUOUS
10
36.8266
20
-139.757
11
36.1123
21
-139.757
0
LINE
8
BLACK
6
CONTINUOUS
10
39.1123
20
-139.757
11
39.1123
21
-137.757
0
LINE
8
BLACK
6
CONTINUOUS
10
39.1123
20
-138.329
11
39.2551
21
-138.043
0
LINE
8
BLACK
6
CONTINUOUS
10
39.2551
20
-138.043
11
39.398
21
-137.9
0
LINE
8
BLACK
6
CONTINUOUS
10
39.398
20
-137.9
11
39.6837
21
-137.757
0
LINE
8
BLACK
6
CONTINUOUS
10
39.6837
20
-137.757
11
39.9694
21
-137.757
0
LINE
8
BLACK
6
CONTINUOUS
10
40.9694
20
-139.757
11
40.9694
21
-137.757
0
LINE
8
BLACK
6
CONTINUOUS
10
40.9694
20
-136.757
11
40.8266
21
-136.9
0
LINE
8
BLACK
6
CONTINUOUS
10
40.8266
20
-136.9
11
40.9694
21
-137.043
0
LINE
8
BLACK
6
CONTINUOUS
10
40.9694
20
-137.043
11
41.1123
21
-136.9
0
LINE
8
BLACK
6
CONTINUOUS
10
41.1123
20
-136.9
11
40.9694
21
-136.757
0
LINE
8
BLACK
6
CONTINUOUS
10
40.9694
20
-136.757
11
40.9694
21
-137.043
0
LINE
8
BLACK
6
CONTINUOUS
10
42.8266
20
-139.757
11
42.5409
21
-139.614
0
LINE
8
BLACK
6
CONTINUOUS
10
42.5409
20
-139.614
11
42.398
21
-139.329
0
LINE
8
BLACK
6
CONTINUOUS
10
42.398
20
-139.329
11
42.398
21
-136.757
0
LINE
8
BLACK
6
CONTINUOUS
10
44.398
20
-139.757
11
44.1123
21
-139.614
0
LINE
8
BLACK
6
CONTINUOUS
10
44.1123
20
-139.614
11
43.9694
21
-139.329
0
LINE
8
BLACK
6
CONTINUOUS
10
43.9694
20
-139.329
11
43.9694
21
-136.757
0
LINE
8
BLACK
6
CONTINUOUS
10
47.8266
20
-139.757
11
47.8266
21
-136.757
0
LINE
8
BLACK
6
CONTINUOUS
10
47.8266
20
-136.757
11
48.8266
21
-138.9
0
LINE
8
BLACK
6
CONTINUOUS
10
48.8266
20
-138.9
11
49.8266
21
-136.757
0
LINE
8
BLACK
6
CONTINUOUS
10
49.8266
20
-136.757
11
49.8266
21
-139.757
0
LINE
8
BLACK
6
CONTINUOUS
10
52.5409
20
-139.757
11
52.5409
21
-138.186
0
LINE
8
BLACK
6
CONTINUOUS
10
52.5409
20
-138.186
11
52.398
21
-137.9
0
LINE
8
BLACK
6
CONTINUOUS
10
52.398
20
-137.9
11
52.1123
21
-137.757
0
LINE
8
BLACK
6
CONTINUOUS
10
52.1123
20
-137.757
11
51.5409
21
-137.757
0
LINE
8
BLACK
6
CONTINUOUS
10
51.5409
20
-137.757
11
51.2551
21
-137.9
0
LINE
8
BLACK
6
CONTINUOUS
10
52.5409
20
-139.614
11
52.2551
21
-139.757
0
LINE
8
BLACK
6
CONTINUOUS
10
52.2551
20
-139.757
11
51.5409
21
-139.757
0
LINE
8
BLACK
6
CONTINUOUS
10
51.5409
20
-139.757
11
51.2551
21
-139.614
0
LINE
8
BLACK
6
CONTINUOUS
10
51.2551
20
-139.614
11
51.1123
21
-139.329
0
LINE
8
BLACK
6
CONTINUOUS
10
51.1123
20
-139.329
11
51.1123
21
-139.043
0
LINE
8
BLACK
6
CONTINUOUS
10
51.1123
20
-139.043
11
51.2551
21
-138.757
0
LINE
8
BLACK
6
CONTINUOUS
10
51.2551
20
-138.757
11
51.5409
21
-138.614
0
LINE
8
BLACK
6
CONTINUOUS
10
51.5409
20
-138.614
11
52.2551
21
-138.614
0
LINE
8
BLACK
6
CONTINUOUS
10
52.2551
20
-138.614
11
52.5409
21
-138.471
0
LINE
8
BLACK
6
CONTINUOUS
10
53.9694
20
-137.757
11
53.9694
21
-140.757
0
LINE
8
BLACK
6
CONTINUOUS
10
53.9694
20
-137.9
11
54.2551
21
-137.757
0
LINE
8
BLACK
6
CONTINUOUS
10
54.2551
20
-137.757
11
54.8266
21
-137.757
0
LINE
8
BLACK
6
CONTINUOUS
10
54.8266
20
-137.757
11
55.1123
21
-137.9
0
LINE
8
BLACK
6
CONTINUOUS
10
55.1123
20
-137.9
11
55.2551
21
-138.043
0
LINE
8
BLACK
6
CONTINUOUS
10
55.2551
20
-138.043
11
55.398
21
-138.329
0
LINE
8
BLACK
6
CONTINUOUS
10
55.398
20
-138.329
11
55.398
21
-139.186
0
LINE
8
BLACK
6
CONTINUOUS
10
55.398
20
-139.186
11
55.2551
21
-139.471
0
LINE
8
BLACK
6
CONTINUOUS
10
55.2551
20
-139.471
11
55.1123
21
-139.614
0
LINE
8
BLACK
6
CONTINUOUS
10
55.1123
20
-139.614
11
54.8266
21
-139.757
0
LINE
8
BLACK
6
CONTINUOUS
10
54.8266
20
-139.757
11
54.2551
21
-139.757
0
LINE
8
BLACK
6
CONTINUOUS
10
54.2551
20
-139.757
11
53.9694
21
-139.614
0
LINE
8
BLACK
6
CONTINUOUS
10
56.6837
20
-139.471
11
56.8266
21
-139.614
0
LINE
8
BLACK
6
CONTINUOUS
10
56.8266
20
-139.614
11
56.6837
21
-139.757
0
LINE
8
BLACK
6
CONTINUOUS
10
56.6837
20
-139.757
11
56.5409
21
-139.614
0
LINE
8
BLACK
6
CONTINUOUS
10
56.5409
20
-139.614
11
56.6837
21
-139.471
0
LINE
8
BLACK
6
CONTINUOUS
10
56.6837
20
-139.471
11
56.6837
21
-139.757
0
LINE
8
BLACK
6
CONTINUOUS
10
56.6837
20
-137.9
11
56.8266
21
-138.043
0
LINE
8
BLACK
6
CONTINUOUS
10
56.8266
20
-138.043
11
56.6837
21
-138.186
0
LINE
8
BLACK
6
CONTINUOUS
10
56.6837
20
-138.186
11
56.5409
21
-138.043
0
LINE
8
BLACK
6
CONTINUOUS
10
56.5409
20
-138.043
11
56.6837
21
-137.9
0
LINE
8
BLACK
6
CONTINUOUS
10
56.6837
20
-137.9
11
56.6837
21
-138.186
  0
ENDSEC
  0
EOF
