  0
SECTION
  2
HEADER
  9
$ANGBASE
  50
0.0
  9
$ANGDIR
  70
1
  9
$MEASUREMENT
  70
1
  0
ENDSEC
  0
SECTION
  2
TABLES
  0
TABLE
  2
LTYPE
  70
4
  0
LTYPE
  5
40F
  2
CONTINUOUS
  70
0
  3
Solid line
  72
65
  73
0
  40
0.0
  0
LTYPE
  5
410
  2
DASHDOT
 70
0
  3
Dash Dot ____ _ ____ _
 72
65
 73
4
 40
2.0
 49
1.25
 49
-0.25
 49
0.25
 49
-0.25
  0
LTYPE
  5
411
  2
DASHED
 70
0
  3
Dashed __ __ __ __ __
 72
65
 73
2
 40
0.75
 49
0.5
 49
-0.25
  0
LTYPE
  5
43B
  2
DOTTED
 70
0
  3
Dotted .  .  .  .
 72
65
 73
2
 40
0.2
 49
0.0
 49
-0.2
  0
ENDTAB
  0
TABLE
  2
STYLE
  70
4
  0
STYLE
  2
KICAD
  70
0
  40
0
  41
1
  42
1
  50
0
  71
0
  3
isocp.shx
  0
STYLE
  2
KICADB
  70
0
  40
0
  41
1
  42
1
  50
0
  71
0
  3
isocp.shx
  0
STYLE
  2
KICADI
  70
0
  40
0
  41
1
  42
1
  50
15
  71
0
  3
isocp.shx
  0
STYLE
  2
KICADBI
  70
0
  40
0
  41
1
  42
1
  50
15
  71
0
  3
isocp.shx
  0
ENDTAB
  0
TABLE
  2
LAYER
  70
1
  0
LAYER
  2
BLACK
  70
0
  62
7
  6
CONTINUOUS
  0
ENDTAB
  0
ENDSEC
  0
SECTION
  2
ENTITIES
0
CIRCLE
8
BLACK
10
21.25
20
-82.5
40
1
0
CIRCLE
8
BLACK
10
92.5
20
-58.75
40
1
0
CIRCLE
8
BLACK
10
92.5
20
-11.25
40
1
0
CIRCLE
8
BLACK
10
-2.5
20
-35
40
1
0
CIRCLE
8
BLACK
10
-2.5
20
-11.25
40
1
0
CIRCLE
8
BLACK
10
92.5
20
12.5
40
1
0
CIRCLE
8
BLACK
10
-2.5
20
12.5
40
1
0
LINE
8
BLACK
6
CONTINUOUS
10
-5
20
-85
11
-5
21
15
0
LINE
8
BLACK
6
CONTINUOUS
10
95
20
-85
11
-5
21
-85
0
LINE
8
BLACK
6
CONTINUOUS
10
95
20
15
11
95
21
-85
0
LINE
8
BLACK
6
CONTINUOUS
10
-5
20
15
11
95
21
15
0
CIRCLE
8
BLACK
10
0
20
-80
40
1.75
0
CIRCLE
8
BLACK
10
90
20
-80
40
1.75071
0
CIRCLE
8
BLACK
10
90
20
0
40
1.75285
0
CIRCLE
8
BLACK
10
0
20
0
40
1.75285
0
LINE
8
BLACK
6
CONTINUOUS
10
28.65
20
-52.05
11
39.35
21
-52.05
0
LINE
8
BLACK
6
CONTINUOUS
10
29.65
20
-39
11
28.65
21
-40
0
CIRCLE
8
BLACK
10
34
20
-55.25
40
1.8
0
LINE
8
BLACK
6
CONTINUOUS
10
39.35
20
-58.05
11
39.35
21
-39
0
LINE
8
BLACK
6
CONTINUOUS
10
28.65
20
-40
11
28.65
21
-58.05
0
LINE
8
BLACK
6
CONTINUOUS
10
39.35
20
-39
11
29.65
21
-39
0
LINE
8
BLACK
6
CONTINUOUS
10
28.65
20
-58.05
11
39.35
21
-58.05
0
LINE
8
BLACK
6
CONTINUOUS
10
91.32
20
-41.45
11
91.32
21
-28.75
0
LINE
8
BLACK
6
CONTINUOUS
10
86.24
20
-41.45
11
91.32
21
-41.45
0
LINE
8
BLACK
6
CONTINUOUS
10
86.24
20
-29.75
11
86.24
21
-41.45
0
LINE
8
BLACK
6
CONTINUOUS
10
87.24
20
-28.75
11
86.24
21
-29.75
0
LINE
8
BLACK
6
CONTINUOUS
10
91.32
20
-28.75
11
87.24
21
-28.75
0
LINE
8
BLACK
6
CONTINUOUS
10
60.85
20
-18.325
11
57.65
21
-18.325
0
LINE
8
BLACK
6
CONTINUOUS
10
60.85
20
-19.925
11
60.85
21
-18.325
0
LINE
8
BLACK
6
CONTINUOUS
10
57.65
20
-19.925
11
60.85
21
-19.925
0
LINE
8
BLACK
6
CONTINUOUS
10
57.65
20
-18.325
11
57.65
21
-19.925
0
LINE
8
BLACK
6
CONTINUOUS
10
22.1
20
2.2
11
23.1
21
1.2
0
LINE
8
BLACK
6
CONTINUOUS
10
8.6
20
2.2
11
8.6
21
-12.3
0
LINE
8
BLACK
6
CONTINUOUS
10
22.1
20
2.2
11
8.6
21
2.2
0
LINE
8
BLACK
6
CONTINUOUS
10
8.6
20
-12.3
11
23.1
21
-12.3
0
LINE
8
BLACK
6
CONTINUOUS
10
23.1
20
-12.3
11
23.1
21
1.2
0
LINE
8
BLACK
6
CONTINUOUS
10
2.92
20
-44.63
11
23.12
21
-44.63
0
LINE
8
BLACK
6
CONTINUOUS
10
23.12
20
-14.43
11
23.12
21
-44.63
0
LINE
8
BLACK
6
CONTINUOUS
10
2.92
20
-14.43
11
2.92
21
-44.63
0
LINE
8
BLACK
6
CONTINUOUS
10
2.92
20
-14.43
11
23.12
21
-14.43
0
LINE
8
BLACK
6
CONTINUOUS
10
25.62
20
-27.33
11
45.82
21
-27.33
0
LINE
8
BLACK
6
CONTINUOUS
10
45.82
20
2.87
11
45.82
21
-27.33
0
LINE
8
BLACK
6
CONTINUOUS
10
25.62
20
2.87
11
25.62
21
-27.33
0
LINE
8
BLACK
6
CONTINUOUS
10
25.62
20
2.87
11
45.82
21
2.87
0
LINE
8
BLACK
6
CONTINUOUS
10
55.275
20
-17.375
11
60.975
21
-17.375
0
LINE
8
BLACK
6
CONTINUOUS
10
55.275
20
-12.375
11
55.275
21
-17.375
0
LINE
8
BLACK
6
CONTINUOUS
10
60.975
20
-12.375
11
55.275
21
-12.375
0
LINE
8
BLACK
6
CONTINUOUS
10
60.975
20
-17.375
11
60.975
21
-12.375
  0
TEXT
  7
KICADB
  8
BLACK
  10
34
  11
34
  20
-45.5
  21
-45.5
  40
1
  41
1
  50
0
  51
0
  71
2
  72
1
  73
2
  1
DA5
  0
TEXT
  7
KICADB
  8
BLACK
  10
88.78
  11
88.78
  20
-35.1
  21
-35.1
  40
1
  41
1
  50
90
  51
0
  71
2
  72
1
  73
2
  1
XS1
  0
TEXT
  7
KICADB
  8
BLACK
  10
59.25
  11
59.25
  20
-19.125
  21
-19.125
  40
0.8
  41
1
  50
0
  51
0
  71
2
  72
1
  73
2
  1
R10
  0
TEXT
  7
KICADB
  8
BLACK
  10
12.8
  11
12.8
  20
-29.95
  21
-29.95
  40
1
  41
1
  50
90
  51
0
  71
2
  72
1
  73
2
  1
DA2
  0
TEXT
  7
KICADB
  8
BLACK
  10
35.5
  11
35.5
  20
-12.65
  21
-12.65
  40
1
  41
1
  50
90
  51
0
  71
2
  72
1
  73
2
  1
DA1
  0
TEXT
  7
KICADB
  8
BLACK
  10
58.125
  11
58.125
  20
-14.875
  21
-14.875
  40
1
  41
1
  50
0
  51
0
  71
2
  72
1
  73
2
  1
C2
  0
ENDSEC
  0
EOF
