  0
SECTION
  2
HEADER
  9
$ANGBASE
  50
0.0
  9
$ANGDIR
  70
1
  9
$MEASUREMENT
  70
1
  0
ENDSEC
  0
SECTION
  2
TABLES
  0
TABLE
  2
LTYPE
  70
4
  0
LTYPE
  5
40F
  2
CONTINUOUS
  70
0
  3
Solid line
  72
65
  73
0
  40
0.0
  0
LTYPE
  5
410
  2
DASHDOT
 70
0
  3
Dash Dot ____ _ ____ _
 72
65
 73
4
 40
2.0
 49
1.25
 49
-0.25
 49
0.25
 49
-0.25
  0
LTYPE
  5
411
  2
DASHED
 70
0
  3
Dashed __ __ __ __ __
 72
65
 73
2
 40
0.75
 49
0.5
 49
-0.25
  0
LTYPE
  5
43B
  2
DOTTED
 70
0
  3
Dotted .  .  .  .
 72
65
 73
2
 40
0.2
 49
0.0
 49
-0.2
  0
ENDTAB
  0
TABLE
  2
STYLE
  70
4
  0
STYLE
  2
KICAD
  70
0
  40
0
  41
1
  42
1
  50
0
  71
0
  3
isocp.shx
  0
STYLE
  2
KICADB
  70
0
  40
0
  41
1
  42
1
  50
0
  71
0
  3
isocp.shx
  0
STYLE
  2
KICADI
  70
0
  40
0
  41
1
  42
1
  50
15
  71
0
  3
isocp.shx
  0
STYLE
  2
KICADBI
  70
0
  40
0
  41
1
  42
1
  50
15
  71
0
  3
isocp.shx
  0
ENDTAB
  0
TABLE
  2
LAYER
  70
1
  0
LAYER
  2
BLACK
  70
0
  62
7
  6
CONTINUOUS
  0
ENDTAB
  0
ENDSEC
  0
SECTION
  2
ENTITIES
0
CIRCLE
8
BLACK
10
21.25
20
-82.5
40
1
0
CIRCLE
8
BLACK
10
92.5
20
-58.75
40
1
0
CIRCLE
8
BLACK
10
92.5
20
-11.25
40
1
0
CIRCLE
8
BLACK
10
-2.5
20
-35
40
1
0
CIRCLE
8
BLACK
10
-2.5
20
-11.25
40
1
0
CIRCLE
8
BLACK
10
92.5
20
12.5
40
1
0
CIRCLE
8
BLACK
10
-2.5
20
12.5
40
1
0
LINE
8
BLACK
6
CONTINUOUS
10
-5
20
-85
11
-5
21
15
0
LINE
8
BLACK
6
CONTINUOUS
10
95
20
-85
11
-5
21
-85
0
LINE
8
BLACK
6
CONTINUOUS
10
95
20
15
11
95
21
-85
0
LINE
8
BLACK
6
CONTINUOUS
10
-5
20
15
11
95
21
15
0
CIRCLE
8
BLACK
10
0
20
-80
40
1.75
0
CIRCLE
8
BLACK
10
90
20
-80
40
1.75071
0
CIRCLE
8
BLACK
10
90
20
0
40
1.75285
0
CIRCLE
8
BLACK
10
0
20
0
40
1.75285
0
CIRCLE
8
BLACK
10
34
20
-55.25
40
1.8
0
LINE
8
BLACK
6
CONTINUOUS
10
57.2
20
-51.775
11
48.75
21
-51.775
0
LINE
8
BLACK
6
CONTINUOUS
10
58.2
20
-50.775
11
58.2
21
-40.125
0
LINE
8
BLACK
6
CONTINUOUS
10
57.2
20
-51.775
11
58.2
21
-50.775
0
LINE
8
BLACK
6
CONTINUOUS
10
58.2
20
-40.125
11
48.75
21
-40.125
0
LINE
8
BLACK
6
CONTINUOUS
10
48.75
20
-51.775
11
48.75
21
-40.125
0
LINE
8
BLACK
6
CONTINUOUS
10
48.3
20
-34.9
11
48.3
21
-38.1
0
LINE
8
BLACK
6
CONTINUOUS
10
46.7
20
-34.9
11
48.3
21
-34.9
0
LINE
8
BLACK
6
CONTINUOUS
10
46.7
20
-38.1
11
46.7
21
-34.9
0
LINE
8
BLACK
6
CONTINUOUS
10
48.3
20
-38.1
11
46.7
21
-38.1
0
LINE
8
BLACK
6
CONTINUOUS
10
47.15
20
-56.7
11
50.35
21
-56.7
0
LINE
8
BLACK
6
CONTINUOUS
10
47.15
20
-58.3
11
47.15
21
-56.7
0
LINE
8
BLACK
6
CONTINUOUS
10
50.35
20
-58.3
11
47.15
21
-58.3
0
LINE
8
BLACK
6
CONTINUOUS
10
50.35
20
-56.7
11
50.35
21
-58.3
0
LINE
8
BLACK
6
CONTINUOUS
10
50.725
20
-54.8
11
47.525
21
-54.8
0
LINE
8
BLACK
6
CONTINUOUS
10
50.725
20
-53.2
11
50.725
21
-54.8
0
LINE
8
BLACK
6
CONTINUOUS
10
47.525
20
-53.2
11
50.725
21
-53.2
0
LINE
8
BLACK
6
CONTINUOUS
10
47.525
20
-54.8
11
47.525
21
-53.2
0
LINE
8
BLACK
6
CONTINUOUS
10
55.8
20
-36.05
11
52.6
21
-36.05
0
LINE
8
BLACK
6
CONTINUOUS
10
55.8
20
-34.45
11
55.8
21
-36.05
0
LINE
8
BLACK
6
CONTINUOUS
10
52.6
20
-34.45
11
55.8
21
-34.45
0
LINE
8
BLACK
6
CONTINUOUS
10
52.6
20
-36.05
11
52.6
21
-34.45
0
LINE
8
BLACK
6
CONTINUOUS
10
55.8
20
-38.675
11
52.6
21
-38.675
0
LINE
8
BLACK
6
CONTINUOUS
10
55.8
20
-37.075
11
55.8
21
-38.675
0
LINE
8
BLACK
6
CONTINUOUS
10
52.6
20
-37.075
11
55.8
21
-37.075
0
LINE
8
BLACK
6
CONTINUOUS
10
52.6
20
-38.675
11
52.6
21
-37.075
0
LINE
8
BLACK
6
CONTINUOUS
10
91.325
20
-74.6
11
91.325
21
-71.4
0
LINE
8
BLACK
6
CONTINUOUS
10
92.925
20
-74.6
11
91.325
21
-74.6
0
LINE
8
BLACK
6
CONTINUOUS
10
92.925
20
-71.4
11
92.925
21
-74.6
0
LINE
8
BLACK
6
CONTINUOUS
10
91.325
20
-71.4
11
92.925
21
-71.4
0
LINE
8
BLACK
6
CONTINUOUS
10
66.575
20
-34.475
11
66.575
21
-31.275
0
LINE
8
BLACK
6
CONTINUOUS
10
68.175
20
-34.475
11
66.575
21
-34.475
0
LINE
8
BLACK
6
CONTINUOUS
10
68.175
20
-31.275
11
68.175
21
-34.475
0
LINE
8
BLACK
6
CONTINUOUS
10
66.575
20
-31.275
11
68.175
21
-31.275
0
LINE
8
BLACK
6
CONTINUOUS
10
72.8
20
-6.2
11
76
21
-6.2
0
LINE
8
BLACK
6
CONTINUOUS
10
72.8
20
-7.8
11
72.8
21
-6.2
0
LINE
8
BLACK
6
CONTINUOUS
10
76
20
-7.8
11
72.8
21
-7.8
0
LINE
8
BLACK
6
CONTINUOUS
10
76
20
-6.2
11
76
21
-7.8
0
LINE
8
BLACK
6
CONTINUOUS
10
13.6
20
13.6
11
20.6
21
13.6
0
LINE
8
BLACK
6
CONTINUOUS
10
20.6
20
13.6
11
20.6
21
14
0
LINE
8
BLACK
6
CONTINUOUS
10
20.6
20
14
11
22.1
21
14
0
LINE
8
BLACK
6
CONTINUOUS
10
22.1
20
14
11
22.1
21
13.6
0
LINE
8
BLACK
6
CONTINUOUS
10
22.1
20
13.6
11
23.2
21
13.6
0
LINE
8
BLACK
6
CONTINUOUS
10
23.2
20
13.6
11
23.2
21
12.8
0
LINE
8
BLACK
6
CONTINUOUS
10
23.2011
20
8.80078
11
23.2
21
8.1
0
LINE
8
BLACK
6
CONTINUOUS
10
23.2
20
8.1
11
9.1
21
8.1
0
LINE
8
BLACK
6
CONTINUOUS
10
9.1
20
8.1
11
9.1
21
8.8
0
LINE
8
BLACK
6
CONTINUOUS
10
9.09782
20
12.7998
11
9.1
21
13.5
0
LINE
8
BLACK
6
CONTINUOUS
10
9.1
20
13.5
11
12.1
21
13.5
0
LINE
8
BLACK
6
CONTINUOUS
10
12.1
20
13.5
11
12.1
21
14
0
LINE
8
BLACK
6
CONTINUOUS
10
12.1
20
14
11
13.6
21
14
0
LINE
8
BLACK
6
CONTINUOUS
10
13.6
20
14
11
13.6
21
13.6
0
CIRCLE
8
BLACK
10
10.6
20
10.8
40
1.1
0
CIRCLE
8
BLACK
10
21.65
20
10.8
40
1.1
0
LINE
8
BLACK
6
CONTINUOUS
10
12.9
20
13
11
19.25
21
13
0
LINE
8
BLACK
6
CONTINUOUS
10
19.25
20
13
11
19.25
21
8.64998
0
LINE
8
BLACK
6
CONTINUOUS
10
19.25
20
8.6
11
12.9
21
8.6
0
LINE
8
BLACK
6
CONTINUOUS
10
12.9
20
8.6
11
12.9
21
13
0
ARC
8
BLACK
10
10.599
20
10.8005
40
2.50014
50
126.9
51
233.1
0
ARC
8
BLACK
10
21.7001
20
10.7999
40
2.49995
50
-53.0987
51
53.1013
0
LINE
8
BLACK
6
CONTINUOUS
10
74.2
20
-8.8
11
77.4
21
-8.8
0
LINE
8
BLACK
6
CONTINUOUS
10
74.2
20
-10.4
11
74.2
21
-8.8
0
LINE
8
BLACK
6
CONTINUOUS
10
77.4
20
-10.4
11
74.2
21
-10.4
0
LINE
8
BLACK
6
CONTINUOUS
10
77.4
20
-8.8
11
77.4
21
-10.4
0
LINE
8
BLACK
6
CONTINUOUS
10
72.2
20
12.6
11
75.4
21
12.6
0
LINE
8
BLACK
6
CONTINUOUS
10
72.2
20
11
11
72.2
21
12.6
0
LINE
8
BLACK
6
CONTINUOUS
10
75.4
20
11
11
72.2
21
11
0
LINE
8
BLACK
6
CONTINUOUS
10
75.4
20
12.6
11
75.4
21
11
0
LINE
8
BLACK
6
CONTINUOUS
10
60.05
20
-18.3
11
53.45
21
-18.3
0
LINE
8
BLACK
6
CONTINUOUS
10
53.45
20
-18.3
11
53.25
21
-18.1
0
LINE
8
BLACK
6
CONTINUOUS
10
53.25
20
-18.1
11
53.25
21
-13.5
0
LINE
8
BLACK
6
CONTINUOUS
10
53.25
20
-13.5
11
53.45
21
-13.3
0
LINE
8
BLACK
6
CONTINUOUS
10
53.45
20
-13.3
11
60.05
21
-13.3
0
LINE
8
BLACK
6
CONTINUOUS
10
60.05
20
-13.3
11
60.25
21
-13.5
0
LINE
8
BLACK
6
CONTINUOUS
10
60.25
20
-13.5
11
60.25
21
-18.1
0
LINE
8
BLACK
6
CONTINUOUS
10
60.25
20
-18.1
11
60.05
21
-18.3
0
LINE
8
BLACK
6
CONTINUOUS
10
60.25
20
-14.3
11
59.25
21
-13.3
0
LINE
8
BLACK
6
CONTINUOUS
10
34
20
-77
11
37
21
-77
0
LINE
8
BLACK
6
CONTINUOUS
10
37
20
-77
11
37
21
-76.5
0
LINE
8
BLACK
6
CONTINUOUS
10
37
20
-76.5
11
38.5
21
-76.5
0
LINE
8
BLACK
6
CONTINUOUS
10
38.5
20
-76.5
11
38.5
21
-77
0
LINE
8
BLACK
6
CONTINUOUS
10
38.5
20
-77
11
53.6
21
-77
0
LINE
8
BLACK
6
CONTINUOUS
10
53.6
20
-77
11
53.6
21
-76.5
0
LINE
8
BLACK
6
CONTINUOUS
10
53.6
20
-76.5
11
55.1
21
-76.5
0
LINE
8
BLACK
6
CONTINUOUS
10
55.1
20
-76.5
11
55.1
21
-77
0
LINE
8
BLACK
6
CONTINUOUS
10
55.1
20
-77
11
58.1
21
-77
0
LINE
8
BLACK
6
CONTINUOUS
10
58.1
20
-77
11
58.1
21
-77.7
0
LINE
8
BLACK
6
CONTINUOUS
10
58.1
20
-81.7
11
58.1
21
-82.4
0
LINE
8
BLACK
6
CONTINUOUS
10
58.1
20
-82.4
11
34
21
-82.4
0
LINE
8
BLACK
6
CONTINUOUS
10
34
20
-82.4
11
34
21
-81.7
0
CIRCLE
8
BLACK
10
56.5
20
-79.7
40
1.1
0
CIRCLE
8
BLACK
10
35.5
20
-79.7
40
1.1
0
LINE
8
BLACK
6
CONTINUOUS
10
34
20
-77.7
11
34
21
-77
0
ARC
8
BLACK
10
56.5991
20
-79.7007
40
2.49999
50
-53.1048
51
53.0952
0
ARC
8
BLACK
10
35.5001
20
-79.7002
40
2.50027
50
126.898
51
233.098
0
LINE
8
BLACK
6
CONTINUOUS
10
52
20
12.5
11
59
21
12.5
0
LINE
8
BLACK
6
CONTINUOUS
10
59
20
12.5
11
59
21
12.9
0
LINE
8
BLACK
6
CONTINUOUS
10
59
20
12.9
11
60.5
21
12.9
0
LINE
8
BLACK
6
CONTINUOUS
10
60.5
20
12.9
11
60.5
21
12.5
0
LINE
8
BLACK
6
CONTINUOUS
10
60.5
20
12.5
11
63.5
21
12.5
0
LINE
8
BLACK
6
CONTINUOUS
10
63.5
20
12.5
11
63.5
21
11.7
0
LINE
8
BLACK
6
CONTINUOUS
10
63.5011
20
7.70078
11
63.5
21
7
0
LINE
8
BLACK
6
CONTINUOUS
10
63.5
20
7
11
47.5
21
7
0
LINE
8
BLACK
6
CONTINUOUS
10
47.5
20
7
11
47.5
21
7.7
0
LINE
8
BLACK
6
CONTINUOUS
10
47.4978
20
11.6998
11
47.5
21
12.4
0
LINE
8
BLACK
6
CONTINUOUS
10
47.5
20
12.4
11
50.5
21
12.4
0
LINE
8
BLACK
6
CONTINUOUS
10
50.5
20
12.4
11
50.5
21
12.9
0
LINE
8
BLACK
6
CONTINUOUS
10
50.5
20
12.9
11
52
21
12.9
0
LINE
8
BLACK
6
CONTINUOUS
10
52
20
12.9
11
52
21
12.5
0
CIRCLE
8
BLACK
10
49
20
9.7
40
1.1
0
CIRCLE
8
BLACK
10
62
20
9.7
40
1.1
0
LINE
8
BLACK
6
CONTINUOUS
10
51.3
20
11.9
11
59.7
21
11.9
0
LINE
8
BLACK
6
CONTINUOUS
10
59.7
20
11.9
11
59.7
21
7.5
0
LINE
8
BLACK
6
CONTINUOUS
10
59.7
20
7.5
11
51.3
21
7.5
0
LINE
8
BLACK
6
CONTINUOUS
10
51.3
20
7.5
11
51.3
21
11.9
0
ARC
8
BLACK
10
48.999
20
9.70051
40
2.50014
50
126.9
51
233.1
0
ARC
8
BLACK
10
62.0001
20
9.69992
40
2.49995
50
-53.0987
51
53.1013
0
LINE
8
BLACK
6
CONTINUOUS
10
70.2
20
-5.27
11
68.93
21
-4
0
LINE
8
BLACK
6
CONTINUOUS
10
81.63
20
-5.27
11
70.2
21
-5.27
0
LINE
8
BLACK
6
CONTINUOUS
10
81.63
20
-0.19
11
81.63
21
-5.27
0
LINE
8
BLACK
6
CONTINUOUS
10
68.93
20
-0.19
11
81.63
21
-0.19
0
LINE
8
BLACK
6
CONTINUOUS
10
68.93
20
-4
11
68.93
21
-0.19
0
LINE
8
BLACK
6
CONTINUOUS
10
76.375
20
-48.395
11
75.105
21
-47.125
0
LINE
8
BLACK
6
CONTINUOUS
10
87.805
20
-48.395
11
76.375
21
-48.395
0
LINE
8
BLACK
6
CONTINUOUS
10
87.805
20
-43.315
11
87.805
21
-48.395
0
LINE
8
BLACK
6
CONTINUOUS
10
75.105
20
-43.315
11
87.805
21
-43.315
0
LINE
8
BLACK
6
CONTINUOUS
10
75.105
20
-47.125
11
75.105
21
-43.315
0
LINE
8
BLACK
6
CONTINUOUS
10
17.05
20
-50.35
11
17.05
21
-48.85
0
LINE
8
BLACK
6
CONTINUOUS
10
21.55
20
-51.35
11
18.05
21
-51.35
0
LINE
8
BLACK
6
CONTINUOUS
10
21.55
20
-48.85
11
21.55
21
-51.35
0
LINE
8
BLACK
6
CONTINUOUS
10
17.05
20
-48.85
11
21.55
21
-48.85
0
LINE
8
BLACK
6
CONTINUOUS
10
18.05
20
-51.35
11
17.05
21
-50.35
0
LINE
8
BLACK
6
CONTINUOUS
10
1.35
20
-50.05
11
1.35
21
-48.55
0
LINE
8
BLACK
6
CONTINUOUS
10
5.85
20
-51.05
11
2.35
21
-51.05
0
LINE
8
BLACK
6
CONTINUOUS
10
5.85
20
-48.55
11
5.85
21
-51.05
0
LINE
8
BLACK
6
CONTINUOUS
10
1.35
20
-48.55
11
5.85
21
-48.55
0
LINE
8
BLACK
6
CONTINUOUS
10
2.35
20
-51.05
11
1.35
21
-50.05
0
LINE
8
BLACK
6
CONTINUOUS
10
69.45
20
-37.605
11
68.05
21
-37.605
0
LINE
8
BLACK
6
CONTINUOUS
10
68.05
20
-40.645
11
68.05
21
-37.605
0
LINE
8
BLACK
6
CONTINUOUS
10
69.45
20
-40.075
11
68.9
21
-40.645
0
LINE
8
BLACK
6
CONTINUOUS
10
68.9
20
-40.645
11
68.05
21
-40.645
0
LINE
8
BLACK
6
CONTINUOUS
10
69.45
20
-40.075
11
69.45
21
-37.625
0
LINE
8
BLACK
6
CONTINUOUS
10
65.77
20
-37.8
11
65.77
21
-36.4
0
LINE
8
BLACK
6
CONTINUOUS
10
62.73
20
-36.4
11
65.77
21
-36.4
0
LINE
8
BLACK
6
CONTINUOUS
10
63.3
20
-37.8
11
62.73
21
-37.25
0
LINE
8
BLACK
6
CONTINUOUS
10
62.73
20
-37.25
11
62.73
21
-36.4
0
LINE
8
BLACK
6
CONTINUOUS
10
63.3
20
-37.8
11
65.75
21
-37.8
0
LINE
8
BLACK
6
CONTINUOUS
10
16.8
20
-60.25
11
16.8
21
-62.15
0
LINE
8
BLACK
6
CONTINUOUS
10
13.5
20
-61.2
11
10.4
21
-61.2
0
LINE
8
BLACK
6
CONTINUOUS
10
13.5
20
-60.25
11
17.3
21
-60.25
0
LINE
8
BLACK
6
CONTINUOUS
10
13.5
20
-62.15
11
13.5
21
-60.25
0
LINE
8
BLACK
6
CONTINUOUS
10
17.3
20
-62.15
11
13.5
21
-62.15
0
LINE
8
BLACK
6
CONTINUOUS
10
17.3
20
-60.25
11
17.3
21
-62.15
0
LINE
8
BLACK
6
CONTINUOUS
10
20.4
20
-61.2
11
17.3
21
-61.2
0
LINE
8
BLACK
6
CONTINUOUS
10
71.825
20
-60.48
11
70.425
21
-60.48
0
LINE
8
BLACK
6
CONTINUOUS
10
70.425
20
-63.52
11
70.425
21
-60.48
0
LINE
8
BLACK
6
CONTINUOUS
10
71.825
20
-62.95
11
71.275
21
-63.52
0
LINE
8
BLACK
6
CONTINUOUS
10
71.275
20
-63.52
11
70.425
21
-63.52
0
LINE
8
BLACK
6
CONTINUOUS
10
71.825
20
-62.95
11
71.825
21
-60.5
0
LINE
8
BLACK
6
CONTINUOUS
10
74.645
20
-39.7
11
74.645
21
-38.3
0
LINE
8
BLACK
6
CONTINUOUS
10
71.605
20
-38.3
11
74.645
21
-38.3
0
LINE
8
BLACK
6
CONTINUOUS
10
72.175
20
-39.7
11
71.605
21
-39.15
0
LINE
8
BLACK
6
CONTINUOUS
10
71.605
20
-39.15
11
71.605
21
-38.3
0
LINE
8
BLACK
6
CONTINUOUS
10
72.175
20
-39.7
11
74.625
21
-39.7
0
LINE
8
BLACK
6
CONTINUOUS
10
55.895
20
-56.825
11
55.895
21
-55.425
0
LINE
8
BLACK
6
CONTINUOUS
10
52.855
20
-55.425
11
55.895
21
-55.425
0
LINE
8
BLACK
6
CONTINUOUS
10
53.425
20
-56.825
11
52.855
21
-56.275
0
LINE
8
BLACK
6
CONTINUOUS
10
52.855
20
-56.275
11
52.855
21
-55.425
0
LINE
8
BLACK
6
CONTINUOUS
10
53.425
20
-56.825
11
55.875
21
-56.825
0
LINE
8
BLACK
6
CONTINUOUS
10
60.65
20
-30.825
11
63.85
21
-30.825
0
LINE
8
BLACK
6
CONTINUOUS
10
60.65
20
-32.425
11
60.65
21
-30.825
0
LINE
8
BLACK
6
CONTINUOUS
10
63.85
20
-32.425
11
60.65
21
-32.425
0
LINE
8
BLACK
6
CONTINUOUS
10
63.85
20
-30.825
11
63.85
21
-32.425
0
LINE
8
BLACK
6
CONTINUOUS
10
23
20
-63
11
23
21
-59.8
0
LINE
8
BLACK
6
CONTINUOUS
10
24.6
20
-63
11
23
21
-63
0
LINE
8
BLACK
6
CONTINUOUS
10
24.6
20
-59.8
11
24.6
21
-63
0
LINE
8
BLACK
6
CONTINUOUS
10
23
20
-59.8
11
24.6
21
-59.8
0
LINE
8
BLACK
6
CONTINUOUS
10
63.85
20
-34.8
11
60.65
21
-34.8
0
LINE
8
BLACK
6
CONTINUOUS
10
63.85
20
-33.2
11
63.85
21
-34.8
0
LINE
8
BLACK
6
CONTINUOUS
10
60.65
20
-33.2
11
63.85
21
-33.2
0
LINE
8
BLACK
6
CONTINUOUS
10
60.65
20
-34.8
11
60.65
21
-33.2
0
LINE
8
BLACK
6
CONTINUOUS
10
73.075
20
-54.85
11
73.075
21
-51.65
0
LINE
8
BLACK
6
CONTINUOUS
10
74.675
20
-54.85
11
73.075
21
-54.85
0
LINE
8
BLACK
6
CONTINUOUS
10
74.675
20
-51.65
11
74.675
21
-54.85
0
LINE
8
BLACK
6
CONTINUOUS
10
73.075
20
-51.65
11
74.675
21
-51.65
0
LINE
8
BLACK
6
CONTINUOUS
10
20.5
20
-58.2
11
20.5
21
-55
0
LINE
8
BLACK
6
CONTINUOUS
10
22.1
20
-58.2
11
20.5
21
-58.2
0
LINE
8
BLACK
6
CONTINUOUS
10
22.1
20
-55
11
22.1
21
-58.2
0
LINE
8
BLACK
6
CONTINUOUS
10
20.5
20
-55
11
22.1
21
-55
0
LINE
8
BLACK
6
CONTINUOUS
10
23
20
-58.2
11
23
21
-55
0
LINE
8
BLACK
6
CONTINUOUS
10
24.6
20
-58.2
11
23
21
-58.2
0
LINE
8
BLACK
6
CONTINUOUS
10
24.6
20
-55
11
24.6
21
-58.2
0
LINE
8
BLACK
6
CONTINUOUS
10
23
20
-55
11
24.6
21
-55
0
LINE
8
BLACK
6
CONTINUOUS
10
17.975
20
-57.675
11
14.775
21
-57.675
0
LINE
8
BLACK
6
CONTINUOUS
10
17.975
20
-56.075
11
17.975
21
-57.675
0
LINE
8
BLACK
6
CONTINUOUS
10
14.775
20
-56.075
11
17.975
21
-56.075
0
LINE
8
BLACK
6
CONTINUOUS
10
14.775
20
-57.675
11
14.775
21
-56.075
0
LINE
8
BLACK
6
CONTINUOUS
10
71.2
20
-75.875
11
71.2
21
-72.675
0
LINE
8
BLACK
6
CONTINUOUS
10
72.8
20
-75.875
11
71.2
21
-75.875
0
LINE
8
BLACK
6
CONTINUOUS
10
72.8
20
-72.675
11
72.8
21
-75.875
0
LINE
8
BLACK
6
CONTINUOUS
10
71.2
20
-72.675
11
72.8
21
-72.675
0
LINE
8
BLACK
6
CONTINUOUS
10
61.475
20
-38.425
11
58.275
21
-38.425
0
LINE
8
BLACK
6
CONTINUOUS
10
61.475
20
-36.825
11
61.475
21
-38.425
0
LINE
8
BLACK
6
CONTINUOUS
10
58.275
20
-36.825
11
61.475
21
-36.825
0
LINE
8
BLACK
6
CONTINUOUS
10
58.275
20
-38.425
11
58.275
21
-36.825
0
LINE
8
BLACK
6
CONTINUOUS
10
67.85
20
-44.3
11
64.65
21
-44.3
0
LINE
8
BLACK
6
CONTINUOUS
10
67.85
20
-42.7
11
67.85
21
-44.3
0
LINE
8
BLACK
6
CONTINUOUS
10
64.65
20
-42.7
11
67.85
21
-42.7
0
LINE
8
BLACK
6
CONTINUOUS
10
64.65
20
-44.3
11
64.65
21
-42.7
0
LINE
8
BLACK
6
CONTINUOUS
10
57.225
20
-74.55
11
54.025
21
-74.55
0
LINE
8
BLACK
6
CONTINUOUS
10
57.225
20
-72.95
11
57.225
21
-74.55
0
LINE
8
BLACK
6
CONTINUOUS
10
54.025
20
-72.95
11
57.225
21
-72.95
0
LINE
8
BLACK
6
CONTINUOUS
10
54.025
20
-74.55
11
54.025
21
-72.95
0
LINE
8
BLACK
6
CONTINUOUS
10
78.125
20
-54.425
11
78.125
21
-51.225
0
LINE
8
BLACK
6
CONTINUOUS
10
79.725
20
-54.425
11
78.125
21
-54.425
0
LINE
8
BLACK
6
CONTINUOUS
10
79.725
20
-51.225
11
79.725
21
-54.425
0
LINE
8
BLACK
6
CONTINUOUS
10
78.125
20
-51.225
11
79.725
21
-51.225
0
LINE
8
BLACK
6
CONTINUOUS
10
80.525
20
-54.425
11
80.525
21
-51.225
0
LINE
8
BLACK
6
CONTINUOUS
10
82.125
20
-54.425
11
80.525
21
-54.425
0
LINE
8
BLACK
6
CONTINUOUS
10
82.125
20
-51.225
11
82.125
21
-54.425
0
LINE
8
BLACK
6
CONTINUOUS
10
80.525
20
-51.225
11
82.125
21
-51.225
0
LINE
8
BLACK
6
CONTINUOUS
10
82.925
20
-54.425
11
82.925
21
-51.225
0
LINE
8
BLACK
6
CONTINUOUS
10
84.525
20
-54.425
11
82.925
21
-54.425
0
LINE
8
BLACK
6
CONTINUOUS
10
84.525
20
-51.225
11
84.525
21
-54.425
0
LINE
8
BLACK
6
CONTINUOUS
10
82.925
20
-51.225
11
84.525
21
-51.225
0
LINE
8
BLACK
6
CONTINUOUS
10
66.175
20
-60.65
11
66.175
21
-63.85
0
LINE
8
BLACK
6
CONTINUOUS
10
64.575
20
-60.65
11
66.175
21
-60.65
0
LINE
8
BLACK
6
CONTINUOUS
10
64.575
20
-63.85
11
64.575
21
-60.65
0
LINE
8
BLACK
6
CONTINUOUS
10
66.175
20
-63.85
11
64.575
21
-63.85
0
LINE
8
BLACK
6
CONTINUOUS
10
60.6
20
-55.925
11
57.4
21
-55.925
0
LINE
8
BLACK
6
CONTINUOUS
10
60.6
20
-54.325
11
60.6
21
-55.925
0
LINE
8
BLACK
6
CONTINUOUS
10
57.4
20
-54.325
11
60.6
21
-54.325
0
LINE
8
BLACK
6
CONTINUOUS
10
57.4
20
-55.925
11
57.4
21
-54.325
0
LINE
8
BLACK
6
CONTINUOUS
10
60.6
20
-58.3
11
57.4
21
-58.3
0
LINE
8
BLACK
6
CONTINUOUS
10
60.6
20
-56.7
11
60.6
21
-58.3
0
LINE
8
BLACK
6
CONTINUOUS
10
57.4
20
-56.7
11
60.6
21
-56.7
0
LINE
8
BLACK
6
CONTINUOUS
10
57.4
20
-58.3
11
57.4
21
-56.7
0
LINE
8
BLACK
6
CONTINUOUS
10
76.725
20
-64.325
11
76.725
21
-67.525
0
LINE
8
BLACK
6
CONTINUOUS
10
75.125
20
-64.325
11
76.725
21
-64.325
0
LINE
8
BLACK
6
CONTINUOUS
10
75.125
20
-67.525
11
75.125
21
-64.325
0
LINE
8
BLACK
6
CONTINUOUS
10
76.725
20
-67.525
11
75.125
21
-67.525
0
LINE
8
BLACK
6
CONTINUOUS
10
64.65
20
-48.45
11
67.85
21
-48.45
0
LINE
8
BLACK
6
CONTINUOUS
10
64.65
20
-50.05
11
64.65
21
-48.45
0
LINE
8
BLACK
6
CONTINUOUS
10
67.85
20
-50.05
11
64.65
21
-50.05
0
LINE
8
BLACK
6
CONTINUOUS
10
67.85
20
-48.45
11
67.85
21
-50.05
0
CIRCLE
8
BLACK
10
70.36
20
-56.375
40
0.316228
0
CIRCLE
8
BLACK
10
67.1
20
-56.375
40
3.25
0
LINE
8
BLACK
6
CONTINUOUS
10
63.55
20
-60.65
11
63.55
21
-63.85
0
LINE
8
BLACK
6
CONTINUOUS
10
61.95
20
-60.65
11
63.55
21
-60.65
0
LINE
8
BLACK
6
CONTINUOUS
10
61.95
20
-63.85
11
61.95
21
-60.65
0
LINE
8
BLACK
6
CONTINUOUS
10
63.55
20
-63.85
11
61.95
21
-63.85
0
LINE
8
BLACK
6
CONTINUOUS
10
73.275
20
-79.2
11
76.475
21
-79.2
0
LINE
8
BLACK
6
CONTINUOUS
10
73.275
20
-80.8
11
73.275
21
-79.2
0
LINE
8
BLACK
6
CONTINUOUS
10
76.475
20
-80.8
11
73.275
21
-80.8
0
LINE
8
BLACK
6
CONTINUOUS
10
76.475
20
-79.2
11
76.475
21
-80.8
0
LINE
8
BLACK
6
CONTINUOUS
10
44.975
20
-55.925
11
41.775
21
-55.925
0
LINE
8
BLACK
6
CONTINUOUS
10
44.975
20
-54.325
11
44.975
21
-55.925
0
LINE
8
BLACK
6
CONTINUOUS
10
41.775
20
-54.325
11
44.975
21
-54.325
0
LINE
8
BLACK
6
CONTINUOUS
10
41.775
20
-55.925
11
41.775
21
-54.325
0
LINE
8
BLACK
6
CONTINUOUS
10
76.475
20
-83.425
11
73.275
21
-83.425
0
LINE
8
BLACK
6
CONTINUOUS
10
76.475
20
-81.825
11
76.475
21
-83.425
0
LINE
8
BLACK
6
CONTINUOUS
10
73.275
20
-81.825
11
76.475
21
-81.825
0
LINE
8
BLACK
6
CONTINUOUS
10
73.275
20
-83.425
11
73.275
21
-81.825
0
LINE
8
BLACK
6
CONTINUOUS
10
76.8
20
-69.6125
11
76.8
21
-72.8125
0
LINE
8
BLACK
6
CONTINUOUS
10
75.2
20
-69.6125
11
76.8
21
-69.6125
0
LINE
8
BLACK
6
CONTINUOUS
10
75.2
20
-72.8125
11
75.2
21
-69.6125
0
LINE
8
BLACK
6
CONTINUOUS
10
76.8
20
-72.8125
11
75.2
21
-72.8125
0
LINE
8
BLACK
6
CONTINUOUS
10
65.475
20
-70.925
11
62.275
21
-70.925
0
LINE
8
BLACK
6
CONTINUOUS
10
65.475
20
-69.325
11
65.475
21
-70.925
0
LINE
8
BLACK
6
CONTINUOUS
10
62.275
20
-69.325
11
65.475
21
-69.325
0
LINE
8
BLACK
6
CONTINUOUS
10
62.275
20
-70.925
11
62.275
21
-69.325
0
LINE
8
BLACK
6
CONTINUOUS
10
38.7
20
-31.45
11
28.5
21
-31.45
0
LINE
8
BLACK
6
CONTINUOUS
10
38.7
20
-26.35
11
38.7
21
-31.45
0
LINE
8
BLACK
6
CONTINUOUS
10
28.5
20
-26.35
11
38.7
21
-26.35
0
LINE
8
BLACK
6
CONTINUOUS
10
28.5
20
-31.45
11
28.5
21
-26.35
0
LINE
8
BLACK
6
CONTINUOUS
10
52.4
20
-74.55
11
49.2
21
-74.55
0
LINE
8
BLACK
6
CONTINUOUS
10
52.4
20
-72.95
11
52.4
21
-74.55
0
LINE
8
BLACK
6
CONTINUOUS
10
49.2
20
-72.95
11
52.4
21
-72.95
0
LINE
8
BLACK
6
CONTINUOUS
10
49.2
20
-74.55
11
49.2
21
-72.95
0
LINE
8
BLACK
6
CONTINUOUS
10
49.075
20
-38.1
11
49.075
21
-34.9
0
LINE
8
BLACK
6
CONTINUOUS
10
50.675
20
-38.1
11
49.075
21
-38.1
0
LINE
8
BLACK
6
CONTINUOUS
10
50.675
20
-34.9
11
50.675
21
-38.1
0
LINE
8
BLACK
6
CONTINUOUS
10
49.075
20
-34.9
11
50.675
21
-34.9
0
LINE
8
BLACK
6
CONTINUOUS
10
41.775
20
-56.7
11
44.975
21
-56.7
0
LINE
8
BLACK
6
CONTINUOUS
10
41.775
20
-58.3
11
41.775
21
-56.7
0
LINE
8
BLACK
6
CONTINUOUS
10
44.975
20
-58.3
11
41.775
21
-58.3
0
LINE
8
BLACK
6
CONTINUOUS
10
44.975
20
-56.7
11
44.975
21
-58.3
0
LINE
8
BLACK
6
CONTINUOUS
10
36.35
20
-73.35
11
36.35
21
-70.15
0
LINE
8
BLACK
6
CONTINUOUS
10
37.95
20
-73.35
11
36.35
21
-73.35
0
LINE
8
BLACK
6
CONTINUOUS
10
37.95
20
-70.15
11
37.95
21
-73.35
0
LINE
8
BLACK
6
CONTINUOUS
10
36.35
20
-70.15
11
37.95
21
-70.15
0
LINE
8
BLACK
6
CONTINUOUS
10
40.45
20
-70.15
11
40.45
21
-73.35
0
LINE
8
BLACK
6
CONTINUOUS
10
38.85
20
-70.15
11
40.45
21
-70.15
0
LINE
8
BLACK
6
CONTINUOUS
10
38.85
20
-73.35
11
38.85
21
-70.15
0
LINE
8
BLACK
6
CONTINUOUS
10
40.45
20
-73.35
11
38.85
21
-73.35
0
LINE
8
BLACK
6
CONTINUOUS
10
35.55
20
-70.15
11
35.55
21
-73.35
0
LINE
8
BLACK
6
CONTINUOUS
10
33.95
20
-70.15
11
35.55
21
-70.15
0
LINE
8
BLACK
6
CONTINUOUS
10
33.95
20
-73.35
11
33.95
21
-70.15
0
LINE
8
BLACK
6
CONTINUOUS
10
35.55
20
-73.35
11
33.95
21
-73.35
0
LINE
8
BLACK
6
CONTINUOUS
10
50.675
20
-20.65
11
50.675
21
-23.85
0
LINE
8
BLACK
6
CONTINUOUS
10
49.075
20
-20.65
11
50.675
21
-20.65
0
LINE
8
BLACK
6
CONTINUOUS
10
49.075
20
-23.85
11
49.075
21
-20.65
0
LINE
8
BLACK
6
CONTINUOUS
10
50.675
20
-23.85
11
49.075
21
-23.85
0
CIRCLE
8
BLACK
10
52.25
20
-31.86
40
0.316228
0
CIRCLE
8
BLACK
10
52.25
20
-28.6
40
3.25
0
LINE
8
BLACK
6
CONTINUOUS
10
71.575
20
-44.975
11
71.575
21
-41.775
0
LINE
8
BLACK
6
CONTINUOUS
10
73.175
20
-44.975
11
71.575
21
-44.975
0
LINE
8
BLACK
6
CONTINUOUS
10
73.175
20
-41.775
11
73.175
21
-44.975
0
LINE
8
BLACK
6
CONTINUOUS
10
71.575
20
-41.775
11
73.175
21
-41.775
0
LINE
8
BLACK
6
CONTINUOUS
10
18
20
-55.1
11
14.8
21
-55.1
0
LINE
8
BLACK
6
CONTINUOUS
10
18
20
-53.5
11
18
21
-55.1
0
LINE
8
BLACK
6
CONTINUOUS
10
14.8
20
-53.5
11
18
21
-53.5
0
LINE
8
BLACK
6
CONTINUOUS
10
14.8
20
-55.1
11
14.8
21
-53.5
0
LINE
8
BLACK
6
CONTINUOUS
10
3.6
20
-54.8
11
0.4
21
-54.8
0
LINE
8
BLACK
6
CONTINUOUS
10
3.6
20
-53.2
11
3.6
21
-54.8
0
LINE
8
BLACK
6
CONTINUOUS
10
0.4
20
-53.2
11
3.6
21
-53.2
0
LINE
8
BLACK
6
CONTINUOUS
10
0.4
20
-54.8
11
0.4
21
-53.2
0
LINE
8
BLACK
6
CONTINUOUS
10
70.4
20
11
11
67.2
21
11
0
LINE
8
BLACK
6
CONTINUOUS
10
70.4
20
12.6
11
70.4
21
11
0
LINE
8
BLACK
6
CONTINUOUS
10
67.2
20
12.6
11
70.4
21
12.6
0
LINE
8
BLACK
6
CONTINUOUS
10
67.2
20
11
11
67.2
21
12.6
0
LINE
8
BLACK
6
CONTINUOUS
10
66.8
20
4.2
11
66.8
21
1
0
LINE
8
BLACK
6
CONTINUOUS
10
65.2
20
4.2
11
66.8
21
4.2
0
LINE
8
BLACK
6
CONTINUOUS
10
65.2
20
1
11
65.2
21
4.2
0
LINE
8
BLACK
6
CONTINUOUS
10
66.8
20
1
11
65.2
21
1
0
LINE
8
BLACK
6
CONTINUOUS
10
70.4
20
-7.8
11
67.2
21
-7.8
0
LINE
8
BLACK
6
CONTINUOUS
10
70.4
20
-6.2
11
70.4
21
-7.8
0
LINE
8
BLACK
6
CONTINUOUS
10
67.2
20
-6.2
11
70.4
21
-6.2
0
LINE
8
BLACK
6
CONTINUOUS
10
67.2
20
-7.8
11
67.2
21
-6.2
0
LINE
8
BLACK
6
CONTINUOUS
10
74.225
20
-34.425
11
71.025
21
-34.425
0
LINE
8
BLACK
6
CONTINUOUS
10
74.225
20
-32.825
11
74.225
21
-34.425
0
LINE
8
BLACK
6
CONTINUOUS
10
71.025
20
-32.825
11
74.225
21
-32.825
0
LINE
8
BLACK
6
CONTINUOUS
10
71.025
20
-34.425
11
71.025
21
-32.825
0
LINE
8
BLACK
6
CONTINUOUS
10
78.575
20
-35.45
11
81.775
21
-35.45
0
LINE
8
BLACK
6
CONTINUOUS
10
78.575
20
-37.05
11
78.575
21
-35.45
0
LINE
8
BLACK
6
CONTINUOUS
10
81.775
20
-37.05
11
78.575
21
-37.05
0
LINE
8
BLACK
6
CONTINUOUS
10
81.775
20
-35.45
11
81.775
21
-37.05
0
LINE
8
BLACK
6
CONTINUOUS
10
74.225
20
-36.8
11
71.025
21
-36.8
0
LINE
8
BLACK
6
CONTINUOUS
10
74.225
20
-35.2
11
74.225
21
-36.8
0
LINE
8
BLACK
6
CONTINUOUS
10
71.025
20
-35.2
11
74.225
21
-35.2
0
LINE
8
BLACK
6
CONTINUOUS
10
71.025
20
-36.8
11
71.025
21
-35.2
0
LINE
8
BLACK
6
CONTINUOUS
10
78.525
20
-37.95
11
81.725
21
-37.95
0
LINE
8
BLACK
6
CONTINUOUS
10
78.525
20
-39.55
11
78.525
21
-37.95
0
LINE
8
BLACK
6
CONTINUOUS
10
81.725
20
-39.55
11
78.525
21
-39.55
0
LINE
8
BLACK
6
CONTINUOUS
10
81.725
20
-37.95
11
81.725
21
-39.55
0
LINE
8
BLACK
6
CONTINUOUS
10
78.575
20
-32.95
11
81.775
21
-32.95
0
LINE
8
BLACK
6
CONTINUOUS
10
78.575
20
-34.55
11
78.575
21
-32.95
0
LINE
8
BLACK
6
CONTINUOUS
10
81.775
20
-34.55
11
78.575
21
-34.55
0
LINE
8
BLACK
6
CONTINUOUS
10
81.775
20
-32.95
11
81.775
21
-34.55
0
LINE
8
BLACK
6
CONTINUOUS
10
79.94
20
-28.51
11
66.14
21
-28.51
0
LINE
8
BLACK
6
CONTINUOUS
10
66.14
20
-14.71
11
66.14
21
-28.51
0
LINE
8
BLACK
6
CONTINUOUS
10
71.69
20
-14.71
11
66.14
21
-14.71
0
LINE
8
BLACK
6
CONTINUOUS
10
72.69
20
-15.71
11
71.69
21
-14.71
0
LINE
8
BLACK
6
CONTINUOUS
10
73.69
20
-14.71
11
72.69
21
-15.71
0
LINE
8
BLACK
6
CONTINUOUS
10
79.94
20
-14.71
11
73.69
21
-14.71
0
LINE
8
BLACK
6
CONTINUOUS
10
79.94
20
-14.71
11
79.94
21
-28.51
0
LINE
8
BLACK
6
CONTINUOUS
10
76.39
20
2.81
11
70.61
21
2.81
0
LINE
8
BLACK
6
CONTINUOUS
10
77.39
20
3.81
11
77.39
21
9.59
0
LINE
8
BLACK
6
CONTINUOUS
10
76.39
20
2.81
11
77.39
21
3.81
0
LINE
8
BLACK
6
CONTINUOUS
10
77.39
20
9.59
11
70.61
21
9.59
0
LINE
8
BLACK
6
CONTINUOUS
10
70.61
20
2.81
11
70.61
21
9.59
0
LINE
8
BLACK
6
CONTINUOUS
10
89.85
20
-61.7
11
89.85
21
-70.15
0
LINE
8
BLACK
6
CONTINUOUS
10
88.85
20
-60.7
11
78.2
21
-60.7
0
LINE
8
BLACK
6
CONTINUOUS
10
89.85
20
-61.7
11
88.85
21
-60.7
0
LINE
8
BLACK
6
CONTINUOUS
10
78.2
20
-60.7
11
78.2
21
-70.15
0
LINE
8
BLACK
6
CONTINUOUS
10
89.85
20
-70.15
11
78.2
21
-70.15
0
LINE
8
BLACK
6
CONTINUOUS
10
18.1
20
-75.4
11
25.7
21
-75.4
0
LINE
8
BLACK
6
CONTINUOUS
10
25.7
20
-65.2
11
25.7
21
-75.4
0
LINE
8
BLACK
6
CONTINUOUS
10
18.1
20
-65.2
11
25.7
21
-65.2
0
LINE
8
BLACK
6
CONTINUOUS
10
18.1
20
-65.2
11
18.1
21
-75.4
0
LINE
8
BLACK
6
CONTINUOUS
10
1.6
20
-75.398
11
9.2
21
-75.398
0
LINE
8
BLACK
6
CONTINUOUS
10
9.2
20
-65.198
11
9.2
21
-75.398
0
LINE
8
BLACK
6
CONTINUOUS
10
1.6
20
-65.198
11
9.2
21
-65.198
0
LINE
8
BLACK
6
CONTINUOUS
10
1.6
20
-65.198
11
1.6
21
-75.398
0
LINE
8
BLACK
6
CONTINUOUS
10
58.58
20
-10.47
11
58.58
21
-7.77
0
LINE
8
BLACK
6
CONTINUOUS
10
57.83
20
-10.47
11
58.58
21
-10.47
0
LINE
8
BLACK
6
CONTINUOUS
10
57.83
20
-7.77
11
57.83
21
-10.47
0
LINE
8
BLACK
6
CONTINUOUS
10
56.3
20
-10.47
11
56.3
21
-7.77
0
LINE
8
BLACK
6
CONTINUOUS
10
55.55
20
-10.47
11
56.3
21
-10.47
0
LINE
8
BLACK
6
CONTINUOUS
10
55.55
20
-7.77
11
55.55
21
-10.47
0
LINE
8
BLACK
6
CONTINUOUS
10
54.02
20
-10.47
11
54.02
21
-7.77
0
LINE
8
BLACK
6
CONTINUOUS
10
53.27
20
-10.47
11
54.02
21
-10.47
0
LINE
8
BLACK
6
CONTINUOUS
10
53.27
20
-7.365
11
53.27
21
-10.47
0
LINE
8
BLACK
6
CONTINUOUS
10
52.675
20
-6.77
11
52.675
21
-1.55
0
LINE
8
BLACK
6
CONTINUOUS
10
53.675
20
-7.77
11
52.675
21
-6.77
0
LINE
8
BLACK
6
CONTINUOUS
10
59.175
20
-7.77
11
53.675
21
-7.77
0
LINE
8
BLACK
6
CONTINUOUS
10
59.175
20
-1.55
11
59.175
21
-7.77
0
LINE
8
BLACK
6
CONTINUOUS
10
52.675
20
-1.55
11
59.175
21
-1.55
0
LINE
8
BLACK
6
CONTINUOUS
10
58.625
20
-0.55
11
58.625
21
-1.55
0
LINE
8
BLACK
6
CONTINUOUS
10
53.225
20
-0.55
11
58.625
21
-0.55
0
LINE
8
BLACK
6
CONTINUOUS
10
53.225
20
-1.55
11
53.225
21
-0.55
0
LINE
8
BLACK
6
CONTINUOUS
10
55.025
20
-71.45
11
46.575
21
-71.45
0
LINE
8
BLACK
6
CONTINUOUS
10
56.025
20
-70.45
11
56.025
21
-59.8
0
LINE
8
BLACK
6
CONTINUOUS
10
55.025
20
-71.45
11
56.025
21
-70.45
0
LINE
8
BLACK
6
CONTINUOUS
10
56.025
20
-59.8
11
46.575
21
-59.8
0
LINE
8
BLACK
6
CONTINUOUS
10
46.575
20
-71.45
11
46.575
21
-59.8
0
LINE
8
BLACK
6
CONTINUOUS
10
60.65
20
-28.45
11
63.85
21
-28.45
0
LINE
8
BLACK
6
CONTINUOUS
10
60.65
20
-30.05
11
60.65
21
-28.45
0
LINE
8
BLACK
6
CONTINUOUS
10
63.85
20
-30.05
11
60.65
21
-30.05
0
LINE
8
BLACK
6
CONTINUOUS
10
63.85
20
-28.45
11
63.85
21
-30.05
0
LINE
8
BLACK
6
CONTINUOUS
10
27.2
20
-55
11
27.2
21
-58.2
0
LINE
8
BLACK
6
CONTINUOUS
10
25.6
20
-55
11
27.2
21
-55
0
LINE
8
BLACK
6
CONTINUOUS
10
25.6
20
-58.2
11
25.6
21
-55
0
LINE
8
BLACK
6
CONTINUOUS
10
27.2
20
-58.2
11
25.6
21
-58.2
0
LINE
8
BLACK
6
CONTINUOUS
10
42.8
20
-38.025
11
42.8
21
-41.225
0
LINE
8
BLACK
6
CONTINUOUS
10
41.2
20
-38.025
11
42.8
21
-38.025
0
LINE
8
BLACK
6
CONTINUOUS
10
41.2
20
-41.225
11
41.2
21
-38.025
0
LINE
8
BLACK
6
CONTINUOUS
10
42.8
20
-41.225
11
41.2
21
-41.225
0
LINE
8
BLACK
6
CONTINUOUS
10
41.2
20
-47.35
11
41.2
21
-44.15
0
LINE
8
BLACK
6
CONTINUOUS
10
42.8
20
-47.35
11
41.2
21
-47.35
0
LINE
8
BLACK
6
CONTINUOUS
10
42.8
20
-44.15
11
42.8
21
-47.35
0
LINE
8
BLACK
6
CONTINUOUS
10
41.2
20
-44.15
11
42.8
21
-44.15
0
LINE
8
BLACK
6
CONTINUOUS
10
78.825
20
-79.625
11
78.825
21
-76.425
0
LINE
8
BLACK
6
CONTINUOUS
10
80.425
20
-79.625
11
78.825
21
-79.625
0
LINE
8
BLACK
6
CONTINUOUS
10
80.425
20
-76.425
11
80.425
21
-79.625
0
LINE
8
BLACK
6
CONTINUOUS
10
78.825
20
-76.425
11
80.425
21
-76.425
0
LINE
8
BLACK
6
CONTINUOUS
10
81.525
20
-79.625
11
81.525
21
-76.425
0
LINE
8
BLACK
6
CONTINUOUS
10
83.125
20
-79.625
11
81.525
21
-79.625
0
LINE
8
BLACK
6
CONTINUOUS
10
83.125
20
-76.425
11
83.125
21
-79.625
0
LINE
8
BLACK
6
CONTINUOUS
10
81.525
20
-76.425
11
83.125
21
-76.425
0
LINE
8
BLACK
6
CONTINUOUS
10
73.5
20
-65.025
11
73.5
21
-70.725
0
LINE
8
BLACK
6
CONTINUOUS
10
68.5
20
-65.025
11
73.5
21
-65.025
0
LINE
8
BLACK
6
CONTINUOUS
10
68.5
20
-70.725
11
68.5
21
-65.025
0
LINE
8
BLACK
6
CONTINUOUS
10
73.5
20
-70.725
11
68.5
21
-70.725
0
LINE
8
BLACK
6
CONTINUOUS
10
75.2
20
-62.725
11
75.2
21
-59.525
0
LINE
8
BLACK
6
CONTINUOUS
10
76.8
20
-62.725
11
75.2
21
-62.725
0
LINE
8
BLACK
6
CONTINUOUS
10
76.8
20
-59.525
11
76.8
21
-62.725
0
LINE
8
BLACK
6
CONTINUOUS
10
75.2
20
-59.525
11
76.8
21
-59.525
0
LINE
8
BLACK
6
CONTINUOUS
10
37.1
20
-60
11
40.3
21
-60
0
LINE
8
BLACK
6
CONTINUOUS
10
37.1
20
-61.6
11
37.1
21
-60
0
LINE
8
BLACK
6
CONTINUOUS
10
40.3
20
-61.6
11
37.1
21
-61.6
0
LINE
8
BLACK
6
CONTINUOUS
10
40.3
20
-60
11
40.3
21
-61.6
0
LINE
8
BLACK
6
CONTINUOUS
10
37.2
20
-63.2
11
40.4
21
-63.2
0
LINE
8
BLACK
6
CONTINUOUS
10
37.2
20
-64.8
11
37.2
21
-63.2
0
LINE
8
BLACK
6
CONTINUOUS
10
40.4
20
-64.8
11
37.2
21
-64.8
0
LINE
8
BLACK
6
CONTINUOUS
10
40.4
20
-63.2
11
40.4
21
-64.8
0
LINE
8
BLACK
6
CONTINUOUS
10
26.4
20
-73.5
11
29.6
21
-73.5
0
LINE
8
BLACK
6
CONTINUOUS
10
26.4
20
-67.5
11
26.4
21
-73.5
0
LINE
8
BLACK
6
CONTINUOUS
10
28.8
20
-67.5
11
26.4
21
-67.5
0
LINE
8
BLACK
6
CONTINUOUS
10
29.6
20
-68.3
11
28.8
21
-67.5
0
LINE
8
BLACK
6
CONTINUOUS
10
29.6
20
-73.5
11
29.6
21
-68.3
0
LINE
8
BLACK
6
CONTINUOUS
10
13.2
20
-67.4
11
10
21
-67.4
0
LINE
8
BLACK
6
CONTINUOUS
10
13.2
20
-73.4
11
13.2
21
-67.4
0
LINE
8
BLACK
6
CONTINUOUS
10
10.8
20
-73.4
11
13.2
21
-73.4
0
LINE
8
BLACK
6
CONTINUOUS
10
10
20
-72.6
11
10.8
21
-73.4
0
LINE
8
BLACK
6
CONTINUOUS
10
10
20
-67.4
11
10
21
-72.6
0
LINE
8
BLACK
6
CONTINUOUS
10
88.975
20
-54.8
11
85.775
21
-54.8
0
LINE
8
BLACK
6
CONTINUOUS
10
88.975
20
-53.2
11
88.975
21
-54.8
0
LINE
8
BLACK
6
CONTINUOUS
10
85.775
20
-53.2
11
88.975
21
-53.2
0
LINE
8
BLACK
6
CONTINUOUS
10
85.775
20
-54.8
11
85.775
21
-53.2
0
LINE
8
BLACK
6
CONTINUOUS
10
64.275
20
-2.95
11
59.975
21
-2.95
0
LINE
8
BLACK
6
CONTINUOUS
10
64.275
20
-10.25
11
64.275
21
-2.95
0
LINE
8
BLACK
6
CONTINUOUS
10
60.975
20
-10.25
11
64.275
21
-10.25
0
LINE
8
BLACK
6
CONTINUOUS
10
59.975
20
-9.25
11
60.975
21
-10.25
0
LINE
8
BLACK
6
CONTINUOUS
10
59.975
20
-2.95
11
59.975
21
-9.25
0
LINE
8
BLACK
6
CONTINUOUS
10
30.65
20
-37.95
11
30.65
21
-42.25
0
LINE
8
BLACK
6
CONTINUOUS
10
37.95
20
-37.95
11
30.65
21
-37.95
0
LINE
8
BLACK
6
CONTINUOUS
10
37.95
20
-41.25
11
37.95
21
-37.95
0
LINE
8
BLACK
6
CONTINUOUS
10
36.95
20
-42.25
11
37.95
21
-41.25
0
LINE
8
BLACK
6
CONTINUOUS
10
30.65
20
-42.25
11
36.95
21
-42.25
0
LINE
8
BLACK
6
CONTINUOUS
10
67.85
20
-47.55
11
64.65
21
-47.55
0
LINE
8
BLACK
6
CONTINUOUS
10
67.85
20
-45.95
11
67.85
21
-47.55
0
LINE
8
BLACK
6
CONTINUOUS
10
64.65
20
-45.95
11
67.85
21
-45.95
0
LINE
8
BLACK
6
CONTINUOUS
10
64.65
20
-47.55
11
64.65
21
-45.95
0
LINE
8
BLACK
6
CONTINUOUS
10
51.775
20
-2.95
11
47.475
21
-2.95
0
LINE
8
BLACK
6
CONTINUOUS
10
51.775
20
-10.25
11
51.775
21
-2.95
0
LINE
8
BLACK
6
CONTINUOUS
10
48.475
20
-10.25
11
51.775
21
-10.25
0
LINE
8
BLACK
6
CONTINUOUS
10
47.475
20
-9.25
11
48.475
21
-10.25
0
LINE
8
BLACK
6
CONTINUOUS
10
47.475
20
-2.95
11
47.475
21
-9.25
0
LINE
8
BLACK
6
CONTINUOUS
10
41.9
20
-72.95
11
45.1
21
-72.95
0
LINE
8
BLACK
6
CONTINUOUS
10
41.9
20
-74.55
11
41.9
21
-72.95
0
LINE
8
BLACK
6
CONTINUOUS
10
45.1
20
-74.55
11
41.9
21
-74.55
0
LINE
8
BLACK
6
CONTINUOUS
10
45.1
20
-72.95
11
45.1
21
-74.55
0
LINE
8
BLACK
6
CONTINUOUS
10
14.2
20
-73.5
11
17.4
21
-73.5
0
LINE
8
BLACK
6
CONTINUOUS
10
14.2
20
-67.5
11
14.2
21
-73.5
0
LINE
8
BLACK
6
CONTINUOUS
10
16.6
20
-67.5
11
14.2
21
-67.5
0
LINE
8
BLACK
6
CONTINUOUS
10
17.4
20
-68.3
11
16.6
21
-67.5
0
LINE
8
BLACK
6
CONTINUOUS
10
17.4
20
-73.5
11
17.4
21
-68.3
0
LINE
8
BLACK
6
CONTINUOUS
10
0.8
20
-67.1
11
-2.4
21
-67.1
0
LINE
8
BLACK
6
CONTINUOUS
10
0.8
20
-73.1
11
0.8
21
-67.1
0
LINE
8
BLACK
6
CONTINUOUS
10
-1.6
20
-73.1
11
0.8
21
-73.1
0
LINE
8
BLACK
6
CONTINUOUS
10
-2.4
20
-72.3
11
-1.6
21
-73.1
0
LINE
8
BLACK
6
CONTINUOUS
10
-2.4
20
-67.1
11
-2.4
21
-72.3
0
LINE
8
BLACK
6
CONTINUOUS
10
44
20
-29.4
11
40.8
21
-29.4
0
LINE
8
BLACK
6
CONTINUOUS
10
44
20
-27.8
11
44
21
-29.4
0
LINE
8
BLACK
6
CONTINUOUS
10
40.8
20
-27.8
11
44
21
-27.8
0
LINE
8
BLACK
6
CONTINUOUS
10
40.8
20
-29.4
11
40.8
21
-27.8
0
LINE
8
BLACK
6
CONTINUOUS
10
65.475
20
-68.425
11
62.275
21
-68.425
0
LINE
8
BLACK
6
CONTINUOUS
10
65.475
20
-66.825
11
65.475
21
-68.425
0
LINE
8
BLACK
6
CONTINUOUS
10
62.275
20
-66.825
11
65.475
21
-66.825
0
LINE
8
BLACK
6
CONTINUOUS
10
62.275
20
-68.425
11
62.275
21
-66.825
0
LINE
8
BLACK
6
CONTINUOUS
10
22.4
20
-52.05
11
22.4
21
-46.35
0
LINE
8
BLACK
6
CONTINUOUS
10
27.4
20
-52.05
11
22.4
21
-52.05
0
LINE
8
BLACK
6
CONTINUOUS
10
27.4
20
-46.35
11
27.4
21
-52.05
0
LINE
8
BLACK
6
CONTINUOUS
10
22.4
20
-46.35
11
27.4
21
-46.35
0
LINE
8
BLACK
6
CONTINUOUS
10
12
20
-46.35
11
12
21
-52.05
0
LINE
8
BLACK
6
CONTINUOUS
10
7
20
-46.35
11
12
21
-46.35
0
LINE
8
BLACK
6
CONTINUOUS
10
7
20
-52.05
11
7
21
-46.35
0
LINE
8
BLACK
6
CONTINUOUS
10
12
20
-52.05
11
7
21
-52.05
0
LINE
8
BLACK
6
CONTINUOUS
10
13.2
20
-52.2
11
16.4
21
-52.2
0
LINE
8
BLACK
6
CONTINUOUS
10
13.2
20
-46.2
11
13.2
21
-52.2
0
LINE
8
BLACK
6
CONTINUOUS
10
15.6
20
-46.2
11
13.2
21
-46.2
0
LINE
8
BLACK
6
CONTINUOUS
10
16.4
20
-47
11
15.6
21
-46.2
0
LINE
8
BLACK
6
CONTINUOUS
10
16.4
20
-52.2
11
16.4
21
-47
0
LINE
8
BLACK
6
CONTINUOUS
10
0.7
20
-45.7
11
-2.5
21
-45.7
0
LINE
8
BLACK
6
CONTINUOUS
10
0.7
20
-51.7
11
0.7
21
-45.7
0
LINE
8
BLACK
6
CONTINUOUS
10
-1.7
20
-51.7
11
0.7
21
-51.7
0
LINE
8
BLACK
6
CONTINUOUS
10
-2.5
20
-50.9
11
-1.7
21
-51.7
0
LINE
8
BLACK
6
CONTINUOUS
10
-2.5
20
-45.7
11
-2.5
21
-50.9
0
LINE
8
BLACK
6
CONTINUOUS
10
67.4
20
-11.2
11
70.6
21
-11.2
0
LINE
8
BLACK
6
CONTINUOUS
10
67.4
20
-12.8
11
67.4
21
-11.2
0
LINE
8
BLACK
6
CONTINUOUS
10
70.6
20
-12.8
11
67.4
21
-12.8
0
LINE
8
BLACK
6
CONTINUOUS
10
70.6
20
-11.2
11
70.6
21
-12.8
0
LINE
8
BLACK
6
CONTINUOUS
10
60.7
20
-20.2
11
63.9
21
-20.2
0
LINE
8
BLACK
6
CONTINUOUS
10
60.7
20
-21.8
11
60.7
21
-20.2
0
LINE
8
BLACK
6
CONTINUOUS
10
63.9
20
-21.8
11
60.7
21
-21.8
0
LINE
8
BLACK
6
CONTINUOUS
10
63.9
20
-20.2
11
63.9
21
-21.8
0
LINE
8
BLACK
6
CONTINUOUS
10
81.775
20
-32.05
11
78.575
21
-32.05
0
LINE
8
BLACK
6
CONTINUOUS
10
81.775
20
-30.45
11
81.775
21
-32.05
0
LINE
8
BLACK
6
CONTINUOUS
10
78.575
20
-30.45
11
81.775
21
-30.45
0
LINE
8
BLACK
6
CONTINUOUS
10
78.575
20
-32.05
11
78.575
21
-30.45
0
LINE
8
BLACK
6
CONTINUOUS
10
60.7
20
-26.075
11
63.9
21
-26.075
0
LINE
8
BLACK
6
CONTINUOUS
10
60.7
20
-27.675
11
60.7
21
-26.075
0
LINE
8
BLACK
6
CONTINUOUS
10
63.9
20
-27.675
11
60.7
21
-27.675
0
LINE
8
BLACK
6
CONTINUOUS
10
63.9
20
-26.075
11
63.9
21
-27.675
0
LINE
8
BLACK
6
CONTINUOUS
10
83.6
20
-12.8
11
80.4
21
-12.8
0
LINE
8
BLACK
6
CONTINUOUS
10
83.6
20
-11.2
11
83.6
21
-12.8
0
LINE
8
BLACK
6
CONTINUOUS
10
80.4
20
-11.2
11
83.6
21
-11.2
0
LINE
8
BLACK
6
CONTINUOUS
10
80.4
20
-12.8
11
80.4
21
-11.2
0
LINE
8
BLACK
6
CONTINUOUS
10
34.55
20
-17.05
11
30.25
21
-17.05
0
LINE
8
BLACK
6
CONTINUOUS
10
34.55
20
-24.35
11
34.55
21
-17.05
0
LINE
8
BLACK
6
CONTINUOUS
10
31.25
20
-24.35
11
34.55
21
-24.35
0
LINE
8
BLACK
6
CONTINUOUS
10
30.25
20
-23.35
11
31.25
21
-24.35
0
LINE
8
BLACK
6
CONTINUOUS
10
30.25
20
-17.05
11
30.25
21
-23.35
0
LINE
8
BLACK
6
CONTINUOUS
10
14.25
20
-42.25
11
18.55
21
-42.25
0
LINE
8
BLACK
6
CONTINUOUS
10
14.25
20
-34.95
11
14.25
21
-42.25
0
LINE
8
BLACK
6
CONTINUOUS
10
17.55
20
-34.95
11
14.25
21
-34.95
0
LINE
8
BLACK
6
CONTINUOUS
10
18.55
20
-35.95
11
17.55
21
-34.95
0
LINE
8
BLACK
6
CONTINUOUS
10
18.55
20
-42.25
11
18.55
21
-35.95
0
LINE
8
BLACK
6
CONTINUOUS
10
11.65
20
-34.95
11
7.35
21
-34.95
0
LINE
8
BLACK
6
CONTINUOUS
10
11.65
20
-42.25
11
11.65
21
-34.95
0
LINE
8
BLACK
6
CONTINUOUS
10
8.35
20
-42.25
11
11.65
21
-42.25
0
LINE
8
BLACK
6
CONTINUOUS
10
7.35
20
-41.25
11
8.35
21
-42.25
0
LINE
8
BLACK
6
CONTINUOUS
10
7.35
20
-34.95
11
7.35
21
-41.25
0
LINE
8
BLACK
6
CONTINUOUS
10
60.7
20
-23.675
11
63.9
21
-23.675
0
LINE
8
BLACK
6
CONTINUOUS
10
60.7
20
-25.275
11
60.7
21
-23.675
0
LINE
8
BLACK
6
CONTINUOUS
10
63.9
20
-25.275
11
60.7
21
-25.275
0
LINE
8
BLACK
6
CONTINUOUS
10
63.9
20
-23.675
11
63.9
21
-25.275
0
LINE
8
BLACK
6
CONTINUOUS
10
80.4
20
11
11
77.2
21
11
0
LINE
8
BLACK
6
CONTINUOUS
10
80.4
20
12.6
11
80.4
21
11
0
LINE
8
BLACK
6
CONTINUOUS
10
77.2
20
12.6
11
80.4
21
12.6
0
LINE
8
BLACK
6
CONTINUOUS
10
77.2
20
11
11
77.2
21
12.6
0
LINE
8
BLACK
6
CONTINUOUS
10
72.85
20
-32.1
11
69.65
21
-32.1
0
LINE
8
BLACK
6
CONTINUOUS
10
72.85
20
-30.5
11
72.85
21
-32.1
0
LINE
8
BLACK
6
CONTINUOUS
10
69.65
20
-30.5
11
72.85
21
-30.5
0
LINE
8
BLACK
6
CONTINUOUS
10
69.65
20
-32.1
11
69.65
21
-30.5
0
LINE
8
BLACK
6
CONTINUOUS
10
28.3
20
-63
11
28.3
21
-59.8
0
LINE
8
BLACK
6
CONTINUOUS
10
29.9
20
-63
11
28.3
21
-63
0
LINE
8
BLACK
6
CONTINUOUS
10
29.9
20
-59.8
11
29.9
21
-63
0
LINE
8
BLACK
6
CONTINUOUS
10
28.3
20
-59.8
11
29.9
21
-59.8
0
LINE
8
BLACK
6
CONTINUOUS
10
81.6
20
4.075
11
81.6
21
7.275
0
LINE
8
BLACK
6
CONTINUOUS
10
83.2
20
4.075
11
81.6
21
4.075
0
LINE
8
BLACK
6
CONTINUOUS
10
83.2
20
7.275
11
83.2
21
4.075
0
LINE
8
BLACK
6
CONTINUOUS
10
81.6
20
7.275
11
83.2
21
7.275
0
LINE
8
BLACK
6
CONTINUOUS
10
51.975
20
-15.3
11
51.975
21
-17.3
0
LINE
8
BLACK
6
CONTINUOUS
10
50.725
20
-15.3
11
51.975
21
-15.3
0
LINE
8
BLACK
6
CONTINUOUS
10
50.725
20
-17.3
11
50.725
21
-15.3
0
LINE
8
BLACK
6
CONTINUOUS
10
51.975
20
-17.3
11
50.725
21
-17.3
0
LINE
8
BLACK
6
CONTINUOUS
10
61.525
20
-16.125
11
61.525
21
-14.125
0
LINE
8
BLACK
6
CONTINUOUS
10
62.775
20
-16.125
11
61.525
21
-16.125
0
LINE
8
BLACK
6
CONTINUOUS
10
62.775
20
-14.125
11
62.775
21
-16.125
0
LINE
8
BLACK
6
CONTINUOUS
10
61.525
20
-14.125
11
62.775
21
-14.125
0
LINE
8
BLACK
6
CONTINUOUS
10
35.6
20
1.625
11
37.6
21
1.625
0
LINE
8
BLACK
6
CONTINUOUS
10
35.6
20
0.375
11
35.6
21
1.625
0
LINE
8
BLACK
6
CONTINUOUS
10
37.6
20
0.375
11
35.6
21
0.375
0
LINE
8
BLACK
6
CONTINUOUS
10
37.6
20
1.625
11
37.6
21
0.375
0
LINE
8
BLACK
6
CONTINUOUS
10
17.65
20
-17.95
11
17.65
21
-13.65
0
LINE
8
BLACK
6
CONTINUOUS
10
10.35
20
-17.95
11
17.65
21
-17.95
0
LINE
8
BLACK
6
CONTINUOUS
10
10.35
20
-14.65
11
10.35
21
-17.95
0
LINE
8
BLACK
6
CONTINUOUS
10
11.35
20
-13.65
11
10.35
21
-14.65
0
LINE
8
BLACK
6
CONTINUOUS
10
17.65
20
-13.65
11
11.35
21
-13.65
0
LINE
8
BLACK
6
CONTINUOUS
10
32.375
20
-2.5
11
32.375
21
-0.5
0
LINE
8
BLACK
6
CONTINUOUS
10
33.625
20
-2.5
11
32.375
21
-2.5
0
LINE
8
BLACK
6
CONTINUOUS
10
33.625
20
-0.5
11
33.625
21
-2.5
0
LINE
8
BLACK
6
CONTINUOUS
10
32.375
20
-0.5
11
33.625
21
-0.5
0
LINE
8
BLACK
6
CONTINUOUS
10
19.85
20
2.35
11
19.85
21
6.65
0
LINE
8
BLACK
6
CONTINUOUS
10
12.55
20
2.35
11
19.85
21
2.35
0
LINE
8
BLACK
6
CONTINUOUS
10
12.55
20
5.65
11
12.55
21
2.35
0
LINE
8
BLACK
6
CONTINUOUS
10
13.55
20
6.65
11
12.55
21
5.65
0
LINE
8
BLACK
6
CONTINUOUS
10
19.85
20
6.65
11
13.55
21
6.65
0
LINE
8
BLACK
6
CONTINUOUS
10
25.6
20
-63
11
25.6
21
-59.8
0
LINE
8
BLACK
6
CONTINUOUS
10
27.2
20
-63
11
25.6
21
-63
0
LINE
8
BLACK
6
CONTINUOUS
10
27.2
20
-59.8
11
27.2
21
-63
0
LINE
8
BLACK
6
CONTINUOUS
10
25.6
20
-59.8
11
27.2
21
-59.8
0
LINE
8
BLACK
6
CONTINUOUS
10
70.4
20
-72.675
11
70.4
21
-75.875
0
LINE
8
BLACK
6
CONTINUOUS
10
68.8
20
-72.675
11
70.4
21
-72.675
0
LINE
8
BLACK
6
CONTINUOUS
10
68.8
20
-75.875
11
68.8
21
-72.675
0
LINE
8
BLACK
6
CONTINUOUS
10
70.4
20
-75.875
11
68.8
21
-75.875
  0
TEXT
  7
KICADB
  8
BLACK
  10
53.475
  11
53.475
  20
-45.95
  21
-45.95
  40
1
  41
1
  50
0
  51
0
  71
0
  72
1
  73
2
  1
DA4
  0
TEXT
  7
KICADB
  8
BLACK
  10
47.5
  11
47.5
  20
-36.5
  21
-36.5
  40
0.8
  41
1
  50
90
  51
0
  71
0
  72
1
  73
2
  1
R25
  0
TEXT
  7
KICADB
  8
BLACK
  10
48.75
  11
48.75
  20
-57.5
  21
-57.5
  40
0.8
  41
1
  50
0
  51
0
  71
0
  72
1
  73
2
  1
R15
  0
TEXT
  7
KICADB
  8
BLACK
  10
49.125
  11
49.125
  20
-54
  21
-54
  40
0.8
  41
1
  50
0
  51
0
  71
0
  72
1
  73
2
  1
C32
  0
TEXT
  7
KICADB
  8
BLACK
  10
54.2
  11
54.2
  20
-35.25
  21
-35.25
  40
0.8
  41
1
  50
0
  51
0
  71
0
  72
1
  73
2
  1
R47
  0
TEXT
  7
KICADB
  8
BLACK
  10
54.2
  11
54.2
  20
-37.875
  21
-37.875
  40
0.8
  41
1
  50
0
  51
0
  71
0
  72
1
  73
2
  1
C45
  0
TEXT
  7
KICADB
  8
BLACK
  10
92.125
  11
92.125
  20
-73
  21
-73
  40
0.8
  41
1
  50
90
  51
0
  71
0
  72
1
  73
2
  1
C38
  0
TEXT
  7
KICADB
  8
BLACK
  10
67.375
  11
67.375
  20
-32.875
  21
-32.875
  40
0.8
  41
1
  50
90
  51
0
  71
0
  72
1
  73
2
  1
C50
  0
TEXT
  7
KICADB
  8
BLACK
  10
74.4
  11
74.4
  20
-7
  21
-7
  40
0.8
  41
1
  50
0
  51
0
  71
0
  72
1
  73
2
  1
R7
  0
TEXT
  7
KICADB
  8
BLACK
  10
75.8
  11
75.8
  20
-9.6
  21
-9.6
  40
0.8
  41
1
  50
0
  51
0
  71
0
  72
1
  73
2
  1
R6
  0
TEXT
  7
KICADB
  8
BLACK
  10
73.8
  11
73.8
  20
11.8
  21
11.8
  40
0.8
  41
1
  50
0
  51
0
  71
0
  72
1
  73
2
  1
R12
  0
TEXT
  7
KICADB
  8
BLACK
  10
56.75
  11
56.75
  20
-15.8
  21
-15.8
  40
1
  41
1
  50
0
  51
0
  71
0
  72
1
  73
2
  1
ZQ1
  0
TEXT
  7
KICADB
  8
BLACK
  10
75.28
  11
75.28
  20
-2.73
  21
-2.73
  40
1
  41
1
  50
0
  51
0
  71
0
  72
1
  73
2
  1
XP2
  0
TEXT
  7
KICADB
  8
BLACK
  10
81.455
  11
81.455
  20
-45.855
  21
-45.855
  40
1
  41
1
  50
0
  51
0
  71
0
  72
1
  73
2
  1
XP1
  0
TEXT
  7
KICADB
  8
BLACK
  10
19.3
  11
19.3
  20
-49.9
  21
-49.9
  40
1
  41
1
  50
0
  51
0
  71
0
  72
1
  73
2
  1
VT2
  0
TEXT
  7
KICADB
  8
BLACK
  10
3.6
  11
3.6
  20
-49.6
  21
-49.6
  40
1
  41
1
  50
0
  51
0
  71
0
  72
1
  73
2
  1
VT1
  0
TEXT
  7
KICADB
  8
BLACK
  10
68.75
  11
68.75
  20
-39.125
  21
-39.125
  40
0.5
  41
1
  50
90
  51
0
  71
0
  72
1
  73
2
  1
VD6
  0
TEXT
  7
KICADB
  8
BLACK
  10
64.25
  11
64.25
  20
-37.1
  21
-37.1
  40
0.5
  41
1
  50
0
  51
0
  71
0
  72
1
  73
2
  1
VD5
  0
TEXT
  7
KICADB
  8
BLACK
  10
15.2
  11
15.2
  20
-61.2
  21
-61.2
  40
0.8
  41
1
  50
0
  51
0
  71
0
  72
1
  73
2
  1
VD4
  0
TEXT
  7
KICADB
  8
BLACK
  10
71.125
  11
71.125
  20
-62
  21
-62
  40
0.5
  41
1
  50
90
  51
0
  71
0
  72
1
  73
2
  1
VD3
  0
TEXT
  7
KICADB
  8
BLACK
  10
73.125
  11
73.125
  20
-39
  21
-39
  40
0.5
  41
1
  50
0
  51
0
  71
0
  72
1
  73
2
  1
VD2
  0
TEXT
  7
KICADB
  8
BLACK
  10
54.375
  11
54.375
  20
-56.125
  21
-56.125
  40
0.5
  41
1
  50
0
  51
0
  71
0
  72
1
  73
2
  1
VD1
  0
TEXT
  7
KICADB
  8
BLACK
  10
62.25
  11
62.25
  20
-31.625
  21
-31.625
  40
0.8
  41
1
  50
0
  51
0
  71
0
  72
1
  73
2
  1
R55
  0
TEXT
  7
KICADB
  8
BLACK
  10
23.8
  11
23.8
  20
-61.4
  21
-61.4
  40
0.8
  41
1
  50
90
  51
0
  71
0
  72
1
  73
2
  1
R54
  0
TEXT
  7
KICADB
  8
BLACK
  10
62.25
  11
62.25
  20
-34
  21
-34
  40
0.8
  41
1
  50
0
  51
0
  71
0
  72
1
  73
2
  1
R53
  0
TEXT
  7
KICADB
  8
BLACK
  10
73.875
  11
73.875
  20
-53.25
  21
-53.25
  40
0.8
  41
1
  50
90
  51
0
  71
0
  72
1
  73
2
  1
R52
  0
TEXT
  7
KICADB
  8
BLACK
  10
21.3
  11
21.3
  20
-56.6
  21
-56.6
  40
0.8
  41
1
  50
90
  51
0
  71
0
  72
1
  73
2
  1
R51
  0
TEXT
  7
KICADB
  8
BLACK
  10
23.8
  11
23.8
  20
-56.6
  21
-56.6
  40
0.8
  41
1
  50
90
  51
0
  71
0
  72
1
  73
2
  1
R49
  0
TEXT
  7
KICADB
  8
BLACK
  10
16.375
  11
16.375
  20
-56.875
  21
-56.875
  40
0.8
  41
1
  50
0
  51
0
  71
0
  72
1
  73
2
  1
R48
  0
TEXT
  7
KICADB
  8
BLACK
  10
72
  11
72
  20
-74.275
  21
-74.275
  40
0.8
  41
1
  50
90
  51
0
  71
0
  72
1
  73
2
  1
R46
  0
TEXT
  7
KICADB
  8
BLACK
  10
59.875
  11
59.875
  20
-37.625
  21
-37.625
  40
0.8
  41
1
  50
0
  51
0
  71
0
  72
1
  73
2
  1
R44
  0
TEXT
  7
KICADB
  8
BLACK
  10
66.25
  11
66.25
  20
-43.5
  21
-43.5
  40
0.8
  41
1
  50
0
  51
0
  71
0
  72
1
  73
2
  1
R43
  0
TEXT
  7
KICADB
  8
BLACK
  10
55.625
  11
55.625
  20
-73.75
  21
-73.75
  40
0.8
  41
1
  50
0
  51
0
  71
0
  72
1
  73
2
  1
R42
  0
TEXT
  7
KICADB
  8
BLACK
  10
78.925
  11
78.925
  20
-52.825
  21
-52.825
  40
0.8
  41
1
  50
90
  51
0
  71
0
  72
1
  73
2
  1
R41
  0
TEXT
  7
KICADB
  8
BLACK
  10
81.325
  11
81.325
  20
-52.825
  21
-52.825
  40
0.8
  41
1
  50
90
  51
0
  71
0
  72
1
  73
2
  1
R40
  0
TEXT
  7
KICADB
  8
BLACK
  10
83.725
  11
83.725
  20
-52.825
  21
-52.825
  40
0.8
  41
1
  50
90
  51
0
  71
0
  72
1
  73
2
  1
R39
  0
TEXT
  7
KICADB
  8
BLACK
  10
65.375
  11
65.375
  20
-62.25
  21
-62.25
  40
0.8
  41
1
  50
90
  51
0
  71
0
  72
1
  73
2
  1
R38
  0
TEXT
  7
KICADB
  8
BLACK
  10
59
  11
59
  20
-55.125
  21
-55.125
  40
0.8
  41
1
  50
0
  51
0
  71
0
  72
1
  73
2
  1
R37
  0
TEXT
  7
KICADB
  8
BLACK
  10
59
  11
59
  20
-57.5
  21
-57.5
  40
0.8
  41
1
  50
0
  51
0
  71
0
  72
1
  73
2
  1
R36
  0
TEXT
  7
KICADB
  8
BLACK
  10
75.925
  11
75.925
  20
-65.925
  21
-65.925
  40
0.8
  41
1
  50
90
  51
0
  71
0
  72
1
  73
2
  1
R35
  0
TEXT
  7
KICADB
  8
BLACK
  10
66.25
  11
66.25
  20
-49.25
  21
-49.25
  40
0.8
  41
1
  50
0
  51
0
  71
0
  72
1
  73
2
  1
R34
  0
TEXT
  7
KICADB
  8
BLACK
  10
71.7
  11
71.7
  20
-56.975
  21
-56.975
  40
1
  41
1
  50
90
  51
0
  71
0
  72
1
  73
2
  1
R33
  0
TEXT
  7
KICADB
  8
BLACK
  10
62.75
  11
62.75
  20
-62.25
  21
-62.25
  40
0.8
  41
1
  50
90
  51
0
  71
0
  72
1
  73
2
  1
R32
  0
TEXT
  7
KICADB
  8
BLACK
  10
74.875
  11
74.875
  20
-80
  21
-80
  40
0.8
  41
1
  50
0
  51
0
  71
0
  72
1
  73
2
  1
R31
  0
TEXT
  7
KICADB
  8
BLACK
  10
43.375
  11
43.375
  20
-55.125
  21
-55.125
  40
0.8
  41
1
  50
0
  51
0
  71
0
  72
1
  73
2
  1
R30
  0
TEXT
  7
KICADB
  8
BLACK
  10
74.875
  11
74.875
  20
-82.625
  21
-82.625
  40
0.8
  41
1
  50
0
  51
0
  71
0
  72
1
  73
2
  1
R29
  0
TEXT
  7
KICADB
  8
BLACK
  10
76
  11
76
  20
-71.2125
  21
-71.2125
  40
0.8
  41
1
  50
90
  51
0
  71
0
  72
1
  73
2
  1
R28
  0
TEXT
  7
KICADB
  8
BLACK
  10
63.875
  11
63.875
  20
-70.125
  21
-70.125
  40
0.8
  41
1
  50
0
  51
0
  71
0
  72
1
  73
2
  1
R27
  0
TEXT
  7
KICADB
  8
BLACK
  10
33.6
  11
33.6
  20
-28.9
  21
-28.9
  40
1
  41
1
  50
0
  51
0
  71
0
  72
1
  73
2
  1
R26
  0
TEXT
  7
KICADB
  8
BLACK
  10
50.8
  11
50.8
  20
-73.75
  21
-73.75
  40
0.8
  41
1
  50
0
  51
0
  71
0
  72
1
  73
2
  1
R24
  0
TEXT
  7
KICADB
  8
BLACK
  10
49.875
  11
49.875
  20
-36.5
  21
-36.5
  40
0.8
  41
1
  50
90
  51
0
  71
0
  72
1
  73
2
  1
R23
  0
TEXT
  7
KICADB
  8
BLACK
  10
43.375
  11
43.375
  20
-57.5
  21
-57.5
  40
0.8
  41
1
  50
0
  51
0
  71
0
  72
1
  73
2
  1
R22
  0
TEXT
  7
KICADB
  8
BLACK
  10
37.15
  11
37.15
  20
-71.75
  21
-71.75
  40
0.8
  41
1
  50
90
  51
0
  71
0
  72
1
  73
2
  1
R21
  0
TEXT
  7
KICADB
  8
BLACK
  10
39.65
  11
39.65
  20
-71.75
  21
-71.75
  40
0.8
  41
1
  50
90
  51
0
  71
0
  72
1
  73
2
  1
R20
  0
TEXT
  7
KICADB
  8
BLACK
  10
34.75
  11
34.75
  20
-71.75
  21
-71.75
  40
0.8
  41
1
  50
90
  51
0
  71
0
  72
1
  73
2
  1
R19
  0
TEXT
  7
KICADB
  8
BLACK
  10
49.875
  11
49.875
  20
-22.25
  21
-22.25
  40
0.8
  41
1
  50
90
  51
0
  71
0
  72
1
  73
2
  1
R18
  0
TEXT
  7
KICADB
  8
BLACK
  10
51.65
  11
51.65
  20
-33.2
  21
-33.2
  40
1
  41
1
  50
0
  51
0
  71
0
  72
1
  73
2
  1
R17
  0
TEXT
  7
KICADB
  8
BLACK
  10
72.375
  11
72.375
  20
-43.375
  21
-43.375
  40
0.8
  41
1
  50
90
  51
0
  71
0
  72
1
  73
2
  1
R16
  0
TEXT
  7
KICADB
  8
BLACK
  10
16.4
  11
16.4
  20
-54.3
  21
-54.3
  40
0.8
  41
1
  50
0
  51
0
  71
0
  72
1
  73
2
  1
R14
  0
TEXT
  7
KICADB
  8
BLACK
  10
2
  11
2
  20
-54
  21
-54
  40
0.8
  41
1
  50
0
  51
0
  71
0
  72
1
  73
2
  1
R13
  0
TEXT
  7
KICADB
  8
BLACK
  10
68.8
  11
68.8
  20
11.8
  21
11.8
  40
0.8
  41
1
  50
0
  51
0
  71
0
  72
1
  73
2
  1
R11
  0
TEXT
  7
KICADB
  8
BLACK
  10
66
  11
66
  20
2.6
  21
2.6
  40
0.8
  41
1
  50
90
  51
0
  71
0
  72
1
  73
2
  1
R9
  0
TEXT
  7
KICADB
  8
BLACK
  10
68.8
  11
68.8
  20
-7
  21
-7
  40
0.8
  41
1
  50
0
  51
0
  71
0
  72
1
  73
2
  1
R8
  0
TEXT
  7
KICADB
  8
BLACK
  10
72.625
  11
72.625
  20
-33.625
  21
-33.625
  40
0.8
  41
1
  50
0
  51
0
  71
0
  72
1
  73
2
  1
R5
  0
TEXT
  7
KICADB
  8
BLACK
  10
80.175
  11
80.175
  20
-36.25
  21
-36.25
  40
0.8
  41
1
  50
0
  51
0
  71
0
  72
1
  73
2
  1
R4
  0
TEXT
  7
KICADB
  8
BLACK
  10
72.625
  11
72.625
  20
-36
  21
-36
  40
0.8
  41
1
  50
0
  51
0
  71
0
  72
1
  73
2
  1
R3
  0
TEXT
  7
KICADB
  8
BLACK
  10
80.125
  11
80.125
  20
-38.75
  21
-38.75
  40
0.8
  41
1
  50
0
  51
0
  71
0
  72
1
  73
2
  1
R2
  0
TEXT
  7
KICADB
  8
BLACK
  10
80.175
  11
80.175
  20
-33.75
  21
-33.75
  40
0.8
  41
1
  50
0
  51
0
  71
0
  72
1
  73
2
  1
R1
  0
TEXT
  7
KICADB
  8
BLACK
  10
73.04
  11
73.04
  20
-21.61
  21
-21.61
  40
1
  41
1
  50
90
  51
0
  71
0
  72
1
  73
2
  1
DD2
  0
TEXT
  7
KICADB
  8
BLACK
  10
74
  11
74
  20
6.2
  21
6.2
  40
1
  41
1
  50
0
  51
0
  71
0
  72
1
  73
2
  1
DD1
  0
TEXT
  7
KICADB
  8
BLACK
  10
84.025
  11
84.025
  20
-65.425
  21
-65.425
  40
1
  41
1
  50
90
  51
0
  71
0
  72
1
  73
2
  1
DA9
  0
TEXT
  7
KICADB
  8
BLACK
  10
22.154
  11
22.154
  20
-68.8065
  21
-68.8065
  40
1
  41
1
  50
0
  51
0
  71
0
  72
1
  73
2
  1
DA8
  0
TEXT
  7
KICADB
  8
BLACK
  10
5.654
  11
5.654
  20
-68.8045
  21
-68.8045
  40
1
  41
1
  50
0
  51
0
  71
0
  72
1
  73
2
  1
DA7
  0
TEXT
  7
KICADB
  8
BLACK
  10
55.925
  11
55.925
  20
-5.5
  21
-5.5
  40
1
  41
1
  50
90
  51
0
  71
0
  72
1
  73
2
  1
DA6
  0
TEXT
  7
KICADB
  8
BLACK
  10
51.3
  11
51.3
  20
-65.625
  21
-65.625
  40
1
  41
1
  50
0
  51
0
  71
0
  72
1
  73
2
  1
DA3
  0
TEXT
  7
KICADB
  8
BLACK
  10
62.25
  11
62.25
  20
-29.25
  21
-29.25
  40
0.8
  41
1
  50
0
  51
0
  71
0
  72
1
  73
2
  1
C49
  0
TEXT
  7
KICADB
  8
BLACK
  10
26.4
  11
26.4
  20
-56.6
  21
-56.6
  40
0.8
  41
1
  50
90
  51
0
  71
0
  72
1
  73
2
  1
C48
  0
TEXT
  7
KICADB
  8
BLACK
  10
42
  11
42
  20
-39.625
  21
-39.625
  40
0.8
  41
1
  50
90
  51
0
  71
0
  72
1
  73
2
  1
C47
  0
TEXT
  7
KICADB
  8
BLACK
  10
42
  11
42
  20
-45.75
  21
-45.75
  40
0.8
  41
1
  50
90
  51
0
  71
0
  72
1
  73
2
  1
C46
  0
TEXT
  7
KICADB
  8
BLACK
  10
79.625
  11
79.625
  20
-78.025
  21
-78.025
  40
0.8
  41
1
  50
90
  51
0
  71
0
  72
1
  73
2
  1
C44
  0
TEXT
  7
KICADB
  8
BLACK
  10
82.325
  11
82.325
  20
-78.025
  21
-78.025
  40
0.8
  41
1
  50
90
  51
0
  71
0
  72
1
  73
2
  1
C43
  0
TEXT
  7
KICADB
  8
BLACK
  10
71
  11
71
  20
-67.875
  21
-67.875
  40
1
  41
1
  50
90
  51
0
  71
0
  72
1
  73
2
  1
C42
  0
TEXT
  7
KICADB
  8
BLACK
  10
76
  11
76
  20
-61.125
  21
-61.125
  40
0.8
  41
1
  50
90
  51
0
  71
0
  72
1
  73
2
  1
C41
  0
TEXT
  7
KICADB
  8
BLACK
  10
38.7
  11
38.7
  20
-60.8
  21
-60.8
  40
0.8
  41
1
  50
0
  51
0
  71
0
  72
1
  73
2
  1
C40
  0
TEXT
  7
KICADB
  8
BLACK
  10
38.8
  11
38.8
  20
-64
  21
-64
  40
0.8
  41
1
  50
0
  51
0
  71
0
  72
1
  73
2
  1
C39
  0
TEXT
  7
KICADB
  8
BLACK
  10
28
  11
28
  20
-70.5
  21
-70.5
  40
1
  41
1
  50
90
  51
0
  71
0
  72
1
  73
2
  1
C37
  0
TEXT
  7
KICADB
  8
BLACK
  10
11.6
  11
11.6
  20
-70.4
  21
-70.4
  40
1
  41
1
  50
90
  51
0
  71
0
  72
1
  73
2
  1
C36
  0
TEXT
  7
KICADB
  8
BLACK
  10
87.375
  11
87.375
  20
-54
  21
-54
  40
0.8
  41
1
  50
0
  51
0
  71
0
  72
1
  73
2
  1
C35
  0
TEXT
  7
KICADB
  8
BLACK
  10
62.125
  11
62.125
  20
-6.6
  21
-6.6
  40
1
  41
1
  50
90
  51
0
  71
0
  72
1
  73
2
  1
C34
  0
TEXT
  7
KICADB
  8
BLACK
  10
34.3
  11
34.3
  20
-40.1
  21
-40.1
  40
1
  41
1
  50
0
  51
0
  71
0
  72
1
  73
2
  1
C33
  0
TEXT
  7
KICADB
  8
BLACK
  10
66.25
  11
66.25
  20
-46.75
  21
-46.75
  40
0.8
  41
1
  50
0
  51
0
  71
0
  72
1
  73
2
  1
C31
  0
TEXT
  7
KICADB
  8
BLACK
  10
49.625
  11
49.625
  20
-6.6
  21
-6.6
  40
1
  41
1
  50
90
  51
0
  71
0
  72
1
  73
2
  1
C30
  0
TEXT
  7
KICADB
  8
BLACK
  10
43.5
  11
43.5
  20
-73.75
  21
-73.75
  40
0.8
  41
1
  50
0
  51
0
  71
0
  72
1
  73
2
  1
C29
  0
TEXT
  7
KICADB
  8
BLACK
  10
15.8
  11
15.8
  20
-70.5
  21
-70.5
  40
1
  41
1
  50
90
  51
0
  71
0
  72
1
  73
2
  1
C28
  0
TEXT
  7
KICADB
  8
BLACK
  10
-0.8
  11
-0.8
  20
-70.1
  21
-70.1
  40
1
  41
1
  50
90
  51
0
  71
0
  72
1
  73
2
  1
C27
  0
TEXT
  7
KICADB
  8
BLACK
  10
42.4
  11
42.4
  20
-28.6
  21
-28.6
  40
0.8
  41
1
  50
0
  51
0
  71
0
  72
1
  73
2
  1
C26
  0
TEXT
  7
KICADB
  8
BLACK
  10
63.875
  11
63.875
  20
-67.625
  21
-67.625
  40
0.8
  41
1
  50
0
  51
0
  71
0
  72
1
  73
2
  1
C25
  0
TEXT
  7
KICADB
  8
BLACK
  10
24.9
  11
24.9
  20
-49.2
  21
-49.2
  40
1
  41
1
  50
90
  51
0
  71
0
  72
1
  73
2
  1
C24
  0
TEXT
  7
KICADB
  8
BLACK
  10
9.5
  11
9.5
  20
-49.2
  21
-49.2
  40
1
  41
1
  50
90
  51
0
  71
0
  72
1
  73
2
  1
C23
  0
TEXT
  7
KICADB
  8
BLACK
  10
14.8
  11
14.8
  20
-49.2
  21
-49.2
  40
1
  41
1
  50
90
  51
0
  71
0
  72
1
  73
2
  1
C22
  0
TEXT
  7
KICADB
  8
BLACK
  10
-0.9
  11
-0.9
  20
-48.7
  21
-48.7
  40
1
  41
1
  50
90
  51
0
  71
0
  72
1
  73
2
  1
C21
  0
TEXT
  7
KICADB
  8
BLACK
  10
69
  11
69
  20
-12
  21
-12
  40
0.8
  41
1
  50
0
  51
0
  71
0
  72
1
  73
2
  1
C20
  0
TEXT
  7
KICADB
  8
BLACK
  10
62.3
  11
62.3
  20
-21
  21
-21
  40
0.8
  41
1
  50
0
  51
0
  71
0
  72
1
  73
2
  1
C19
  0
TEXT
  7
KICADB
  8
BLACK
  10
80.175
  11
80.175
  20
-31.25
  21
-31.25
  40
0.8
  41
1
  50
0
  51
0
  71
0
  72
1
  73
2
  1
C18
  0
TEXT
  7
KICADB
  8
BLACK
  10
62.3
  11
62.3
  20
-26.875
  21
-26.875
  40
0.8
  41
1
  50
0
  51
0
  71
0
  72
1
  73
2
  1
C17
  0
TEXT
  7
KICADB
  8
BLACK
  10
82
  11
82
  20
-12
  21
-12
  40
0.8
  41
1
  50
0
  51
0
  71
0
  72
1
  73
2
  1
C16
  0
TEXT
  7
KICADB
  8
BLACK
  10
32.4
  11
32.4
  20
-20.7
  21
-20.7
  40
1
  41
1
  50
90
  51
0
  71
0
  72
1
  73
2
  1
C15
  0
TEXT
  7
KICADB
  8
BLACK
  10
16.4
  11
16.4
  20
-38.6
  21
-38.6
  40
1
  41
1
  50
90
  51
0
  71
0
  72
1
  73
2
  1
C14
  0
TEXT
  7
KICADB
  8
BLACK
  10
9.5
  11
9.5
  20
-38.6
  21
-38.6
  40
1
  41
1
  50
90
  51
0
  71
0
  72
1
  73
2
  1
C13
  0
TEXT
  7
KICADB
  8
BLACK
  10
62.3
  11
62.3
  20
-24.475
  21
-24.475
  40
0.8
  41
1
  50
0
  51
0
  71
0
  72
1
  73
2
  1
C12
  0
TEXT
  7
KICADB
  8
BLACK
  10
78.8
  11
78.8
  20
11.8
  21
11.8
  40
0.8
  41
1
  50
0
  51
0
  71
0
  72
1
  73
2
  1
C11
  0
TEXT
  7
KICADB
  8
BLACK
  10
71.25
  11
71.25
  20
-31.3
  21
-31.3
  40
0.8
  41
1
  50
0
  51
0
  71
0
  72
1
  73
2
  1
C10
  0
TEXT
  7
KICADB
  8
BLACK
  10
29.1
  11
29.1
  20
-61.4
  21
-61.4
  40
0.8
  41
1
  50
90
  51
0
  71
0
  72
1
  73
2
  1
C9
  0
TEXT
  7
KICADB
  8
BLACK
  10
82.4
  11
82.4
  20
5.675
  21
5.675
  40
0.8
  41
1
  50
90
  51
0
  71
0
  72
1
  73
2
  1
C8
  0
TEXT
  7
KICADB
  8
BLACK
  10
51.35
  11
51.35
  20
-16.3
  21
-16.3
  40
0.5
  41
1
  50
90
  51
0
  71
0
  72
1
  73
2
  1
C7
  0
TEXT
  7
KICADB
  8
BLACK
  10
62.15
  11
62.15
  20
-15.125
  21
-15.125
  40
0.5
  41
1
  50
90
  51
0
  71
0
  72
1
  73
2
  1
C6
  0
TEXT
  7
KICADB
  8
BLACK
  10
36.6
  11
36.6
  20
1
  21
1
  40
0.5
  41
1
  50
0
  51
0
  71
0
  72
1
  73
2
  1
C5
  0
TEXT
  7
KICADB
  8
BLACK
  10
14
  11
14
  20
-15.8
  21
-15.8
  40
1
  41
1
  50
0
  51
0
  71
0
  72
1
  73
2
  1
C4
  0
TEXT
  7
KICADB
  8
BLACK
  10
33
  11
33
  20
-1.5
  21
-1.5
  40
0.5
  41
1
  50
90
  51
0
  71
0
  72
1
  73
2
  1
C3
  0
TEXT
  7
KICADB
  8
BLACK
  10
16.2
  11
16.2
  20
4.5
  21
4.5
  40
1
  41
1
  50
0
  51
0
  71
0
  72
1
  73
2
  1
C1
  0
TEXT
  7
KICADB
  8
BLACK
  10
26.4
  11
26.4
  20
-61.4
  21
-61.4
  40
0.8
  41
1
  50
90
  51
0
  71
0
  72
1
  73
2
  1
R50
  0
TEXT
  7
KICADB
  8
BLACK
  10
69.6
  11
69.6
  20
-74.275
  21
-74.275
  40
0.8
  41
1
  50
90
  51
0
  71
0
  72
1
  73
2
  1
R45
  0
ENDSEC
  0
EOF
