  0
SECTION
  2
HEADER
  9
$ANGBASE
  50
0.0
  9
$ANGDIR
  70
1
  9
$MEASUREMENT
  70
1
  0
ENDSEC
  0
SECTION
  2
TABLES
  0
TABLE
  2
LTYPE
  70
4
  0
LTYPE
  5
40F
  2
CONTINUOUS
  70
0
  3
Solid line
  72
65
  73
0
  40
0.0
  0
LTYPE
  5
410
  2
DASHDOT
 70
0
  3
Dash Dot ____ _ ____ _
 72
65
 73
4
 40
2.0
 49
1.25
 49
-0.25
 49
0.25
 49
-0.25
  0
LTYPE
  5
411
  2
DASHED
 70
0
  3
Dashed __ __ __ __ __
 72
65
 73
2
 40
0.75
 49
0.5
 49
-0.25
  0
LTYPE
  5
43B
  2
DOTTED
 70
0
  3
Dotted .  .  .  .
 72
65
 73
2
 40
0.2
 49
0.0
 49
-0.2
  0
ENDTAB
  0
TABLE
  2
STYLE
  70
4
  0
STYLE
  2
KICAD
  70
0
  40
0
  41
1
  42
1
  50
0
  71
0
  3
isocp.shx
  0
STYLE
  2
KICADB
  70
0
  40
0
  41
1
  42
1
  50
0
  71
0
  3
isocp.shx
  0
STYLE
  2
KICADI
  70
0
  40
0
  41
1
  42
1
  50
15
  71
0
  3
isocp.shx
  0
STYLE
  2
KICADBI
  70
0
  40
0
  41
1
  42
1
  50
15
  71
0
  3
isocp.shx
  0
ENDTAB
  0
TABLE
  2
LAYER
  70
1
  0
LAYER
  2
BLACK
  70
0
  62
7
  6
CONTINUOUS
  0
ENDTAB
  0
ENDSEC
  0
SECTION
  2
ENTITIES
0
CIRCLE
8
BLACK
10
59.548
20
-132.55
40
1
0
CIRCLE
8
BLACK
10
130.798
20
-108.8
40
1
0
CIRCLE
8
BLACK
10
130.798
20
-61.3
40
1
0
CIRCLE
8
BLACK
10
35.798
20
-85.05
40
1
0
CIRCLE
8
BLACK
10
35.798
20
-61.3
40
1
0
CIRCLE
8
BLACK
10
130.798
20
-37.55
40
1
0
CIRCLE
8
BLACK
10
35.798
20
-37.55
40
1
0
LINE
8
BLACK
6
CONTINUOUS
10
33.298
20
-135.05
11
33.298
21
-35.05
0
LINE
8
BLACK
6
CONTINUOUS
10
133.298
20
-135.05
11
33.298
21
-135.05
0
LINE
8
BLACK
6
CONTINUOUS
10
133.298
20
-35.05
11
133.298
21
-135.05
0
LINE
8
BLACK
6
CONTINUOUS
10
33.298
20
-35.05
11
133.298
21
-35.05
0
CIRCLE
8
BLACK
10
38.298
20
-130.05
40
1.75
0
CIRCLE
8
BLACK
10
128.298
20
-130.05
40
1.75071
0
CIRCLE
8
BLACK
10
128.298
20
-50.05
40
1.75285
0
CIRCLE
8
BLACK
10
38.298
20
-50.05
40
1.75285
0
LINE
8
BLACK
6
CONTINUOUS
10
37.248
20
-94
11
37.748
21
-94.5
0
LINE
8
BLACK
6
CONTINUOUS
10
37.748
20
-94
11
37.248
21
-94.5
0
LINE
8
BLACK
6
CONTINUOUS
10
37.298
20
-115.3
11
37.798
21
-115.8
0
LINE
8
BLACK
6
CONTINUOUS
10
37.798
20
-115.3
11
37.298
21
-115.8
0
LINE
8
BLACK
6
CONTINUOUS
10
43.648
20
-96.4
11
44.148
21
-96.9
0
LINE
8
BLACK
6
CONTINUOUS
10
44.148
20
-96.4
11
43.648
21
-96.9
0
LINE
8
BLACK
6
CONTINUOUS
10
47.548
20
-103.675
11
48.048
21
-104.175
0
LINE
8
BLACK
6
CONTINUOUS
10
48.048
20
-103.675
11
47.548
21
-104.175
0
LINE
8
BLACK
6
CONTINUOUS
10
49.648
20
-115.9
11
50.148
21
-116.4
0
LINE
8
BLACK
6
CONTINUOUS
10
50.148
20
-115.9
11
49.648
21
-116.4
0
LINE
8
BLACK
6
CONTINUOUS
10
53.923
20
-115.925
11
54.423
21
-116.425
0
LINE
8
BLACK
6
CONTINUOUS
10
54.423
20
-115.925
11
53.923
21
-116.425
0
LINE
8
BLACK
6
CONTINUOUS
10
55.448
20
-96.4
11
55.948
21
-96.9
0
LINE
8
BLACK
6
CONTINUOUS
10
55.948
20
-96.4
11
55.448
21
-96.9
0
LINE
8
BLACK
6
CONTINUOUS
10
59.248
20
-96.4
11
59.748
21
-96.9
0
LINE
8
BLACK
6
CONTINUOUS
10
59.748
20
-96.4
11
59.248
21
-96.9
0
LINE
8
BLACK
6
CONTINUOUS
10
64.423
20
-103.55
11
64.923
21
-104.05
0
LINE
8
BLACK
6
CONTINUOUS
10
64.923
20
-103.55
11
64.423
21
-104.05
0
LINE
8
BLACK
6
CONTINUOUS
10
66.048
20
-115.55
11
66.548
21
-116.05
0
LINE
8
BLACK
6
CONTINUOUS
10
66.548
20
-115.55
11
66.048
21
-116.05
0
LINE
8
BLACK
6
CONTINUOUS
10
68.798
20
-112.675
11
69.298
21
-113.175
0
LINE
8
BLACK
6
CONTINUOUS
10
69.298
20
-112.675
11
68.798
21
-113.175
0
LINE
8
BLACK
6
CONTINUOUS
10
70.798
20
-109.425
11
71.298
21
-109.925
0
LINE
8
BLACK
6
CONTINUOUS
10
71.298
20
-109.425
11
70.798
21
-109.925
0
LINE
8
BLACK
6
CONTINUOUS
10
73.798
20
-113.8
11
74.298
21
-114.3
0
LINE
8
BLACK
6
CONTINUOUS
10
74.298
20
-113.8
11
73.798
21
-114.3
0
LINE
8
BLACK
6
CONTINUOUS
10
73.861
20
-110.803
11
74.361
21
-111.303
0
LINE
8
BLACK
6
CONTINUOUS
10
74.361
20
-110.803
11
73.861
21
-111.303
0
LINE
8
BLACK
6
CONTINUOUS
10
78.173
20
-112.05
11
78.673
21
-112.55
0
LINE
8
BLACK
6
CONTINUOUS
10
78.673
20
-112.05
11
78.173
21
-112.55
0
LINE
8
BLACK
6
CONTINUOUS
10
78.323
20
-115.775
11
78.823
21
-116.275
0
LINE
8
BLACK
6
CONTINUOUS
10
78.823
20
-115.775
11
78.323
21
-116.275
0
LINE
8
BLACK
6
CONTINUOUS
10
79.993
20
-98.245
11
80.493
21
-98.745
0
LINE
8
BLACK
6
CONTINUOUS
10
80.493
20
-98.245
11
79.993
21
-98.745
0
LINE
8
BLACK
6
CONTINUOUS
10
80.048
20
-92.55
11
80.548
21
-93.05
0
LINE
8
BLACK
6
CONTINUOUS
10
80.548
20
-92.55
11
80.048
21
-93.05
0
LINE
8
BLACK
6
CONTINUOUS
10
80.048
20
-121.675
11
80.548
21
-122.175
0
LINE
8
BLACK
6
CONTINUOUS
10
80.548
20
-121.675
11
80.048
21
-122.175
0
LINE
8
BLACK
6
CONTINUOUS
10
81.798
20
-87.925
11
82.298
21
-88.425
0
LINE
8
BLACK
6
CONTINUOUS
10
82.298
20
-87.925
11
81.798
21
-88.425
0
LINE
8
BLACK
6
CONTINUOUS
10
83.448
20
-78.4
11
83.948
21
-78.9
0
LINE
8
BLACK
6
CONTINUOUS
10
83.948
20
-78.4
11
83.448
21
-78.9
0
LINE
8
BLACK
6
CONTINUOUS
10
83.548
20
-84.925
11
84.048
21
-85.425
0
LINE
8
BLACK
6
CONTINUOUS
10
84.048
20
-84.925
11
83.548
21
-85.425
0
LINE
8
BLACK
6
CONTINUOUS
10
84.423
20
-123.55
11
84.923
21
-124.05
0
LINE
8
BLACK
6
CONTINUOUS
10
84.923
20
-123.55
11
84.423
21
-124.05
0
LINE
8
BLACK
6
CONTINUOUS
10
85.423
20
-98.775
11
85.923
21
-99.275
0
LINE
8
BLACK
6
CONTINUOUS
10
85.923
20
-98.775
11
85.423
21
-99.275
0
LINE
8
BLACK
6
CONTINUOUS
10
85.548
20
-89.3
11
86.048
21
-89.8
0
LINE
8
BLACK
6
CONTINUOUS
10
86.048
20
-89.3
11
85.548
21
-89.8
0
LINE
8
BLACK
6
CONTINUOUS
10
87.548
20
-65.175
11
88.048
21
-65.675
0
LINE
8
BLACK
6
CONTINUOUS
10
88.048
20
-65.175
11
87.548
21
-65.675
0
LINE
8
BLACK
6
CONTINUOUS
10
87.573
20
-51.1
11
88.073
21
-51.6
0
LINE
8
BLACK
6
CONTINUOUS
10
88.073
20
-51.1
11
87.573
21
-51.6
0
LINE
8
BLACK
6
CONTINUOUS
10
87.923
20
-69.175
11
88.423
21
-69.675
0
LINE
8
BLACK
6
CONTINUOUS
10
88.423
20
-69.175
11
87.923
21
-69.675
0
LINE
8
BLACK
6
CONTINUOUS
10
88.673
20
-98.775
11
89.173
21
-99.275
0
LINE
8
BLACK
6
CONTINUOUS
10
89.173
20
-98.775
11
88.673
21
-99.275
0
LINE
8
BLACK
6
CONTINUOUS
10
89.548
20
-107.3
11
90.048
21
-107.8
0
LINE
8
BLACK
6
CONTINUOUS
10
90.048
20
-107.3
11
89.548
21
-107.8
0
LINE
8
BLACK
6
CONTINUOUS
10
93.298
20
-108.275
11
93.798
21
-108.775
0
LINE
8
BLACK
6
CONTINUOUS
10
93.798
20
-108.275
11
93.298
21
-108.775
0
LINE
8
BLACK
6
CONTINUOUS
10
93.798
20
-67.925
11
94.298
21
-68.425
0
LINE
8
BLACK
6
CONTINUOUS
10
94.298
20
-67.925
11
93.798
21
-68.425
0
LINE
8
BLACK
6
CONTINUOUS
10
95.798
20
-70.8
11
96.298
21
-71.3
0
LINE
8
BLACK
6
CONTINUOUS
10
96.298
20
-70.8
11
95.798
21
-71.3
0
LINE
8
BLACK
6
CONTINUOUS
10
97.298
20
-70.925
11
97.798
21
-71.425
0
LINE
8
BLACK
6
CONTINUOUS
10
97.798
20
-70.925
11
97.298
21
-71.425
0
LINE
8
BLACK
6
CONTINUOUS
10
97.298
20
-74.3
11
97.798
21
-74.8
0
LINE
8
BLACK
6
CONTINUOUS
10
97.798
20
-74.3
11
97.298
21
-74.8
0
LINE
8
BLACK
6
CONTINUOUS
10
97.298
20
-76.675
11
97.798
21
-77.175
0
LINE
8
BLACK
6
CONTINUOUS
10
97.798
20
-76.675
11
97.298
21
-77.175
0
LINE
8
BLACK
6
CONTINUOUS
10
97.298
20
-78.925
11
97.798
21
-79.425
0
LINE
8
BLACK
6
CONTINUOUS
10
97.798
20
-78.925
11
97.298
21
-79.425
0
LINE
8
BLACK
6
CONTINUOUS
10
97.423
20
-81.425
11
97.923
21
-81.925
0
LINE
8
BLACK
6
CONTINUOUS
10
97.923
20
-81.425
11
97.423
21
-81.925
0
LINE
8
BLACK
6
CONTINUOUS
10
98.6112
20
-103.488
11
99.1112
21
-103.988
0
LINE
8
BLACK
6
CONTINUOUS
10
99.1112
20
-103.488
11
98.6112
21
-103.988
0
LINE
8
BLACK
6
CONTINUOUS
10
99.423
20
-85.675
11
99.923
21
-86.175
0
LINE
8
BLACK
6
CONTINUOUS
10
99.923
20
-85.675
11
99.423
21
-86.175
0
LINE
8
BLACK
6
CONTINUOUS
10
100.173
20
-51.3
11
100.673
21
-51.8
0
LINE
8
BLACK
6
CONTINUOUS
10
100.673
20
-51.3
11
100.173
21
-51.8
0
LINE
8
BLACK
6
CONTINUOUS
10
100.173
20
-61.5
11
100.673
21
-62
0
LINE
8
BLACK
6
CONTINUOUS
10
100.673
20
-61.5
11
100.173
21
-62
0
LINE
8
BLACK
6
CONTINUOUS
10
100.173
20
-115.8
11
100.673
21
-116.3
0
LINE
8
BLACK
6
CONTINUOUS
10
100.673
20
-115.8
11
100.173
21
-116.3
0
LINE
8
BLACK
6
CONTINUOUS
10
100.423
20
-72.55
11
100.923
21
-73.05
0
LINE
8
BLACK
6
CONTINUOUS
10
100.923
20
-72.55
11
100.423
21
-73.05
0
LINE
8
BLACK
6
CONTINUOUS
10
100.532
20
-67.21
11
101.032
21
-67.71
0
LINE
8
BLACK
6
CONTINUOUS
10
101.032
20
-67.21
11
100.532
21
-67.71
0
LINE
8
BLACK
6
CONTINUOUS
10
101.298
20
-89.3
11
101.798
21
-89.8
0
LINE
8
BLACK
6
CONTINUOUS
10
101.798
20
-89.3
11
101.298
21
-89.8
0
LINE
8
BLACK
6
CONTINUOUS
10
102.048
20
-72.55
11
102.548
21
-73.05
0
LINE
8
BLACK
6
CONTINUOUS
10
102.548
20
-72.55
11
102.048
21
-73.05
0
LINE
8
BLACK
6
CONTINUOUS
10
102.385
20
-66.3555
11
102.885
21
-66.8555
0
LINE
8
BLACK
6
CONTINUOUS
10
102.885
20
-66.3555
11
102.385
21
-66.8555
0
LINE
8
BLACK
6
CONTINUOUS
10
102.618
20
-65.0224
11
103.118
21
-65.5224
0
LINE
8
BLACK
6
CONTINUOUS
10
103.118
20
-65.0224
11
102.618
21
-65.5224
0
LINE
8
BLACK
6
CONTINUOUS
10
102.923
20
-95.05
11
103.423
21
-95.55
0
LINE
8
BLACK
6
CONTINUOUS
10
103.423
20
-95.05
11
102.923
21
-95.55
0
LINE
8
BLACK
6
CONTINUOUS
10
103.173
20
-59.5
11
103.673
21
-60
0
LINE
8
BLACK
6
CONTINUOUS
10
103.673
20
-59.5
11
103.173
21
-60
0
LINE
8
BLACK
6
CONTINUOUS
10
103.298
20
-89.3
11
103.798
21
-89.8
0
LINE
8
BLACK
6
CONTINUOUS
10
103.798
20
-89.3
11
103.298
21
-89.8
0
LINE
8
BLACK
6
CONTINUOUS
10
103.423
20
-115.675
11
103.923
21
-116.175
0
LINE
8
BLACK
6
CONTINUOUS
10
103.923
20
-115.675
11
103.423
21
-116.175
0
LINE
8
BLACK
6
CONTINUOUS
10
103.573
20
-53.3
11
104.073
21
-53.8
0
LINE
8
BLACK
6
CONTINUOUS
10
104.073
20
-53.3
11
103.573
21
-53.8
0
LINE
8
BLACK
6
CONTINUOUS
10
104.048
20
-50.2
11
104.548
21
-50.7
0
LINE
8
BLACK
6
CONTINUOUS
10
104.548
20
-50.2
11
104.048
21
-50.7
0
LINE
8
BLACK
6
CONTINUOUS
10
104.048
20
-56.8
11
104.548
21
-57.3
0
LINE
8
BLACK
6
CONTINUOUS
10
104.548
20
-56.8
11
104.048
21
-57.3
0
LINE
8
BLACK
6
CONTINUOUS
10
105.423
20
-85.55
11
105.923
21
-86.05
0
LINE
8
BLACK
6
CONTINUOUS
10
105.923
20
-85.55
11
105.423
21
-86.05
0
LINE
8
BLACK
6
CONTINUOUS
10
105.648
20
-60
11
106.148
21
-60.5
0
LINE
8
BLACK
6
CONTINUOUS
10
106.148
20
-60
11
105.648
21
-60.5
0
LINE
8
BLACK
6
CONTINUOUS
10
105.798
20
-95.05
11
106.298
21
-95.55
0
LINE
8
BLACK
6
CONTINUOUS
10
106.298
20
-95.05
11
105.798
21
-95.55
0
LINE
8
BLACK
6
CONTINUOUS
10
105.923
20
-73.175
11
106.423
21
-73.675
0
LINE
8
BLACK
6
CONTINUOUS
10
106.423
20
-73.175
11
105.923
21
-73.675
0
LINE
8
BLACK
6
CONTINUOUS
10
106.423
20
-70.3
11
106.923
21
-70.8
0
LINE
8
BLACK
6
CONTINUOUS
10
106.923
20
-70.3
11
106.423
21
-70.8
0
LINE
8
BLACK
6
CONTINUOUS
10
106.673
20
-86.675
11
107.173
21
-87.175
0
LINE
8
BLACK
6
CONTINUOUS
10
107.173
20
-86.675
11
106.673
21
-87.175
0
LINE
8
BLACK
6
CONTINUOUS
10
107.798
20
-83.55
11
108.298
21
-84.05
0
LINE
8
BLACK
6
CONTINUOUS
10
108.298
20
-83.55
11
107.798
21
-84.05
0
LINE
8
BLACK
6
CONTINUOUS
10
108.415
20
-90.8075
11
108.915
21
-91.3075
0
LINE
8
BLACK
6
CONTINUOUS
10
108.915
20
-90.8075
11
108.415
21
-91.3075
0
LINE
8
BLACK
6
CONTINUOUS
10
108.448
20
-60
11
108.948
21
-60.5
0
LINE
8
BLACK
6
CONTINUOUS
10
108.948
20
-60
11
108.448
21
-60.5
0
LINE
8
BLACK
6
CONTINUOUS
10
109.798
20
-129.8
11
110.298
21
-130.3
0
LINE
8
BLACK
6
CONTINUOUS
10
110.298
20
-129.8
11
109.798
21
-130.3
0
LINE
8
BLACK
6
CONTINUOUS
10
110.048
20
-62.425
11
110.548
21
-62.925
0
LINE
8
BLACK
6
CONTINUOUS
10
110.548
20
-62.425
11
110.048
21
-62.925
0
LINE
8
BLACK
6
CONTINUOUS
10
111.859
20
-81.1457
11
112.359
21
-81.6457
0
LINE
8
BLACK
6
CONTINUOUS
10
112.359
20
-81.1457
11
111.859
21
-81.6457
0
LINE
8
BLACK
6
CONTINUOUS
10
112.173
20
-91.05
11
112.673
21
-91.55
0
LINE
8
BLACK
6
CONTINUOUS
10
112.673
20
-91.05
11
112.173
21
-91.55
0
LINE
8
BLACK
6
CONTINUOUS
10
112.173
20
-109.425
11
112.673
21
-109.925
0
LINE
8
BLACK
6
CONTINUOUS
10
112.673
20
-109.425
11
112.173
21
-109.925
0
LINE
8
BLACK
6
CONTINUOUS
10
115.248
20
-61.2
11
115.748
21
-61.7
0
LINE
8
BLACK
6
CONTINUOUS
10
115.748
20
-61.2
11
115.248
21
-61.7
0
LINE
8
BLACK
6
CONTINUOUS
10
115.248
20
-56.8
11
115.748
21
-57.3
0
LINE
8
BLACK
6
CONTINUOUS
10
115.748
20
-56.8
11
115.248
21
-57.3
0
LINE
8
BLACK
6
CONTINUOUS
10
115.798
20
-112.425
11
116.298
21
-112.925
0
LINE
8
BLACK
6
CONTINUOUS
10
116.298
20
-112.425
11
115.798
21
-112.925
0
LINE
8
BLACK
6
CONTINUOUS
10
115.998
20
-126.35
11
116.498
21
-126.85
0
LINE
8
BLACK
6
CONTINUOUS
10
116.498
20
-126.35
11
115.998
21
-126.85
0
LINE
8
BLACK
6
CONTINUOUS
10
117.548
20
-131.05
11
118.048
21
-131.55
0
LINE
8
BLACK
6
CONTINUOUS
10
118.048
20
-131.05
11
117.548
21
-131.55
0
LINE
8
BLACK
6
CONTINUOUS
10
118.548
20
-60.05
11
119.048
21
-60.55
0
LINE
8
BLACK
6
CONTINUOUS
10
119.048
20
-60.05
11
118.548
21
-60.55
0
LINE
8
BLACK
6
CONTINUOUS
10
119.423
20
-99.425
11
119.923
21
-99.925
0
LINE
8
BLACK
6
CONTINUOUS
10
119.923
20
-99.425
11
119.423
21
-99.925
0
LINE
8
BLACK
6
CONTINUOUS
10
119.548
20
-77.175
11
120.048
21
-77.675
0
LINE
8
BLACK
6
CONTINUOUS
10
120.048
20
-77.175
11
119.548
21
-77.675
0
LINE
8
BLACK
6
CONTINUOUS
10
119.673
20
-79.175
11
120.173
21
-79.675
0
LINE
8
BLACK
6
CONTINUOUS
10
120.173
20
-79.175
11
119.673
21
-79.675
0
LINE
8
BLACK
6
CONTINUOUS
10
119.673
20
-90.425
11
120.173
21
-90.925
0
LINE
8
BLACK
6
CONTINUOUS
10
120.173
20
-90.425
11
119.673
21
-90.925
0
LINE
8
BLACK
6
CONTINUOUS
10
119.848
20
-66.2
11
120.348
21
-66.7
0
LINE
8
BLACK
6
CONTINUOUS
10
120.348
20
-66.2
11
119.848
21
-66.7
0
LINE
8
BLACK
6
CONTINUOUS
10
120.048
20
-38
11
120.548
21
-38.5
0
LINE
8
BLACK
6
CONTINUOUS
10
120.548
20
-38
11
120.048
21
-38.5
0
LINE
8
BLACK
6
CONTINUOUS
10
120.423
20
-67.55
11
120.923
21
-68.05
0
LINE
8
BLACK
6
CONTINUOUS
10
120.923
20
-67.55
11
120.423
21
-68.05
0
LINE
8
BLACK
6
CONTINUOUS
10
120.423
20
-131.05
11
120.923
21
-131.55
0
LINE
8
BLACK
6
CONTINUOUS
10
120.923
20
-131.05
11
120.423
21
-131.55
0
LINE
8
BLACK
6
CONTINUOUS
10
121.448
20
-63.6
11
121.948
21
-64.1
0
LINE
8
BLACK
6
CONTINUOUS
10
121.948
20
-63.6
11
121.448
21
-64.1
0
LINE
8
BLACK
6
CONTINUOUS
10
121.548
20
-75.175
11
122.048
21
-75.675
0
LINE
8
BLACK
6
CONTINUOUS
10
122.048
20
-75.175
11
121.548
21
-75.675
0
LINE
8
BLACK
6
CONTINUOUS
10
122.123
20
-126.35
11
122.623
21
-126.85
0
LINE
8
BLACK
6
CONTINUOUS
10
122.623
20
-126.35
11
122.123
21
-126.85
0
LINE
8
BLACK
6
CONTINUOUS
10
122.248
20
-45.6
11
122.748
21
-46.1
0
LINE
8
BLACK
6
CONTINUOUS
10
122.748
20
-45.6
11
122.248
21
-46.1
0
LINE
8
BLACK
6
CONTINUOUS
10
123.173
20
-72.85
11
123.673
21
-73.35
0
LINE
8
BLACK
6
CONTINUOUS
10
123.673
20
-72.85
11
123.173
21
-73.35
0
LINE
8
BLACK
6
CONTINUOUS
10
123.923
20
-102.213
11
124.423
21
-102.713
0
LINE
8
BLACK
6
CONTINUOUS
10
124.423
20
-102.213
11
123.923
21
-102.713
0
LINE
8
BLACK
6
CONTINUOUS
10
128.673
20
-103.8
11
129.173
21
-104.3
0
LINE
8
BLACK
6
CONTINUOUS
10
129.173
20
-103.8
11
128.673
21
-104.3
0
LINE
8
BLACK
6
CONTINUOUS
10
129.501
20
-73.722
11
130.001
21
-74.222
0
LINE
8
BLACK
6
CONTINUOUS
10
130.001
20
-73.722
11
129.501
21
-74.222
0
LINE
8
BLACK
6
CONTINUOUS
10
130.173
20
-119.8
11
130.673
21
-120.3
0
LINE
8
BLACK
6
CONTINUOUS
10
130.673
20
-119.8
11
130.173
21
-120.3
0
LINE
8
BLACK
6
CONTINUOUS
10
130.798
20
-76.05
11
131.298
21
-76.55
0
LINE
8
BLACK
6
CONTINUOUS
10
131.298
20
-76.05
11
130.798
21
-76.55
0
LINE
8
BLACK
6
CONTINUOUS
10
131.923
20
-124.3
11
132.423
21
-124.8
0
LINE
8
BLACK
6
CONTINUOUS
10
132.423
20
-124.3
11
131.923
21
-124.8
0
LINE
8
BLACK
6
CONTINUOUS
10
131.948
20
-77.675
11
132.448
21
-78.175
0
LINE
8
BLACK
6
CONTINUOUS
10
132.448
20
-77.675
11
131.948
21
-78.175
0
CIRCLE
8
BLACK
10
88.923
20
-77.65
40
0.4
0
CIRCLE
8
BLACK
10
90.548
20
-80.4
40
0.4
0
CIRCLE
8
BLACK
10
92.173
20
-77.65
40
0.4
0
CIRCLE
8
BLACK
10
48.698
20
-111.25
40
0.4
0
CIRCLE
8
BLACK
10
58.698
20
-111.25
40
0.4
0
CIRCLE
8
BLACK
10
77.298
20
-128.75
40
0.4
0
CIRCLE
8
BLACK
10
77.298
20
-130.75
40
0.4
0
CIRCLE
8
BLACK
10
79.298
20
-128.75
40
0.4
0
CIRCLE
8
BLACK
10
79.298
20
-130.75
40
0.4
0
CIRCLE
8
BLACK
10
81.298
20
-128.75
40
0.4
0
CIRCLE
8
BLACK
10
81.298
20
-130.75
40
0.4
0
CIRCLE
8
BLACK
10
83.298
20
-128.75
40
0.4
0
CIRCLE
8
BLACK
10
83.298
20
-130.75
40
0.4
0
CIRCLE
8
BLACK
10
85.298
20
-128.75
40
0.4
0
CIRCLE
8
BLACK
10
85.298
20
-130.75
40
0.4
0
CIRCLE
8
BLACK
10
87.298
20
-128.75
40
0.4
0
CIRCLE
8
BLACK
10
87.298
20
-130.75
40
0.4
0
CIRCLE
8
BLACK
10
89.298
20
-128.75
40
0.4
0
CIRCLE
8
BLACK
10
89.298
20
-130.75
40
0.4
0
CIRCLE
8
BLACK
10
91.298
20
-128.75
40
0.4
0
CIRCLE
8
BLACK
10
91.298
20
-130.75
40
0.4
0
CIRCLE
8
BLACK
10
90.7979
20
-39.35
40
0.4
0
CIRCLE
8
BLACK
10
90.798
20
-41.35
40
0.4
0
CIRCLE
8
BLACK
10
92.798
20
-41.3499
40
0.4
0
CIRCLE
8
BLACK
10
92.798
20
-39.3501
40
0.4
0
CIRCLE
8
BLACK
10
94.798
20
-41.35
40
0.4
0
CIRCLE
8
BLACK
10
94.7981
20
-39.3499
40
0.4
0
CIRCLE
8
BLACK
10
96.798
20
-41.3499
40
0.4
0
CIRCLE
8
BLACK
10
96.798
20
-39.3501
40
0.4
0
CIRCLE
8
BLACK
10
104.398
20
-104.8
40
0.4
0
CIRCLE
8
BLACK
10
104.398
20
-108.05
40
0.4
0
CIRCLE
8
BLACK
10
107.148
20
-106.425
40
0.4
0
CIRCLE
8
BLACK
10
52.3979
20
-38.25
40
0.4
0
CIRCLE
8
BLACK
10
52.398
20
-40.25
40
0.4
0
CIRCLE
8
BLACK
10
54.398
20
-40.2499
40
0.4
0
CIRCLE
8
BLACK
10
54.398
20
-38.2501
40
0.4
0
CIRCLE
8
BLACK
10
56.398
20
-40.25
40
0.4
0
CIRCLE
8
BLACK
10
56.3981
20
-38.2499
40
0.4
0
LINE
8
BLACK
6
CONTINUOUS
10
125.808
20
-79.57
11
125.808
21
-80.57
0
LINE
8
BLACK
6
CONTINUOUS
10
125.308
20
-80.07
11
126.308
21
-80.07
0
LINE
8
BLACK
6
CONTINUOUS
10
125.808
20
-82.11
11
125.808
21
-83.11
0
LINE
8
BLACK
6
CONTINUOUS
10
125.308
20
-82.61
11
126.308
21
-82.61
0
LINE
8
BLACK
6
CONTINUOUS
10
125.808
20
-84.65
11
125.808
21
-85.65
0
LINE
8
BLACK
6
CONTINUOUS
10
125.308
20
-85.15
11
126.308
21
-85.15
0
LINE
8
BLACK
6
CONTINUOUS
10
125.808
20
-87.19
11
125.808
21
-88.19
0
LINE
8
BLACK
6
CONTINUOUS
10
125.308
20
-87.69
11
126.308
21
-87.69
0
LINE
8
BLACK
6
CONTINUOUS
10
125.808
20
-89.73
11
125.808
21
-90.73
0
LINE
8
BLACK
6
CONTINUOUS
10
125.308
20
-90.23
11
126.308
21
-90.23
0
LINE
8
BLACK
6
CONTINUOUS
10
128.348
20
-79.57
11
128.348
21
-80.57
0
LINE
8
BLACK
6
CONTINUOUS
10
127.848
20
-80.07
11
128.848
21
-80.07
0
LINE
8
BLACK
6
CONTINUOUS
10
128.348
20
-82.11
11
128.348
21
-83.11
0
LINE
8
BLACK
6
CONTINUOUS
10
127.848
20
-82.61
11
128.848
21
-82.61
0
LINE
8
BLACK
6
CONTINUOUS
10
128.348
20
-84.65
11
128.348
21
-85.65
0
LINE
8
BLACK
6
CONTINUOUS
10
127.848
20
-85.15
11
128.848
21
-85.15
0
LINE
8
BLACK
6
CONTINUOUS
10
128.348
20
-87.19
11
128.348
21
-88.19
0
LINE
8
BLACK
6
CONTINUOUS
10
127.848
20
-87.69
11
128.848
21
-87.69
0
LINE
8
BLACK
6
CONTINUOUS
10
128.348
20
-89.73
11
128.348
21
-90.73
0
LINE
8
BLACK
6
CONTINUOUS
10
127.848
20
-90.23
11
128.848
21
-90.23
0
LINE
8
BLACK
6
CONTINUOUS
10
114.673
20
-94.135
11
114.673
21
-95.135
0
LINE
8
BLACK
6
CONTINUOUS
10
114.173
20
-94.635
11
115.173
21
-94.635
0
LINE
8
BLACK
6
CONTINUOUS
10
114.673
20
-96.675
11
114.673
21
-97.675
0
LINE
8
BLACK
6
CONTINUOUS
10
114.173
20
-97.175
11
115.173
21
-97.175
0
LINE
8
BLACK
6
CONTINUOUS
10
117.213
20
-94.135
11
117.213
21
-95.135
0
LINE
8
BLACK
6
CONTINUOUS
10
116.713
20
-94.635
11
117.713
21
-94.635
0
LINE
8
BLACK
6
CONTINUOUS
10
117.213
20
-96.675
11
117.213
21
-97.675
0
LINE
8
BLACK
6
CONTINUOUS
10
116.713
20
-97.175
11
117.713
21
-97.175
0
LINE
8
BLACK
6
CONTINUOUS
10
119.753
20
-94.135
11
119.753
21
-95.135
0
LINE
8
BLACK
6
CONTINUOUS
10
119.253
20
-94.635
11
120.253
21
-94.635
0
LINE
8
BLACK
6
CONTINUOUS
10
119.753
20
-96.675
11
119.753
21
-97.675
0
LINE
8
BLACK
6
CONTINUOUS
10
119.253
20
-97.175
11
120.253
21
-97.175
0
LINE
8
BLACK
6
CONTINUOUS
10
122.293
20
-94.135
11
122.293
21
-95.135
0
LINE
8
BLACK
6
CONTINUOUS
10
121.793
20
-94.635
11
122.793
21
-94.635
0
LINE
8
BLACK
6
CONTINUOUS
10
122.293
20
-96.675
11
122.293
21
-97.675
0
LINE
8
BLACK
6
CONTINUOUS
10
121.793
20
-97.175
11
122.793
21
-97.175
0
LINE
8
BLACK
6
CONTINUOUS
10
124.833
20
-94.135
11
124.833
21
-95.135
0
LINE
8
BLACK
6
CONTINUOUS
10
124.333
20
-94.635
11
125.333
21
-94.635
0
LINE
8
BLACK
6
CONTINUOUS
10
124.833
20
-96.675
11
124.833
21
-97.675
0
LINE
8
BLACK
6
CONTINUOUS
10
124.333
20
-97.175
11
125.333
21
-97.175
0
LINE
8
BLACK
6
CONTINUOUS
10
108.498
20
-51.01
11
108.498
21
-52.01
0
LINE
8
BLACK
6
CONTINUOUS
10
107.998
20
-51.51
11
108.998
21
-51.51
0
LINE
8
BLACK
6
CONTINUOUS
10
108.498
20
-53.55
11
108.498
21
-54.55
0
LINE
8
BLACK
6
CONTINUOUS
10
107.998
20
-54.05
11
108.998
21
-54.05
0
LINE
8
BLACK
6
CONTINUOUS
10
111.038
20
-51.01
11
111.038
21
-52.01
0
LINE
8
BLACK
6
CONTINUOUS
10
110.538
20
-51.51
11
111.538
21
-51.51
0
LINE
8
BLACK
6
CONTINUOUS
10
111.038
20
-53.55
11
111.038
21
-54.55
0
LINE
8
BLACK
6
CONTINUOUS
10
110.538
20
-54.05
11
111.538
21
-54.05
0
LINE
8
BLACK
6
CONTINUOUS
10
113.578
20
-51.01
11
113.578
21
-52.01
0
LINE
8
BLACK
6
CONTINUOUS
10
113.078
20
-51.51
11
114.078
21
-51.51
0
LINE
8
BLACK
6
CONTINUOUS
10
113.578
20
-53.55
11
113.578
21
-54.55
0
LINE
8
BLACK
6
CONTINUOUS
10
113.078
20
-54.05
11
114.078
21
-54.05
0
LINE
8
BLACK
6
CONTINUOUS
10
116.118
20
-51.01
11
116.118
21
-52.01
0
LINE
8
BLACK
6
CONTINUOUS
10
115.618
20
-51.51
11
116.618
21
-51.51
0
LINE
8
BLACK
6
CONTINUOUS
10
116.118
20
-53.55
11
116.118
21
-54.55
0
LINE
8
BLACK
6
CONTINUOUS
10
115.618
20
-54.05
11
116.618
21
-54.05
0
LINE
8
BLACK
6
CONTINUOUS
10
118.658
20
-51.01
11
118.658
21
-52.01
0
LINE
8
BLACK
6
CONTINUOUS
10
118.158
20
-51.51
11
119.158
21
-51.51
0
LINE
8
BLACK
6
CONTINUOUS
10
118.658
20
-53.55
11
118.658
21
-54.55
0
LINE
8
BLACK
6
CONTINUOUS
10
118.158
20
-54.05
11
119.158
21
-54.05
0
LINE
8
BLACK
6
CONTINUOUS
10
69.758
20
-84.8
11
69.758
21
-85.8
0
LINE
8
BLACK
6
CONTINUOUS
10
69.258
20
-85.3
11
70.258
21
-85.3
0
LINE
8
BLACK
6
CONTINUOUS
10
72.298
20
-84.8
11
72.298
21
-85.8
0
LINE
8
BLACK
6
CONTINUOUS
10
71.798
20
-85.3
11
72.798
21
-85.3
0
LINE
8
BLACK
6
CONTINUOUS
10
74.838
20
-84.8
11
74.838
21
-85.8
0
LINE
8
BLACK
6
CONTINUOUS
10
74.338
20
-85.3
11
75.338
21
-85.3
0
LINE
8
BLACK
6
CONTINUOUS
10
44.0223
20
-68.4743
11
44.0223
21
-67.6257
0
LINE
8
BLACK
6
CONTINUOUS
10
44.0223
20
-67.6257
11
43.1737
21
-67.6257
0
LINE
8
BLACK
6
CONTINUOUS
10
43.1737
20
-67.6257
11
43.1737
21
-68.4743
0
LINE
8
BLACK
6
CONTINUOUS
10
43.1737
20
-68.4743
11
44.0223
21
-68.4743
0
LINE
8
BLACK
6
CONTINUOUS
10
44.0223
20
-71.0143
11
44.0223
21
-70.1657
0
LINE
8
BLACK
6
CONTINUOUS
10
44.0223
20
-70.1657
11
43.1737
21
-70.1657
0
LINE
8
BLACK
6
CONTINUOUS
10
43.1737
20
-70.1657
11
43.1737
21
-71.0143
0
LINE
8
BLACK
6
CONTINUOUS
10
43.1737
20
-71.0143
11
44.0223
21
-71.0143
0
LINE
8
BLACK
6
CONTINUOUS
10
44.0223
20
-86.2543
11
44.0223
21
-85.4057
0
LINE
8
BLACK
6
CONTINUOUS
10
44.0223
20
-85.4057
11
43.1737
21
-85.4057
0
LINE
8
BLACK
6
CONTINUOUS
10
43.1737
20
-85.4057
11
43.1737
21
-86.2543
0
LINE
8
BLACK
6
CONTINUOUS
10
43.1737
20
-86.2543
11
44.0223
21
-86.2543
0
LINE
8
BLACK
6
CONTINUOUS
10
44.0223
20
-91.3343
11
44.0223
21
-90.4857
0
LINE
8
BLACK
6
CONTINUOUS
10
44.0223
20
-90.4857
11
43.1737
21
-90.4857
0
LINE
8
BLACK
6
CONTINUOUS
10
43.1737
20
-90.4857
11
43.1737
21
-91.3343
0
LINE
8
BLACK
6
CONTINUOUS
10
43.1737
20
-91.3343
11
44.0223
21
-91.3343
0
LINE
8
BLACK
6
CONTINUOUS
10
46.0123
20
-66.8543
11
46.0123
21
-66.0057
0
LINE
8
BLACK
6
CONTINUOUS
10
46.0123
20
-66.0057
11
45.1637
21
-66.0057
0
LINE
8
BLACK
6
CONTINUOUS
10
45.1637
20
-66.0057
11
45.1637
21
-66.8543
0
LINE
8
BLACK
6
CONTINUOUS
10
45.1637
20
-66.8543
11
46.0123
21
-66.8543
0
LINE
8
BLACK
6
CONTINUOUS
10
59.2623
20
-68.4743
11
59.2623
21
-67.6257
0
LINE
8
BLACK
6
CONTINUOUS
10
59.2623
20
-67.6257
11
58.4137
21
-67.6257
0
LINE
8
BLACK
6
CONTINUOUS
10
58.4137
20
-67.6257
11
58.4137
21
-68.4743
0
LINE
8
BLACK
6
CONTINUOUS
10
58.4137
20
-68.4743
11
59.2623
21
-68.4743
0
LINE
8
BLACK
6
CONTINUOUS
10
59.2623
20
-71.0143
11
59.2623
21
-70.1657
0
LINE
8
BLACK
6
CONTINUOUS
10
59.2623
20
-70.1657
11
58.4137
21
-70.1657
0
LINE
8
BLACK
6
CONTINUOUS
10
58.4137
20
-70.1657
11
58.4137
21
-71.0143
0
LINE
8
BLACK
6
CONTINUOUS
10
58.4137
20
-71.0143
11
59.2623
21
-71.0143
0
LINE
8
BLACK
6
CONTINUOUS
10
59.2623
20
-73.5543
11
59.2623
21
-72.7057
0
LINE
8
BLACK
6
CONTINUOUS
10
59.2623
20
-72.7057
11
58.4137
21
-72.7057
0
LINE
8
BLACK
6
CONTINUOUS
10
58.4137
20
-72.7057
11
58.4137
21
-73.5543
0
LINE
8
BLACK
6
CONTINUOUS
10
58.4137
20
-73.5543
11
59.2623
21
-73.5543
0
LINE
8
BLACK
6
CONTINUOUS
10
59.2623
20
-86.2543
11
59.2623
21
-85.4057
0
LINE
8
BLACK
6
CONTINUOUS
10
59.2623
20
-85.4057
11
58.4137
21
-85.4057
0
LINE
8
BLACK
6
CONTINUOUS
10
58.4137
20
-85.4057
11
58.4137
21
-86.2543
0
LINE
8
BLACK
6
CONTINUOUS
10
58.4137
20
-86.2543
11
59.2623
21
-86.2543
0
LINE
8
BLACK
6
CONTINUOUS
10
59.2623
20
-91.3343
11
59.2623
21
-90.4857
0
LINE
8
BLACK
6
CONTINUOUS
10
59.2623
20
-90.4857
11
58.4137
21
-90.4857
0
LINE
8
BLACK
6
CONTINUOUS
10
58.4137
20
-90.4857
11
58.4137
21
-91.3343
0
LINE
8
BLACK
6
CONTINUOUS
10
58.4137
20
-91.3343
11
59.2623
21
-91.3343
0
LINE
8
BLACK
6
CONTINUOUS
10
66.7223
20
-51.1743
11
66.7223
21
-50.3257
0
LINE
8
BLACK
6
CONTINUOUS
10
66.7223
20
-50.3257
11
65.8737
21
-50.3257
0
LINE
8
BLACK
6
CONTINUOUS
10
65.8737
20
-50.3257
11
65.8737
21
-51.1743
0
LINE
8
BLACK
6
CONTINUOUS
10
65.8737
20
-51.1743
11
66.7223
21
-51.1743
0
LINE
8
BLACK
6
CONTINUOUS
10
66.7223
20
-53.7143
11
66.7223
21
-52.8657
0
LINE
8
BLACK
6
CONTINUOUS
10
66.7223
20
-52.8657
11
65.8737
21
-52.8657
0
LINE
8
BLACK
6
CONTINUOUS
10
65.8737
20
-52.8657
11
65.8737
21
-53.7143
0
LINE
8
BLACK
6
CONTINUOUS
10
65.8737
20
-53.7143
11
66.7223
21
-53.7143
0
LINE
8
BLACK
6
CONTINUOUS
10
66.7223
20
-68.9543
11
66.7223
21
-68.1057
0
LINE
8
BLACK
6
CONTINUOUS
10
66.7223
20
-68.1057
11
65.8737
21
-68.1057
0
LINE
8
BLACK
6
CONTINUOUS
10
65.8737
20
-68.1057
11
65.8737
21
-68.9543
0
LINE
8
BLACK
6
CONTINUOUS
10
65.8737
20
-68.9543
11
66.7223
21
-68.9543
0
LINE
8
BLACK
6
CONTINUOUS
10
66.7223
20
-71.4943
11
66.7223
21
-70.6457
0
LINE
8
BLACK
6
CONTINUOUS
10
66.7223
20
-70.6457
11
65.8737
21
-70.6457
0
LINE
8
BLACK
6
CONTINUOUS
10
65.8737
20
-70.6457
11
65.8737
21
-71.4943
0
LINE
8
BLACK
6
CONTINUOUS
10
65.8737
20
-71.4943
11
66.7223
21
-71.4943
0
LINE
8
BLACK
6
CONTINUOUS
10
66.7223
20
-74.0343
11
66.7223
21
-73.1857
0
LINE
8
BLACK
6
CONTINUOUS
10
66.7223
20
-73.1857
11
65.8737
21
-73.1857
0
LINE
8
BLACK
6
CONTINUOUS
10
65.8737
20
-73.1857
11
65.8737
21
-74.0343
0
LINE
8
BLACK
6
CONTINUOUS
10
65.8737
20
-74.0343
11
66.7223
21
-74.0343
0
LINE
8
BLACK
6
CONTINUOUS
10
68.7123
20
-49.5543
11
68.7123
21
-48.7057
0
LINE
8
BLACK
6
CONTINUOUS
10
68.7123
20
-48.7057
11
67.8637
21
-48.7057
0
LINE
8
BLACK
6
CONTINUOUS
10
67.8637
20
-48.7057
11
67.8637
21
-49.5543
0
LINE
8
BLACK
6
CONTINUOUS
10
67.8637
20
-49.5543
11
68.7123
21
-49.5543
0
LINE
8
BLACK
6
CONTINUOUS
10
81.9623
20
-51.1743
11
81.9623
21
-50.3257
0
LINE
8
BLACK
6
CONTINUOUS
10
81.9623
20
-50.3257
11
81.1137
21
-50.3257
0
LINE
8
BLACK
6
CONTINUOUS
10
81.1137
20
-50.3257
11
81.1137
21
-51.1743
0
LINE
8
BLACK
6
CONTINUOUS
10
81.1137
20
-51.1743
11
81.9623
21
-51.1743
0
LINE
8
BLACK
6
CONTINUOUS
10
81.9623
20
-53.7143
11
81.9623
21
-52.8657
0
LINE
8
BLACK
6
CONTINUOUS
10
81.9623
20
-52.8657
11
81.1137
21
-52.8657
0
LINE
8
BLACK
6
CONTINUOUS
10
81.1137
20
-52.8657
11
81.1137
21
-53.7143
0
LINE
8
BLACK
6
CONTINUOUS
10
81.1137
20
-53.7143
11
81.9623
21
-53.7143
0
LINE
8
BLACK
6
CONTINUOUS
10
81.9623
20
-56.2543
11
81.9623
21
-55.4057
0
LINE
8
BLACK
6
CONTINUOUS
10
81.9623
20
-55.4057
11
81.1137
21
-55.4057
0
LINE
8
BLACK
6
CONTINUOUS
10
81.1137
20
-55.4057
11
81.1137
21
-56.2543
0
LINE
8
BLACK
6
CONTINUOUS
10
81.1137
20
-56.2543
11
81.9623
21
-56.2543
0
LINE
8
BLACK
6
CONTINUOUS
10
81.9623
20
-68.9543
11
81.9623
21
-68.1057
0
LINE
8
BLACK
6
CONTINUOUS
10
81.9623
20
-68.1057
11
81.1137
21
-68.1057
0
LINE
8
BLACK
6
CONTINUOUS
10
81.1137
20
-68.1057
11
81.1137
21
-68.9543
0
LINE
8
BLACK
6
CONTINUOUS
10
81.1137
20
-68.9543
11
81.9623
21
-68.9543
0
LINE
8
BLACK
6
CONTINUOUS
10
81.9623
20
-74.0343
11
81.9623
21
-73.1857
0
LINE
8
BLACK
6
CONTINUOUS
10
81.9623
20
-73.1857
11
81.1137
21
-73.1857
0
LINE
8
BLACK
6
CONTINUOUS
10
81.1137
20
-73.1857
11
81.1137
21
-74.0343
0
LINE
8
BLACK
6
CONTINUOUS
10
81.1137
20
-74.0343
11
81.9623
21
-74.0343
0
LINE
8
BLACK
6
CONTINUOUS
10
48.798
20
-50.5
11
49.548
21
-49.75
0
LINE
8
BLACK
6
CONTINUOUS
10
49.548
20
-49.75
11
48.798
21
-49
0
LINE
8
BLACK
6
CONTINUOUS
10
48.798
20
-49
11
48.048
21
-49.75
0
LINE
8
BLACK
6
CONTINUOUS
10
48.048
20
-49.75
11
48.798
21
-50.5
0
LINE
8
BLACK
6
CONTINUOUS
10
48.798
20
-61.2
11
49.548
21
-60.45
0
LINE
8
BLACK
6
CONTINUOUS
10
49.548
20
-60.45
11
48.798
21
-59.7
0
LINE
8
BLACK
6
CONTINUOUS
10
48.798
20
-59.7
11
48.048
21
-60.45
0
LINE
8
BLACK
6
CONTINUOUS
10
48.048
20
-60.45
11
48.798
21
-61.2
0
LINE
8
BLACK
6
CONTINUOUS
10
59.498
20
-50.5
11
60.248
21
-49.75
0
LINE
8
BLACK
6
CONTINUOUS
10
60.248
20
-49.75
11
59.498
21
-49
0
LINE
8
BLACK
6
CONTINUOUS
10
59.498
20
-49
11
58.748
21
-49.75
0
LINE
8
BLACK
6
CONTINUOUS
10
58.748
20
-49.75
11
59.498
21
-50.5
0
LINE
8
BLACK
6
CONTINUOUS
10
59.498
20
-61.2
11
60.248
21
-60.45
0
LINE
8
BLACK
6
CONTINUOUS
10
60.248
20
-60.45
11
59.498
21
-59.7
0
LINE
8
BLACK
6
CONTINUOUS
10
59.498
20
-59.7
11
58.748
21
-60.45
0
LINE
8
BLACK
6
CONTINUOUS
10
58.748
20
-60.45
11
59.498
21
-61.2
0
LINE
8
BLACK
6
CONTINUOUS
10
72.648
20
-128.6
11
74.948
21
-130.9
0
LINE
8
BLACK
6
CONTINUOUS
10
74.948
20
-128.6
11
72.648
21
-130.9
0
CIRCLE
8
BLACK
10
73.798
20
-129.75
40
1.15
0
LINE
8
BLACK
6
CONTINUOUS
10
93.648
20
-128.6
11
95.948
21
-130.9
0
LINE
8
BLACK
6
CONTINUOUS
10
95.948
20
-128.6
11
93.648
21
-130.9
0
CIRCLE
8
BLACK
10
94.798
20
-129.75
40
1.15
0
LINE
8
BLACK
6
CONTINUOUS
10
86.1481
20
-39.2001
11
88.4481
21
-41.5001
0
LINE
8
BLACK
6
CONTINUOUS
10
88.4481
20
-39.2001
11
86.1481
21
-41.5001
0
CIRCLE
8
BLACK
10
87.2981
20
-40.3501
40
1.15
0
LINE
8
BLACK
6
CONTINUOUS
10
99.1481
20
-39.2001
11
101.448
21
-41.5001
0
LINE
8
BLACK
6
CONTINUOUS
10
101.448
20
-39.2001
11
99.1481
21
-41.5001
0
CIRCLE
8
BLACK
10
100.298
20
-40.3501
40
1.15
0
LINE
8
BLACK
6
CONTINUOUS
10
47.7481
20
-38.1001
11
50.0481
21
-40.4001
0
LINE
8
BLACK
6
CONTINUOUS
10
50.0481
20
-38.1001
11
47.7481
21
-40.4001
0
CIRCLE
8
BLACK
10
48.8981
20
-39.2501
40
1.15
0
LINE
8
BLACK
6
CONTINUOUS
10
58.798
20
-38.1001
11
61.098
21
-40.4001
0
LINE
8
BLACK
6
CONTINUOUS
10
61.098
20
-38.1001
11
58.798
21
-40.4001
0
CIRCLE
8
BLACK
10
59.948
20
-39.2501
40
1.15
0
LINE
8
BLACK
6
CONTINUOUS
10
36.1123
20
-139.757
11
36.1123
21
-136.757
0
LINE
8
BLACK
6
CONTINUOUS
10
36.1123
20
-136.757
11
36.8266
21
-136.757
0
LINE
8
BLACK
6
CONTINUOUS
10
36.8266
20
-136.757
11
37.2551
21
-136.9
0
LINE
8
BLACK
6
CONTINUOUS
10
37.2551
20
-136.9
11
37.5409
21
-137.186
0
LINE
8
BLACK
6
CONTINUOUS
10
37.5409
20
-137.186
11
37.6837
21
-137.471
0
LINE
8
BLACK
6
CONTINUOUS
10
37.6837
20
-137.471
11
37.8266
21
-138.043
0
LINE
8
BLACK
6
CONTINUOUS
10
37.8266
20
-138.043
11
37.8266
21
-138.471
0
LINE
8
BLACK
6
CONTINUOUS
10
37.8266
20
-138.471
11
37.6837
21
-139.043
0
LINE
8
BLACK
6
CONTINUOUS
10
37.6837
20
-139.043
11
37.5409
21
-139.329
0
LINE
8
BLACK
6
CONTINUOUS
10
37.5409
20
-139.329
11
37.2551
21
-139.614
0
LINE
8
BLACK
6
CONTINUOUS
10
37.2551
20
-139.614
11
36.8266
21
-139.757
0
LINE
8
BLACK
6
CONTINUOUS
10
36.8266
20
-139.757
11
36.1123
21
-139.757
0
LINE
8
BLACK
6
CONTINUOUS
10
39.1123
20
-139.757
11
39.1123
21
-137.757
0
LINE
8
BLACK
6
CONTINUOUS
10
39.1123
20
-138.329
11
39.2551
21
-138.043
0
LINE
8
BLACK
6
CONTINUOUS
10
39.2551
20
-138.043
11
39.398
21
-137.9
0
LINE
8
BLACK
6
CONTINUOUS
10
39.398
20
-137.9
11
39.6837
21
-137.757
0
LINE
8
BLACK
6
CONTINUOUS
10
39.6837
20
-137.757
11
39.9694
21
-137.757
0
LINE
8
BLACK
6
CONTINUOUS
10
40.9694
20
-139.757
11
40.9694
21
-137.757
0
LINE
8
BLACK
6
CONTINUOUS
10
40.9694
20
-136.757
11
40.8266
21
-136.9
0
LINE
8
BLACK
6
CONTINUOUS
10
40.8266
20
-136.9
11
40.9694
21
-137.043
0
LINE
8
BLACK
6
CONTINUOUS
10
40.9694
20
-137.043
11
41.1123
21
-136.9
0
LINE
8
BLACK
6
CONTINUOUS
10
41.1123
20
-136.9
11
40.9694
21
-136.757
0
LINE
8
BLACK
6
CONTINUOUS
10
40.9694
20
-136.757
11
40.9694
21
-137.043
0
LINE
8
BLACK
6
CONTINUOUS
10
42.8266
20
-139.757
11
42.5409
21
-139.614
0
LINE
8
BLACK
6
CONTINUOUS
10
42.5409
20
-139.614
11
42.398
21
-139.329
0
LINE
8
BLACK
6
CONTINUOUS
10
42.398
20
-139.329
11
42.398
21
-136.757
0
LINE
8
BLACK
6
CONTINUOUS
10
44.398
20
-139.757
11
44.1123
21
-139.614
0
LINE
8
BLACK
6
CONTINUOUS
10
44.1123
20
-139.614
11
43.9694
21
-139.329
0
LINE
8
BLACK
6
CONTINUOUS
10
43.9694
20
-139.329
11
43.9694
21
-136.757
0
LINE
8
BLACK
6
CONTINUOUS
10
47.8266
20
-139.757
11
47.8266
21
-136.757
0
LINE
8
BLACK
6
CONTINUOUS
10
47.8266
20
-136.757
11
48.8266
21
-138.9
0
LINE
8
BLACK
6
CONTINUOUS
10
48.8266
20
-138.9
11
49.8266
21
-136.757
0
LINE
8
BLACK
6
CONTINUOUS
10
49.8266
20
-136.757
11
49.8266
21
-139.757
0
LINE
8
BLACK
6
CONTINUOUS
10
52.5409
20
-139.757
11
52.5409
21
-138.186
0
LINE
8
BLACK
6
CONTINUOUS
10
52.5409
20
-138.186
11
52.398
21
-137.9
0
LINE
8
BLACK
6
CONTINUOUS
10
52.398
20
-137.9
11
52.1123
21
-137.757
0
LINE
8
BLACK
6
CONTINUOUS
10
52.1123
20
-137.757
11
51.5409
21
-137.757
0
LINE
8
BLACK
6
CONTINUOUS
10
51.5409
20
-137.757
11
51.2551
21
-137.9
0
LINE
8
BLACK
6
CONTINUOUS
10
52.5409
20
-139.614
11
52.2551
21
-139.757
0
LINE
8
BLACK
6
CONTINUOUS
10
52.2551
20
-139.757
11
51.5409
21
-139.757
0
LINE
8
BLACK
6
CONTINUOUS
10
51.5409
20
-139.757
11
51.2551
21
-139.614
0
LINE
8
BLACK
6
CONTINUOUS
10
51.2551
20
-139.614
11
51.1123
21
-139.329
0
LINE
8
BLACK
6
CONTINUOUS
10
51.1123
20
-139.329
11
51.1123
21
-139.043
0
LINE
8
BLACK
6
CONTINUOUS
10
51.1123
20
-139.043
11
51.2551
21
-138.757
0
LINE
8
BLACK
6
CONTINUOUS
10
51.2551
20
-138.757
11
51.5409
21
-138.614
0
LINE
8
BLACK
6
CONTINUOUS
10
51.5409
20
-138.614
11
52.2551
21
-138.614
0
LINE
8
BLACK
6
CONTINUOUS
10
52.2551
20
-138.614
11
52.5409
21
-138.471
0
LINE
8
BLACK
6
CONTINUOUS
10
53.9694
20
-137.757
11
53.9694
21
-140.757
0
LINE
8
BLACK
6
CONTINUOUS
10
53.9694
20
-137.9
11
54.2551
21
-137.757
0
LINE
8
BLACK
6
CONTINUOUS
10
54.2551
20
-137.757
11
54.8266
21
-137.757
0
LINE
8
BLACK
6
CONTINUOUS
10
54.8266
20
-137.757
11
55.1123
21
-137.9
0
LINE
8
BLACK
6
CONTINUOUS
10
55.1123
20
-137.9
11
55.2551
21
-138.043
0
LINE
8
BLACK
6
CONTINUOUS
10
55.2551
20
-138.043
11
55.398
21
-138.329
0
LINE
8
BLACK
6
CONTINUOUS
10
55.398
20
-138.329
11
55.398
21
-139.186
0
LINE
8
BLACK
6
CONTINUOUS
10
55.398
20
-139.186
11
55.2551
21
-139.471
0
LINE
8
BLACK
6
CONTINUOUS
10
55.2551
20
-139.471
11
55.1123
21
-139.614
0
LINE
8
BLACK
6
CONTINUOUS
10
55.1123
20
-139.614
11
54.8266
21
-139.757
0
LINE
8
BLACK
6
CONTINUOUS
10
54.8266
20
-139.757
11
54.2551
21
-139.757
0
LINE
8
BLACK
6
CONTINUOUS
10
54.2551
20
-139.757
11
53.9694
21
-139.614
0
LINE
8
BLACK
6
CONTINUOUS
10
56.6837
20
-139.471
11
56.8266
21
-139.614
0
LINE
8
BLACK
6
CONTINUOUS
10
56.8266
20
-139.614
11
56.6837
21
-139.757
0
LINE
8
BLACK
6
CONTINUOUS
10
56.6837
20
-139.757
11
56.5409
21
-139.614
0
LINE
8
BLACK
6
CONTINUOUS
10
56.5409
20
-139.614
11
56.6837
21
-139.471
0
LINE
8
BLACK
6
CONTINUOUS
10
56.6837
20
-139.471
11
56.6837
21
-139.757
0
LINE
8
BLACK
6
CONTINUOUS
10
56.6837
20
-137.9
11
56.8266
21
-138.043
0
LINE
8
BLACK
6
CONTINUOUS
10
56.8266
20
-138.043
11
56.6837
21
-138.186
0
LINE
8
BLACK
6
CONTINUOUS
10
56.6837
20
-138.186
11
56.5409
21
-138.043
0
LINE
8
BLACK
6
CONTINUOUS
10
56.5409
20
-138.043
11
56.6837
21
-137.9
0
LINE
8
BLACK
6
CONTINUOUS
10
56.6837
20
-137.9
11
56.6837
21
-138.186
0
LINE
8
BLACK
6
CONTINUOUS
10
32.748
20
-144.45
11
33.248
21
-144.95
0
LINE
8
BLACK
6
CONTINUOUS
10
33.248
20
-144.45
11
32.748
21
-144.95
0
LINE
8
BLACK
6
CONTINUOUS
10
36.6837
20
-143.057
11
36.9694
21
-143.057
0
LINE
8
BLACK
6
CONTINUOUS
10
36.9694
20
-143.057
11
37.2551
21
-143.2
0
LINE
8
BLACK
6
CONTINUOUS
10
37.2551
20
-143.2
11
37.398
21
-143.343
0
LINE
8
BLACK
6
CONTINUOUS
10
37.398
20
-143.343
11
37.5409
21
-143.629
0
LINE
8
BLACK
6
CONTINUOUS
10
37.5409
20
-143.629
11
37.6837
21
-144.2
0
LINE
8
BLACK
6
CONTINUOUS
10
37.6837
20
-144.2
11
37.6837
21
-144.914
0
LINE
8
BLACK
6
CONTINUOUS
10
37.6837
20
-144.914
11
37.5409
21
-145.486
0
LINE
8
BLACK
6
CONTINUOUS
10
37.5409
20
-145.486
11
37.398
21
-145.771
0
LINE
8
BLACK
6
CONTINUOUS
10
37.398
20
-145.771
11
37.2551
21
-145.914
0
LINE
8
BLACK
6
CONTINUOUS
10
37.2551
20
-145.914
11
36.9694
21
-146.057
0
LINE
8
BLACK
6
CONTINUOUS
10
36.9694
20
-146.057
11
36.6837
21
-146.057
0
LINE
8
BLACK
6
CONTINUOUS
10
36.6837
20
-146.057
11
36.398
21
-145.914
0
LINE
8
BLACK
6
CONTINUOUS
10
36.398
20
-145.914
11
36.2551
21
-145.771
0
LINE
8
BLACK
6
CONTINUOUS
10
36.2551
20
-145.771
11
36.1123
21
-145.486
0
LINE
8
BLACK
6
CONTINUOUS
10
36.1123
20
-145.486
11
35.9694
21
-144.914
0
LINE
8
BLACK
6
CONTINUOUS
10
35.9694
20
-144.914
11
35.9694
21
-144.2
0
LINE
8
BLACK
6
CONTINUOUS
10
35.9694
20
-144.2
11
36.1123
21
-143.629
0
LINE
8
BLACK
6
CONTINUOUS
10
36.1123
20
-143.629
11
36.2551
21
-143.343
0
LINE
8
BLACK
6
CONTINUOUS
10
36.2551
20
-143.343
11
36.398
21
-143.2
0
LINE
8
BLACK
6
CONTINUOUS
10
36.398
20
-143.2
11
36.6837
21
-143.057
0
LINE
8
BLACK
6
CONTINUOUS
10
38.9694
20
-145.771
11
39.1123
21
-145.914
0
LINE
8
BLACK
6
CONTINUOUS
10
39.1123
20
-145.914
11
38.9694
21
-146.057
0
LINE
8
BLACK
6
CONTINUOUS
10
38.9694
20
-146.057
11
38.8266
21
-145.914
0
LINE
8
BLACK
6
CONTINUOUS
10
38.8266
20
-145.914
11
38.9694
21
-145.771
0
LINE
8
BLACK
6
CONTINUOUS
10
38.9694
20
-145.771
11
38.9694
21
-146.057
0
LINE
8
BLACK
6
CONTINUOUS
10
41.8266
20
-143.057
11
40.398
21
-143.057
0
LINE
8
BLACK
6
CONTINUOUS
10
40.398
20
-143.057
11
40.2551
21
-144.486
0
LINE
8
BLACK
6
CONTINUOUS
10
40.2551
20
-144.486
11
40.398
21
-144.343
0
LINE
8
BLACK
6
CONTINUOUS
10
40.398
20
-144.343
11
40.6837
21
-144.2
0
LINE
8
BLACK
6
CONTINUOUS
10
40.6837
20
-144.2
11
41.398
21
-144.2
0
LINE
8
BLACK
6
CONTINUOUS
10
41.398
20
-144.2
11
41.6837
21
-144.343
0
LINE
8
BLACK
6
CONTINUOUS
10
41.6837
20
-144.343
11
41.8266
21
-144.486
0
LINE
8
BLACK
6
CONTINUOUS
10
41.8266
20
-144.486
11
41.9694
21
-144.771
0
LINE
8
BLACK
6
CONTINUOUS
10
41.9694
20
-144.771
11
41.9694
21
-145.486
0
LINE
8
BLACK
6
CONTINUOUS
10
41.9694
20
-145.486
11
41.8266
21
-145.771
0
LINE
8
BLACK
6
CONTINUOUS
10
41.8266
20
-145.771
11
41.6837
21
-145.914
0
LINE
8
BLACK
6
CONTINUOUS
10
41.6837
20
-145.914
11
41.398
21
-146.057
0
LINE
8
BLACK
6
CONTINUOUS
10
41.398
20
-146.057
11
40.6837
21
-146.057
0
LINE
8
BLACK
6
CONTINUOUS
10
40.6837
20
-146.057
11
40.398
21
-145.914
0
LINE
8
BLACK
6
CONTINUOUS
10
40.398
20
-145.914
11
40.2551
21
-145.771
0
LINE
8
BLACK
6
CONTINUOUS
10
43.8266
20
-143.057
11
44.1123
21
-143.057
0
LINE
8
BLACK
6
CONTINUOUS
10
44.1123
20
-143.057
11
44.398
21
-143.2
0
LINE
8
BLACK
6
CONTINUOUS
10
44.398
20
-143.2
11
44.5409
21
-143.343
0
LINE
8
BLACK
6
CONTINUOUS
10
44.5409
20
-143.343
11
44.6837
21
-143.629
0
LINE
8
BLACK
6
CONTINUOUS
10
44.6837
20
-143.629
11
44.8266
21
-144.2
0
LINE
8
BLACK
6
CONTINUOUS
10
44.8266
20
-144.2
11
44.8266
21
-144.914
0
LINE
8
BLACK
6
CONTINUOUS
10
44.8266
20
-144.914
11
44.6837
21
-145.486
0
LINE
8
BLACK
6
CONTINUOUS
10
44.6837
20
-145.486
11
44.5409
21
-145.771
0
LINE
8
BLACK
6
CONTINUOUS
10
44.5409
20
-145.771
11
44.398
21
-145.914
0
LINE
8
BLACK
6
CONTINUOUS
10
44.398
20
-145.914
11
44.1123
21
-146.057
0
LINE
8
BLACK
6
CONTINUOUS
10
44.1123
20
-146.057
11
43.8266
21
-146.057
0
LINE
8
BLACK
6
CONTINUOUS
10
43.8266
20
-146.057
11
43.5409
21
-145.914
0
LINE
8
BLACK
6
CONTINUOUS
10
43.5409
20
-145.914
11
43.398
21
-145.771
0
LINE
8
BLACK
6
CONTINUOUS
10
43.398
20
-145.771
11
43.2551
21
-145.486
0
LINE
8
BLACK
6
CONTINUOUS
10
43.2551
20
-145.486
11
43.1123
21
-144.914
0
LINE
8
BLACK
6
CONTINUOUS
10
43.1123
20
-144.914
11
43.1123
21
-144.2
0
LINE
8
BLACK
6
CONTINUOUS
10
43.1123
20
-144.2
11
43.2551
21
-143.629
0
LINE
8
BLACK
6
CONTINUOUS
10
43.2551
20
-143.629
11
43.398
21
-143.343
0
LINE
8
BLACK
6
CONTINUOUS
10
43.398
20
-143.343
11
43.5409
21
-143.2
0
LINE
8
BLACK
6
CONTINUOUS
10
43.5409
20
-143.2
11
43.8266
21
-143.057
0
LINE
8
BLACK
6
CONTINUOUS
10
46.1123
20
-146.057
11
46.1123
21
-144.057
0
LINE
8
BLACK
6
CONTINUOUS
10
46.1123
20
-144.343
11
46.2551
21
-144.2
0
LINE
8
BLACK
6
CONTINUOUS
10
46.2551
20
-144.2
11
46.5409
21
-144.057
0
LINE
8
BLACK
6
CONTINUOUS
10
46.5409
20
-144.057
11
46.9694
21
-144.057
0
LINE
8
BLACK
6
CONTINUOUS
10
46.9694
20
-144.057
11
47.2551
21
-144.2
0
LINE
8
BLACK
6
CONTINUOUS
10
47.2551
20
-144.2
11
47.398
21
-144.486
0
LINE
8
BLACK
6
CONTINUOUS
10
47.398
20
-144.486
11
47.398
21
-146.057
0
LINE
8
BLACK
6
CONTINUOUS
10
47.398
20
-144.486
11
47.5409
21
-144.2
0
LINE
8
BLACK
6
CONTINUOUS
10
47.5409
20
-144.2
11
47.8266
21
-144.057
0
LINE
8
BLACK
6
CONTINUOUS
10
47.8266
20
-144.057
11
48.2551
21
-144.057
0
LINE
8
BLACK
6
CONTINUOUS
10
48.2551
20
-144.057
11
48.5409
21
-144.2
0
LINE
8
BLACK
6
CONTINUOUS
10
48.5409
20
-144.2
11
48.6837
21
-144.486
0
LINE
8
BLACK
6
CONTINUOUS
10
48.6837
20
-144.486
11
48.6837
21
-146.057
0
LINE
8
BLACK
6
CONTINUOUS
10
50.1123
20
-146.057
11
50.1123
21
-144.057
0
LINE
8
BLACK
6
CONTINUOUS
10
50.1123
20
-144.343
11
50.2551
21
-144.2
0
LINE
8
BLACK
6
CONTINUOUS
10
50.2551
20
-144.2
11
50.5409
21
-144.057
0
LINE
8
BLACK
6
CONTINUOUS
10
50.5409
20
-144.057
11
50.9694
21
-144.057
0
LINE
8
BLACK
6
CONTINUOUS
10
50.9694
20
-144.057
11
51.2551
21
-144.2
0
LINE
8
BLACK
6
CONTINUOUS
10
51.2551
20
-144.2
11
51.398
21
-144.486
0
LINE
8
BLACK
6
CONTINUOUS
10
51.398
20
-144.486
11
51.398
21
-146.057
0
LINE
8
BLACK
6
CONTINUOUS
10
51.398
20
-144.486
11
51.5409
21
-144.2
0
LINE
8
BLACK
6
CONTINUOUS
10
51.5409
20
-144.2
11
51.8266
21
-144.057
0
LINE
8
BLACK
6
CONTINUOUS
10
51.8266
20
-144.057
11
52.2551
21
-144.057
0
LINE
8
BLACK
6
CONTINUOUS
10
52.2551
20
-144.057
11
52.5409
21
-144.2
0
LINE
8
BLACK
6
CONTINUOUS
10
52.5409
20
-144.2
11
52.6837
21
-144.486
0
LINE
8
BLACK
6
CONTINUOUS
10
52.6837
20
-144.486
11
52.6837
21
-146.057
0
LINE
8
BLACK
6
CONTINUOUS
10
58.5409
20
-142.914
11
55.9694
21
-146.771
0
LINE
8
BLACK
6
CONTINUOUS
10
62.398
20
-143.057
11
62.6837
21
-143.057
0
LINE
8
BLACK
6
CONTINUOUS
10
62.6837
20
-143.057
11
62.9694
21
-143.2
0
LINE
8
BLACK
6
CONTINUOUS
10
62.9694
20
-143.2
11
63.1123
21
-143.343
0
LINE
8
BLACK
6
CONTINUOUS
10
63.1123
20
-143.343
11
63.2551
21
-143.629
0
LINE
8
BLACK
6
CONTINUOUS
10
63.2551
20
-143.629
11
63.398
21
-144.2
0
LINE
8
BLACK
6
CONTINUOUS
10
63.398
20
-144.2
11
63.398
21
-144.914
0
LINE
8
BLACK
6
CONTINUOUS
10
63.398
20
-144.914
11
63.2551
21
-145.486
0
LINE
8
BLACK
6
CONTINUOUS
10
63.2551
20
-145.486
11
63.1123
21
-145.771
0
LINE
8
BLACK
6
CONTINUOUS
10
63.1123
20
-145.771
11
62.9694
21
-145.914
0
LINE
8
BLACK
6
CONTINUOUS
10
62.9694
20
-145.914
11
62.6837
21
-146.057
0
LINE
8
BLACK
6
CONTINUOUS
10
62.6837
20
-146.057
11
62.398
21
-146.057
0
LINE
8
BLACK
6
CONTINUOUS
10
62.398
20
-146.057
11
62.1123
21
-145.914
0
LINE
8
BLACK
6
CONTINUOUS
10
62.1123
20
-145.914
11
61.9694
21
-145.771
0
LINE
8
BLACK
6
CONTINUOUS
10
61.9694
20
-145.771
11
61.8266
21
-145.486
0
LINE
8
BLACK
6
CONTINUOUS
10
61.8266
20
-145.486
11
61.6837
21
-144.914
0
LINE
8
BLACK
6
CONTINUOUS
10
61.6837
20
-144.914
11
61.6837
21
-144.2
0
LINE
8
BLACK
6
CONTINUOUS
10
61.6837
20
-144.2
11
61.8266
21
-143.629
0
LINE
8
BLACK
6
CONTINUOUS
10
61.8266
20
-143.629
11
61.9694
21
-143.343
0
LINE
8
BLACK
6
CONTINUOUS
10
61.9694
20
-143.343
11
62.1123
21
-143.2
0
LINE
8
BLACK
6
CONTINUOUS
10
62.1123
20
-143.2
11
62.398
21
-143.057
0
LINE
8
BLACK
6
CONTINUOUS
10
64.6837
20
-145.771
11
64.8266
21
-145.914
0
LINE
8
BLACK
6
CONTINUOUS
10
64.8266
20
-145.914
11
64.6837
21
-146.057
0
LINE
8
BLACK
6
CONTINUOUS
10
64.6837
20
-146.057
11
64.5409
21
-145.914
0
LINE
8
BLACK
6
CONTINUOUS
10
64.5409
20
-145.914
11
64.6837
21
-145.771
0
LINE
8
BLACK
6
CONTINUOUS
10
64.6837
20
-145.771
11
64.6837
21
-146.057
0
LINE
8
BLACK
6
CONTINUOUS
10
66.6837
20
-143.057
11
66.9694
21
-143.057
0
LINE
8
BLACK
6
CONTINUOUS
10
66.9694
20
-143.057
11
67.2551
21
-143.2
0
LINE
8
BLACK
6
CONTINUOUS
10
67.2551
20
-143.2
11
67.398
21
-143.343
0
LINE
8
BLACK
6
CONTINUOUS
10
67.398
20
-143.343
11
67.5409
21
-143.629
0
LINE
8
BLACK
6
CONTINUOUS
10
67.5409
20
-143.629
11
67.6837
21
-144.2
0
LINE
8
BLACK
6
CONTINUOUS
10
67.6837
20
-144.2
11
67.6837
21
-144.914
0
LINE
8
BLACK
6
CONTINUOUS
10
67.6837
20
-144.914
11
67.5409
21
-145.486
0
LINE
8
BLACK
6
CONTINUOUS
10
67.5409
20
-145.486
11
67.398
21
-145.771
0
LINE
8
BLACK
6
CONTINUOUS
10
67.398
20
-145.771
11
67.2551
21
-145.914
0
LINE
8
BLACK
6
CONTINUOUS
10
67.2551
20
-145.914
11
66.9694
21
-146.057
0
LINE
8
BLACK
6
CONTINUOUS
10
66.9694
20
-146.057
11
66.6837
21
-146.057
0
LINE
8
BLACK
6
CONTINUOUS
10
66.6837
20
-146.057
11
66.398
21
-145.914
0
LINE
8
BLACK
6
CONTINUOUS
10
66.398
20
-145.914
11
66.2551
21
-145.771
0
LINE
8
BLACK
6
CONTINUOUS
10
66.2551
20
-145.771
11
66.1123
21
-145.486
0
LINE
8
BLACK
6
CONTINUOUS
10
66.1123
20
-145.486
11
65.9694
21
-144.914
0
LINE
8
BLACK
6
CONTINUOUS
10
65.9694
20
-144.914
11
65.9694
21
-144.2
0
LINE
8
BLACK
6
CONTINUOUS
10
65.9694
20
-144.2
11
66.1123
21
-143.629
0
LINE
8
BLACK
6
CONTINUOUS
10
66.1123
20
-143.629
11
66.2551
21
-143.343
0
LINE
8
BLACK
6
CONTINUOUS
10
66.2551
20
-143.343
11
66.398
21
-143.2
0
LINE
8
BLACK
6
CONTINUOUS
10
66.398
20
-143.2
11
66.6837
21
-143.057
0
LINE
8
BLACK
6
CONTINUOUS
10
68.8266
20
-143.343
11
68.9694
21
-143.2
0
LINE
8
BLACK
6
CONTINUOUS
10
68.9694
20
-143.2
11
69.2551
21
-143.057
0
LINE
8
BLACK
6
CONTINUOUS
10
69.2551
20
-143.057
11
69.9694
21
-143.057
0
LINE
8
BLACK
6
CONTINUOUS
10
69.9694
20
-143.057
11
70.2551
21
-143.2
0
LINE
8
BLACK
6
CONTINUOUS
10
70.2551
20
-143.2
11
70.398
21
-143.343
0
LINE
8
BLACK
6
CONTINUOUS
10
70.398
20
-143.343
11
70.5409
21
-143.629
0
LINE
8
BLACK
6
CONTINUOUS
10
70.5409
20
-143.629
11
70.5409
21
-143.914
0
LINE
8
BLACK
6
CONTINUOUS
10
70.5409
20
-143.914
11
70.398
21
-144.343
0
LINE
8
BLACK
6
CONTINUOUS
10
70.398
20
-144.343
11
68.6837
21
-146.057
0
LINE
8
BLACK
6
CONTINUOUS
10
68.6837
20
-146.057
11
70.5409
21
-146.057
0
LINE
8
BLACK
6
CONTINUOUS
10
72.398
20
-143.057
11
72.6837
21
-143.057
0
LINE
8
BLACK
6
CONTINUOUS
10
72.6837
20
-143.057
11
72.9694
21
-143.2
0
LINE
8
BLACK
6
CONTINUOUS
10
72.9694
20
-143.2
11
73.1123
21
-143.343
0
LINE
8
BLACK
6
CONTINUOUS
10
73.1123
20
-143.343
11
73.2551
21
-143.629
0
LINE
8
BLACK
6
CONTINUOUS
10
73.2551
20
-143.629
11
73.398
21
-144.2
0
LINE
8
BLACK
6
CONTINUOUS
10
73.398
20
-144.2
11
73.398
21
-144.914
0
LINE
8
BLACK
6
CONTINUOUS
10
73.398
20
-144.914
11
73.2551
21
-145.486
0
LINE
8
BLACK
6
CONTINUOUS
10
73.2551
20
-145.486
11
73.1123
21
-145.771
0
LINE
8
BLACK
6
CONTINUOUS
10
73.1123
20
-145.771
11
72.9694
21
-145.914
0
LINE
8
BLACK
6
CONTINUOUS
10
72.9694
20
-145.914
11
72.6837
21
-146.057
0
LINE
8
BLACK
6
CONTINUOUS
10
72.6837
20
-146.057
11
72.398
21
-146.057
0
LINE
8
BLACK
6
CONTINUOUS
10
72.398
20
-146.057
11
72.1123
21
-145.914
0
LINE
8
BLACK
6
CONTINUOUS
10
72.1123
20
-145.914
11
71.9694
21
-145.771
0
LINE
8
BLACK
6
CONTINUOUS
10
71.9694
20
-145.771
11
71.8266
21
-145.486
0
LINE
8
BLACK
6
CONTINUOUS
10
71.8266
20
-145.486
11
71.6837
21
-144.914
0
LINE
8
BLACK
6
CONTINUOUS
10
71.6837
20
-144.914
11
71.6837
21
-144.2
0
LINE
8
BLACK
6
CONTINUOUS
10
71.6837
20
-144.2
11
71.8266
21
-143.629
0
LINE
8
BLACK
6
CONTINUOUS
10
71.8266
20
-143.629
11
71.9694
21
-143.343
0
LINE
8
BLACK
6
CONTINUOUS
10
71.9694
20
-143.343
11
72.1123
21
-143.2
0
LINE
8
BLACK
6
CONTINUOUS
10
72.1123
20
-143.2
11
72.398
21
-143.057
0
LINE
8
BLACK
6
CONTINUOUS
10
74.5409
20
-143.057
11
74.5409
21
-143.629
0
LINE
8
BLACK
6
CONTINUOUS
10
75.6837
20
-143.057
11
75.6837
21
-143.629
0
LINE
8
BLACK
6
CONTINUOUS
10
80.1123
20
-147.2
11
79.9694
21
-147.057
0
LINE
8
BLACK
6
CONTINUOUS
10
79.9694
20
-147.057
11
79.6837
21
-146.629
0
LINE
8
BLACK
6
CONTINUOUS
10
79.6837
20
-146.629
11
79.5409
21
-146.343
0
LINE
8
BLACK
6
CONTINUOUS
10
79.5409
20
-146.343
11
79.398
21
-145.914
0
LINE
8
BLACK
6
CONTINUOUS
10
79.398
20
-145.914
11
79.2551
21
-145.2
0
LINE
8
BLACK
6
CONTINUOUS
10
79.2551
20
-145.2
11
79.2551
21
-144.629
0
LINE
8
BLACK
6
CONTINUOUS
10
79.2551
20
-144.629
11
79.398
21
-143.914
0
LINE
8
BLACK
6
CONTINUOUS
10
79.398
20
-143.914
11
79.5409
21
-143.486
0
LINE
8
BLACK
6
CONTINUOUS
10
79.5409
20
-143.486
11
79.6837
21
-143.2
0
LINE
8
BLACK
6
CONTINUOUS
10
79.6837
20
-143.2
11
79.9694
21
-142.771
0
LINE
8
BLACK
6
CONTINUOUS
10
79.9694
20
-142.771
11
80.1123
21
-142.629
0
LINE
8
BLACK
6
CONTINUOUS
10
81.398
20
-146.057
11
81.9694
21
-146.057
0
LINE
8
BLACK
6
CONTINUOUS
10
81.9694
20
-146.057
11
82.2551
21
-145.914
0
LINE
8
BLACK
6
CONTINUOUS
10
82.2551
20
-145.914
11
82.398
21
-145.771
0
LINE
8
BLACK
6
CONTINUOUS
10
82.398
20
-145.771
11
82.6837
21
-145.343
0
LINE
8
BLACK
6
CONTINUOUS
10
82.6837
20
-145.343
11
82.8266
21
-144.771
0
LINE
8
BLACK
6
CONTINUOUS
10
82.8266
20
-144.771
11
82.8266
21
-143.629
0
LINE
8
BLACK
6
CONTINUOUS
10
82.8266
20
-143.629
11
82.6837
21
-143.343
0
LINE
8
BLACK
6
CONTINUOUS
10
82.6837
20
-143.343
11
82.5409
21
-143.2
0
LINE
8
BLACK
6
CONTINUOUS
10
82.5409
20
-143.2
11
82.2551
21
-143.057
0
LINE
8
BLACK
6
CONTINUOUS
10
82.2551
20
-143.057
11
81.6837
21
-143.057
0
LINE
8
BLACK
6
CONTINUOUS
10
81.6837
20
-143.057
11
81.398
21
-143.2
0
LINE
8
BLACK
6
CONTINUOUS
10
81.398
20
-143.2
11
81.2551
21
-143.343
0
LINE
8
BLACK
6
CONTINUOUS
10
81.2551
20
-143.343
11
81.1123
21
-143.629
0
LINE
8
BLACK
6
CONTINUOUS
10
81.1123
20
-143.629
11
81.1123
21
-144.343
0
LINE
8
BLACK
6
CONTINUOUS
10
81.1123
20
-144.343
11
81.2551
21
-144.629
0
LINE
8
BLACK
6
CONTINUOUS
10
81.2551
20
-144.629
11
81.398
21
-144.771
0
LINE
8
BLACK
6
CONTINUOUS
10
81.398
20
-144.771
11
81.6837
21
-144.914
0
LINE
8
BLACK
6
CONTINUOUS
10
81.6837
20
-144.914
11
82.2551
21
-144.914
0
LINE
8
BLACK
6
CONTINUOUS
10
82.2551
20
-144.914
11
82.5409
21
-144.771
0
LINE
8
BLACK
6
CONTINUOUS
10
82.5409
20
-144.771
11
82.6837
21
-144.629
0
LINE
8
BLACK
6
CONTINUOUS
10
82.6837
20
-144.629
11
82.8266
21
-144.343
0
LINE
8
BLACK
6
CONTINUOUS
10
85.398
20
-143.057
11
84.8266
21
-143.057
0
LINE
8
BLACK
6
CONTINUOUS
10
84.8266
20
-143.057
11
84.5409
21
-143.2
0
LINE
8
BLACK
6
CONTINUOUS
10
84.5409
20
-143.2
11
84.398
21
-143.343
0
LINE
8
BLACK
6
CONTINUOUS
10
84.398
20
-143.343
11
84.1123
21
-143.771
0
LINE
8
BLACK
6
CONTINUOUS
10
84.1123
20
-143.771
11
83.9694
21
-144.343
0
LINE
8
BLACK
6
CONTINUOUS
10
83.9694
20
-144.343
11
83.9694
21
-145.486
0
LINE
8
BLACK
6
CONTINUOUS
10
83.9694
20
-145.486
11
84.1123
21
-145.771
0
LINE
8
BLACK
6
CONTINUOUS
10
84.1123
20
-145.771
11
84.2551
21
-145.914
0
LINE
8
BLACK
6
CONTINUOUS
10
84.2551
20
-145.914
11
84.5409
21
-146.057
0
LINE
8
BLACK
6
CONTINUOUS
10
84.5409
20
-146.057
11
85.1123
21
-146.057
0
LINE
8
BLACK
6
CONTINUOUS
10
85.1123
20
-146.057
11
85.398
21
-145.914
0
LINE
8
BLACK
6
CONTINUOUS
10
85.398
20
-145.914
11
85.5409
21
-145.771
0
LINE
8
BLACK
6
CONTINUOUS
10
85.5409
20
-145.771
11
85.6837
21
-145.486
0
LINE
8
BLACK
6
CONTINUOUS
10
85.6837
20
-145.486
11
85.6837
21
-144.771
0
LINE
8
BLACK
6
CONTINUOUS
10
85.6837
20
-144.771
11
85.5409
21
-144.486
0
LINE
8
BLACK
6
CONTINUOUS
10
85.5409
20
-144.486
11
85.398
21
-144.343
0
LINE
8
BLACK
6
CONTINUOUS
10
85.398
20
-144.343
11
85.1123
21
-144.2
0
LINE
8
BLACK
6
CONTINUOUS
10
85.1123
20
-144.2
11
84.5409
21
-144.2
0
LINE
8
BLACK
6
CONTINUOUS
10
84.5409
20
-144.2
11
84.2551
21
-144.343
0
LINE
8
BLACK
6
CONTINUOUS
10
84.2551
20
-144.343
11
84.1123
21
-144.486
0
LINE
8
BLACK
6
CONTINUOUS
10
84.1123
20
-144.486
11
83.9694
21
-144.771
0
LINE
8
BLACK
6
CONTINUOUS
10
89.2551
20
-146.057
11
89.2551
21
-143.057
0
LINE
8
BLACK
6
CONTINUOUS
10
90.5409
20
-146.057
11
90.5409
21
-144.486
0
LINE
8
BLACK
6
CONTINUOUS
10
90.5409
20
-144.486
11
90.398
21
-144.2
0
LINE
8
BLACK
6
CONTINUOUS
10
90.398
20
-144.2
11
90.1123
21
-144.057
0
LINE
8
BLACK
6
CONTINUOUS
10
90.1123
20
-144.057
11
89.6837
21
-144.057
0
LINE
8
BLACK
6
CONTINUOUS
10
89.6837
20
-144.057
11
89.398
21
-144.2
0
LINE
8
BLACK
6
CONTINUOUS
10
89.398
20
-144.2
11
89.2551
21
-144.343
0
LINE
8
BLACK
6
CONTINUOUS
10
92.398
20
-146.057
11
92.1123
21
-145.914
0
LINE
8
BLACK
6
CONTINUOUS
10
92.1123
20
-145.914
11
91.9694
21
-145.771
0
LINE
8
BLACK
6
CONTINUOUS
10
91.9694
20
-145.771
11
91.8266
21
-145.486
0
LINE
8
BLACK
6
CONTINUOUS
10
91.8266
20
-145.486
11
91.8266
21
-144.629
0
LINE
8
BLACK
6
CONTINUOUS
10
91.8266
20
-144.629
11
91.9694
21
-144.343
0
LINE
8
BLACK
6
CONTINUOUS
10
91.9694
20
-144.343
11
92.1123
21
-144.2
0
LINE
8
BLACK
6
CONTINUOUS
10
92.1123
20
-144.2
11
92.398
21
-144.057
0
LINE
8
BLACK
6
CONTINUOUS
10
92.398
20
-144.057
11
92.8266
21
-144.057
0
LINE
8
BLACK
6
CONTINUOUS
10
92.8266
20
-144.057
11
93.1123
21
-144.2
0
LINE
8
BLACK
6
CONTINUOUS
10
93.1123
20
-144.2
11
93.2551
21
-144.343
0
LINE
8
BLACK
6
CONTINUOUS
10
93.2551
20
-144.343
11
93.398
21
-144.629
0
LINE
8
BLACK
6
CONTINUOUS
10
93.398
20
-144.629
11
93.398
21
-145.486
0
LINE
8
BLACK
6
CONTINUOUS
10
93.398
20
-145.486
11
93.2551
21
-145.771
0
LINE
8
BLACK
6
CONTINUOUS
10
93.2551
20
-145.771
11
93.1123
21
-145.914
0
LINE
8
BLACK
6
CONTINUOUS
10
93.1123
20
-145.914
11
92.8266
21
-146.057
0
LINE
8
BLACK
6
CONTINUOUS
10
92.8266
20
-146.057
11
92.398
21
-146.057
0
LINE
8
BLACK
6
CONTINUOUS
10
95.1123
20
-146.057
11
94.8266
21
-145.914
0
LINE
8
BLACK
6
CONTINUOUS
10
94.8266
20
-145.914
11
94.6837
21
-145.629
0
LINE
8
BLACK
6
CONTINUOUS
10
94.6837
20
-145.629
11
94.6837
21
-143.057
0
LINE
8
BLACK
6
CONTINUOUS
10
97.398
20
-145.914
11
97.1123
21
-146.057
0
LINE
8
BLACK
6
CONTINUOUS
10
97.1123
20
-146.057
11
96.5409
21
-146.057
0
LINE
8
BLACK
6
CONTINUOUS
10
96.5409
20
-146.057
11
96.2551
21
-145.914
0
LINE
8
BLACK
6
CONTINUOUS
10
96.2551
20
-145.914
11
96.1123
21
-145.629
0
LINE
8
BLACK
6
CONTINUOUS
10
96.1123
20
-145.629
11
96.1123
21
-144.486
0
LINE
8
BLACK
6
CONTINUOUS
10
96.1123
20
-144.486
11
96.2551
21
-144.2
0
LINE
8
BLACK
6
CONTINUOUS
10
96.2551
20
-144.2
11
96.5409
21
-144.057
0
LINE
8
BLACK
6
CONTINUOUS
10
96.5409
20
-144.057
11
97.1123
21
-144.057
0
LINE
8
BLACK
6
CONTINUOUS
10
97.1123
20
-144.057
11
97.398
21
-144.2
0
LINE
8
BLACK
6
CONTINUOUS
10
97.398
20
-144.2
11
97.5409
21
-144.486
0
LINE
8
BLACK
6
CONTINUOUS
10
97.5409
20
-144.486
11
97.5409
21
-144.771
0
LINE
8
BLACK
6
CONTINUOUS
10
97.5409
20
-144.771
11
96.1123
21
-145.057
0
LINE
8
BLACK
6
CONTINUOUS
10
98.6837
20
-145.914
11
98.9694
21
-146.057
0
LINE
8
BLACK
6
CONTINUOUS
10
98.9694
20
-146.057
11
99.5409
21
-146.057
0
LINE
8
BLACK
6
CONTINUOUS
10
99.5409
20
-146.057
11
99.8266
21
-145.914
0
LINE
8
BLACK
6
CONTINUOUS
10
99.8266
20
-145.914
11
99.9694
21
-145.629
0
LINE
8
BLACK
6
CONTINUOUS
10
99.9694
20
-145.629
11
99.9694
21
-145.486
0
LINE
8
BLACK
6
CONTINUOUS
10
99.9694
20
-145.486
11
99.8266
21
-145.2
0
LINE
8
BLACK
6
CONTINUOUS
10
99.8266
20
-145.2
11
99.5409
21
-145.057
0
LINE
8
BLACK
6
CONTINUOUS
10
99.5409
20
-145.057
11
99.1123
21
-145.057
0
LINE
8
BLACK
6
CONTINUOUS
10
99.1123
20
-145.057
11
98.8266
21
-144.914
0
LINE
8
BLACK
6
CONTINUOUS
10
98.8266
20
-144.914
11
98.6837
21
-144.629
0
LINE
8
BLACK
6
CONTINUOUS
10
98.6837
20
-144.629
11
98.6837
21
-144.486
0
LINE
8
BLACK
6
CONTINUOUS
10
98.6837
20
-144.486
11
98.8266
21
-144.2
0
LINE
8
BLACK
6
CONTINUOUS
10
98.8266
20
-144.2
11
99.1123
21
-144.057
0
LINE
8
BLACK
6
CONTINUOUS
10
99.1123
20
-144.057
11
99.5409
21
-144.057
0
LINE
8
BLACK
6
CONTINUOUS
10
99.5409
20
-144.057
11
99.8266
21
-144.2
0
LINE
8
BLACK
6
CONTINUOUS
10
100.969
20
-147.2
11
101.112
21
-147.057
0
LINE
8
BLACK
6
CONTINUOUS
10
101.112
20
-147.057
11
101.398
21
-146.629
0
LINE
8
BLACK
6
CONTINUOUS
10
101.398
20
-146.629
11
101.541
21
-146.343
0
LINE
8
BLACK
6
CONTINUOUS
10
101.541
20
-146.343
11
101.684
21
-145.914
0
LINE
8
BLACK
6
CONTINUOUS
10
101.684
20
-145.914
11
101.827
21
-145.2
0
LINE
8
BLACK
6
CONTINUOUS
10
101.827
20
-145.2
11
101.827
21
-144.629
0
LINE
8
BLACK
6
CONTINUOUS
10
101.827
20
-144.629
11
101.684
21
-143.914
0
LINE
8
BLACK
6
CONTINUOUS
10
101.684
20
-143.914
11
101.541
21
-143.486
0
LINE
8
BLACK
6
CONTINUOUS
10
101.541
20
-143.486
11
101.398
21
-143.2
0
LINE
8
BLACK
6
CONTINUOUS
10
101.398
20
-143.2
11
101.112
21
-142.771
0
LINE
8
BLACK
6
CONTINUOUS
10
101.112
20
-142.771
11
100.969
21
-142.629
0
CIRCLE
8
BLACK
10
32.848
20
-148.66
40
0.4
0
LINE
8
BLACK
6
CONTINUOUS
10
36.6837
20
-147.017
11
36.9694
21
-147.017
0
LINE
8
BLACK
6
CONTINUOUS
10
36.9694
20
-147.017
11
37.2551
21
-147.16
0
LINE
8
BLACK
6
CONTINUOUS
10
37.2551
20
-147.16
11
37.398
21
-147.303
0
LINE
8
BLACK
6
CONTINUOUS
10
37.398
20
-147.303
11
37.5409
21
-147.589
0
LINE
8
BLACK
6
CONTINUOUS
10
37.5409
20
-147.589
11
37.6837
21
-148.16
0
LINE
8
BLACK
6
CONTINUOUS
10
37.6837
20
-148.16
11
37.6837
21
-148.874
0
LINE
8
BLACK
6
CONTINUOUS
10
37.6837
20
-148.874
11
37.5409
21
-149.446
0
LINE
8
BLACK
6
CONTINUOUS
10
37.5409
20
-149.446
11
37.398
21
-149.731
0
LINE
8
BLACK
6
CONTINUOUS
10
37.398
20
-149.731
11
37.2551
21
-149.874
0
LINE
8
BLACK
6
CONTINUOUS
10
37.2551
20
-149.874
11
36.9694
21
-150.017
0
LINE
8
BLACK
6
CONTINUOUS
10
36.9694
20
-150.017
11
36.6837
21
-150.017
0
LINE
8
BLACK
6
CONTINUOUS
10
36.6837
20
-150.017
11
36.398
21
-149.874
0
LINE
8
BLACK
6
CONTINUOUS
10
36.398
20
-149.874
11
36.2551
21
-149.731
0
LINE
8
BLACK
6
CONTINUOUS
10
36.2551
20
-149.731
11
36.1123
21
-149.446
0
LINE
8
BLACK
6
CONTINUOUS
10
36.1123
20
-149.446
11
35.9694
21
-148.874
0
LINE
8
BLACK
6
CONTINUOUS
10
35.9694
20
-148.874
11
35.9694
21
-148.16
0
LINE
8
BLACK
6
CONTINUOUS
10
35.9694
20
-148.16
11
36.1123
21
-147.589
0
LINE
8
BLACK
6
CONTINUOUS
10
36.1123
20
-147.589
11
36.2551
21
-147.303
0
LINE
8
BLACK
6
CONTINUOUS
10
36.2551
20
-147.303
11
36.398
21
-147.16
0
LINE
8
BLACK
6
CONTINUOUS
10
36.398
20
-147.16
11
36.6837
21
-147.017
0
LINE
8
BLACK
6
CONTINUOUS
10
38.9694
20
-149.731
11
39.1123
21
-149.874
0
LINE
8
BLACK
6
CONTINUOUS
10
39.1123
20
-149.874
11
38.9694
21
-150.017
0
LINE
8
BLACK
6
CONTINUOUS
10
38.9694
20
-150.017
11
38.8266
21
-149.874
0
LINE
8
BLACK
6
CONTINUOUS
10
38.8266
20
-149.874
11
38.9694
21
-149.731
0
LINE
8
BLACK
6
CONTINUOUS
10
38.9694
20
-149.731
11
38.9694
21
-150.017
0
LINE
8
BLACK
6
CONTINUOUS
10
40.8266
20
-148.303
11
40.5409
21
-148.16
0
LINE
8
BLACK
6
CONTINUOUS
10
40.5409
20
-148.16
11
40.398
21
-148.017
0
LINE
8
BLACK
6
CONTINUOUS
10
40.398
20
-148.017
11
40.2551
21
-147.731
0
LINE
8
BLACK
6
CONTINUOUS
10
40.2551
20
-147.731
11
40.2551
21
-147.589
0
LINE
8
BLACK
6
CONTINUOUS
10
40.2551
20
-147.589
11
40.398
21
-147.303
0
LINE
8
BLACK
6
CONTINUOUS
10
40.398
20
-147.303
11
40.5409
21
-147.16
0
LINE
8
BLACK
6
CONTINUOUS
10
40.5409
20
-147.16
11
40.8266
21
-147.017
0
LINE
8
BLACK
6
CONTINUOUS
10
40.8266
20
-147.017
11
41.398
21
-147.017
0
LINE
8
BLACK
6
CONTINUOUS
10
41.398
20
-147.017
11
41.6837
21
-147.16
0
LINE
8
BLACK
6
CONTINUOUS
10
41.6837
20
-147.16
11
41.8266
21
-147.303
0
LINE
8
BLACK
6
CONTINUOUS
10
41.8266
20
-147.303
11
41.9694
21
-147.589
0
LINE
8
BLACK
6
CONTINUOUS
10
41.9694
20
-147.589
11
41.9694
21
-147.731
0
LINE
8
BLACK
6
CONTINUOUS
10
41.9694
20
-147.731
11
41.8266
21
-148.017
0
LINE
8
BLACK
6
CONTINUOUS
10
41.8266
20
-148.017
11
41.6837
21
-148.16
0
LINE
8
BLACK
6
CONTINUOUS
10
41.6837
20
-148.16
11
41.398
21
-148.303
0
LINE
8
BLACK
6
CONTINUOUS
10
41.398
20
-148.303
11
40.8266
21
-148.303
0
LINE
8
BLACK
6
CONTINUOUS
10
40.8266
20
-148.303
11
40.5409
21
-148.446
0
LINE
8
BLACK
6
CONTINUOUS
10
40.5409
20
-148.446
11
40.398
21
-148.589
0
LINE
8
BLACK
6
CONTINUOUS
10
40.398
20
-148.589
11
40.2551
21
-148.874
0
LINE
8
BLACK
6
CONTINUOUS
10
40.2551
20
-148.874
11
40.2551
21
-149.446
0
LINE
8
BLACK
6
CONTINUOUS
10
40.2551
20
-149.446
11
40.398
21
-149.731
0
LINE
8
BLACK
6
CONTINUOUS
10
40.398
20
-149.731
11
40.5409
21
-149.874
0
LINE
8
BLACK
6
CONTINUOUS
10
40.5409
20
-149.874
11
40.8266
21
-150.017
0
LINE
8
BLACK
6
CONTINUOUS
10
40.8266
20
-150.017
11
41.398
21
-150.017
0
LINE
8
BLACK
6
CONTINUOUS
10
41.398
20
-150.017
11
41.6837
21
-149.874
0
LINE
8
BLACK
6
CONTINUOUS
10
41.6837
20
-149.874
11
41.8266
21
-149.731
0
LINE
8
BLACK
6
CONTINUOUS
10
41.8266
20
-149.731
11
41.9694
21
-149.446
0
LINE
8
BLACK
6
CONTINUOUS
10
41.9694
20
-149.446
11
41.9694
21
-148.874
0
LINE
8
BLACK
6
CONTINUOUS
10
41.9694
20
-148.874
11
41.8266
21
-148.589
0
LINE
8
BLACK
6
CONTINUOUS
10
41.8266
20
-148.589
11
41.6837
21
-148.446
0
LINE
8
BLACK
6
CONTINUOUS
10
41.6837
20
-148.446
11
41.398
21
-148.303
0
LINE
8
BLACK
6
CONTINUOUS
10
43.8266
20
-147.017
11
44.1123
21
-147.017
0
LINE
8
BLACK
6
CONTINUOUS
10
44.1123
20
-147.017
11
44.398
21
-147.16
0
LINE
8
BLACK
6
CONTINUOUS
10
44.398
20
-147.16
11
44.5409
21
-147.303
0
LINE
8
BLACK
6
CONTINUOUS
10
44.5409
20
-147.303
11
44.6837
21
-147.589
0
LINE
8
BLACK
6
CONTINUOUS
10
44.6837
20
-147.589
11
44.8266
21
-148.16
0
LINE
8
BLACK
6
CONTINUOUS
10
44.8266
20
-148.16
11
44.8266
21
-148.874
0
LINE
8
BLACK
6
CONTINUOUS
10
44.8266
20
-148.874
11
44.6837
21
-149.446
0
LINE
8
BLACK
6
CONTINUOUS
10
44.6837
20
-149.446
11
44.5409
21
-149.731
0
LINE
8
BLACK
6
CONTINUOUS
10
44.5409
20
-149.731
11
44.398
21
-149.874
0
LINE
8
BLACK
6
CONTINUOUS
10
44.398
20
-149.874
11
44.1123
21
-150.017
0
LINE
8
BLACK
6
CONTINUOUS
10
44.1123
20
-150.017
11
43.8266
21
-150.017
0
LINE
8
BLACK
6
CONTINUOUS
10
43.8266
20
-150.017
11
43.5409
21
-149.874
0
LINE
8
BLACK
6
CONTINUOUS
10
43.5409
20
-149.874
11
43.398
21
-149.731
0
LINE
8
BLACK
6
CONTINUOUS
10
43.398
20
-149.731
11
43.2551
21
-149.446
0
LINE
8
BLACK
6
CONTINUOUS
10
43.2551
20
-149.446
11
43.1123
21
-148.874
0
LINE
8
BLACK
6
CONTINUOUS
10
43.1123
20
-148.874
11
43.1123
21
-148.16
0
LINE
8
BLACK
6
CONTINUOUS
10
43.1123
20
-148.16
11
43.2551
21
-147.589
0
LINE
8
BLACK
6
CONTINUOUS
10
43.2551
20
-147.589
11
43.398
21
-147.303
0
LINE
8
BLACK
6
CONTINUOUS
10
43.398
20
-147.303
11
43.5409
21
-147.16
0
LINE
8
BLACK
6
CONTINUOUS
10
43.5409
20
-147.16
11
43.8266
21
-147.017
0
LINE
8
BLACK
6
CONTINUOUS
10
46.1123
20
-150.017
11
46.1123
21
-148.017
0
LINE
8
BLACK
6
CONTINUOUS
10
46.1123
20
-148.303
11
46.2551
21
-148.16
0
LINE
8
BLACK
6
CONTINUOUS
10
46.2551
20
-148.16
11
46.5409
21
-148.017
0
LINE
8
BLACK
6
CONTINUOUS
10
46.5409
20
-148.017
11
46.9694
21
-148.017
0
LINE
8
BLACK
6
CONTINUOUS
10
46.9694
20
-148.017
11
47.2551
21
-148.16
0
LINE
8
BLACK
6
CONTINUOUS
10
47.2551
20
-148.16
11
47.398
21
-148.446
0
LINE
8
BLACK
6
CONTINUOUS
10
47.398
20
-148.446
11
47.398
21
-150.017
0
LINE
8
BLACK
6
CONTINUOUS
10
47.398
20
-148.446
11
47.5409
21
-148.16
0
LINE
8
BLACK
6
CONTINUOUS
10
47.5409
20
-148.16
11
47.8266
21
-148.017
0
LINE
8
BLACK
6
CONTINUOUS
10
47.8266
20
-148.017
11
48.2551
21
-148.017
0
LINE
8
BLACK
6
CONTINUOUS
10
48.2551
20
-148.017
11
48.5409
21
-148.16
0
LINE
8
BLACK
6
CONTINUOUS
10
48.5409
20
-148.16
11
48.6837
21
-148.446
0
LINE
8
BLACK
6
CONTINUOUS
10
48.6837
20
-148.446
11
48.6837
21
-150.017
0
LINE
8
BLACK
6
CONTINUOUS
10
50.1123
20
-150.017
11
50.1123
21
-148.017
0
LINE
8
BLACK
6
CONTINUOUS
10
50.1123
20
-148.303
11
50.2551
21
-148.16
0
LINE
8
BLACK
6
CONTINUOUS
10
50.2551
20
-148.16
11
50.5409
21
-148.017
0
LINE
8
BLACK
6
CONTINUOUS
10
50.5409
20
-148.017
11
50.9694
21
-148.017
0
LINE
8
BLACK
6
CONTINUOUS
10
50.9694
20
-148.017
11
51.2551
21
-148.16
0
LINE
8
BLACK
6
CONTINUOUS
10
51.2551
20
-148.16
11
51.398
21
-148.446
0
LINE
8
BLACK
6
CONTINUOUS
10
51.398
20
-148.446
11
51.398
21
-150.017
0
LINE
8
BLACK
6
CONTINUOUS
10
51.398
20
-148.446
11
51.5409
21
-148.16
0
LINE
8
BLACK
6
CONTINUOUS
10
51.5409
20
-148.16
11
51.8266
21
-148.017
0
LINE
8
BLACK
6
CONTINUOUS
10
51.8266
20
-148.017
11
52.2551
21
-148.017
0
LINE
8
BLACK
6
CONTINUOUS
10
52.2551
20
-148.017
11
52.5409
21
-148.16
0
LINE
8
BLACK
6
CONTINUOUS
10
52.5409
20
-148.16
11
52.6837
21
-148.446
0
LINE
8
BLACK
6
CONTINUOUS
10
52.6837
20
-148.446
11
52.6837
21
-150.017
0
LINE
8
BLACK
6
CONTINUOUS
10
58.5409
20
-146.874
11
55.9694
21
-150.731
0
LINE
8
BLACK
6
CONTINUOUS
10
62.398
20
-147.017
11
62.6837
21
-147.017
0
LINE
8
BLACK
6
CONTINUOUS
10
62.6837
20
-147.017
11
62.9694
21
-147.16
0
LINE
8
BLACK
6
CONTINUOUS
10
62.9694
20
-147.16
11
63.1123
21
-147.303
0
LINE
8
BLACK
6
CONTINUOUS
10
63.1123
20
-147.303
11
63.2551
21
-147.589
0
LINE
8
BLACK
6
CONTINUOUS
10
63.2551
20
-147.589
11
63.398
21
-148.16
0
LINE
8
BLACK
6
CONTINUOUS
10
63.398
20
-148.16
11
63.398
21
-148.874
0
LINE
8
BLACK
6
CONTINUOUS
10
63.398
20
-148.874
11
63.2551
21
-149.446
0
LINE
8
BLACK
6
CONTINUOUS
10
63.2551
20
-149.446
11
63.1123
21
-149.731
0
LINE
8
BLACK
6
CONTINUOUS
10
63.1123
20
-149.731
11
62.9694
21
-149.874
0
LINE
8
BLACK
6
CONTINUOUS
10
62.9694
20
-149.874
11
62.6837
21
-150.017
0
LINE
8
BLACK
6
CONTINUOUS
10
62.6837
20
-150.017
11
62.398
21
-150.017
0
LINE
8
BLACK
6
CONTINUOUS
10
62.398
20
-150.017
11
62.1123
21
-149.874
0
LINE
8
BLACK
6
CONTINUOUS
10
62.1123
20
-149.874
11
61.9694
21
-149.731
0
LINE
8
BLACK
6
CONTINUOUS
10
61.9694
20
-149.731
11
61.8266
21
-149.446
0
LINE
8
BLACK
6
CONTINUOUS
10
61.8266
20
-149.446
11
61.6837
21
-148.874
0
LINE
8
BLACK
6
CONTINUOUS
10
61.6837
20
-148.874
11
61.6837
21
-148.16
0
LINE
8
BLACK
6
CONTINUOUS
10
61.6837
20
-148.16
11
61.8266
21
-147.589
0
LINE
8
BLACK
6
CONTINUOUS
10
61.8266
20
-147.589
11
61.9694
21
-147.303
0
LINE
8
BLACK
6
CONTINUOUS
10
61.9694
20
-147.303
11
62.1123
21
-147.16
0
LINE
8
BLACK
6
CONTINUOUS
10
62.1123
20
-147.16
11
62.398
21
-147.017
0
LINE
8
BLACK
6
CONTINUOUS
10
64.6837
20
-149.731
11
64.8266
21
-149.874
0
LINE
8
BLACK
6
CONTINUOUS
10
64.8266
20
-149.874
11
64.6837
21
-150.017
0
LINE
8
BLACK
6
CONTINUOUS
10
64.6837
20
-150.017
11
64.5409
21
-149.874
0
LINE
8
BLACK
6
CONTINUOUS
10
64.5409
20
-149.874
11
64.6837
21
-149.731
0
LINE
8
BLACK
6
CONTINUOUS
10
64.6837
20
-149.731
11
64.6837
21
-150.017
0
LINE
8
BLACK
6
CONTINUOUS
10
66.6837
20
-147.017
11
66.9694
21
-147.017
0
LINE
8
BLACK
6
CONTINUOUS
10
66.9694
20
-147.017
11
67.2551
21
-147.16
0
LINE
8
BLACK
6
CONTINUOUS
10
67.2551
20
-147.16
11
67.398
21
-147.303
0
LINE
8
BLACK
6
CONTINUOUS
10
67.398
20
-147.303
11
67.5409
21
-147.589
0
LINE
8
BLACK
6
CONTINUOUS
10
67.5409
20
-147.589
11
67.6837
21
-148.16
0
LINE
8
BLACK
6
CONTINUOUS
10
67.6837
20
-148.16
11
67.6837
21
-148.874
0
LINE
8
BLACK
6
CONTINUOUS
10
67.6837
20
-148.874
11
67.5409
21
-149.446
0
LINE
8
BLACK
6
CONTINUOUS
10
67.5409
20
-149.446
11
67.398
21
-149.731
0
LINE
8
BLACK
6
CONTINUOUS
10
67.398
20
-149.731
11
67.2551
21
-149.874
0
LINE
8
BLACK
6
CONTINUOUS
10
67.2551
20
-149.874
11
66.9694
21
-150.017
0
LINE
8
BLACK
6
CONTINUOUS
10
66.9694
20
-150.017
11
66.6837
21
-150.017
0
LINE
8
BLACK
6
CONTINUOUS
10
66.6837
20
-150.017
11
66.398
21
-149.874
0
LINE
8
BLACK
6
CONTINUOUS
10
66.398
20
-149.874
11
66.2551
21
-149.731
0
LINE
8
BLACK
6
CONTINUOUS
10
66.2551
20
-149.731
11
66.1123
21
-149.446
0
LINE
8
BLACK
6
CONTINUOUS
10
66.1123
20
-149.446
11
65.9694
21
-148.874
0
LINE
8
BLACK
6
CONTINUOUS
10
65.9694
20
-148.874
11
65.9694
21
-148.16
0
LINE
8
BLACK
6
CONTINUOUS
10
65.9694
20
-148.16
11
66.1123
21
-147.589
0
LINE
8
BLACK
6
CONTINUOUS
10
66.1123
20
-147.589
11
66.2551
21
-147.303
0
LINE
8
BLACK
6
CONTINUOUS
10
66.2551
20
-147.303
11
66.398
21
-147.16
0
LINE
8
BLACK
6
CONTINUOUS
10
66.398
20
-147.16
11
66.6837
21
-147.017
0
LINE
8
BLACK
6
CONTINUOUS
10
68.6837
20
-147.017
11
70.5409
21
-147.017
0
LINE
8
BLACK
6
CONTINUOUS
10
70.5409
20
-147.017
11
69.5409
21
-148.16
0
LINE
8
BLACK
6
CONTINUOUS
10
69.5409
20
-148.16
11
69.9694
21
-148.16
0
LINE
8
BLACK
6
CONTINUOUS
10
69.9694
20
-148.16
11
70.2551
21
-148.303
0
LINE
8
BLACK
6
CONTINUOUS
10
70.2551
20
-148.303
11
70.398
21
-148.446
0
LINE
8
BLACK
6
CONTINUOUS
10
70.398
20
-148.446
11
70.5409
21
-148.731
0
LINE
8
BLACK
6
CONTINUOUS
10
70.5409
20
-148.731
11
70.5409
21
-149.446
0
LINE
8
BLACK
6
CONTINUOUS
10
70.5409
20
-149.446
11
70.398
21
-149.731
0
LINE
8
BLACK
6
CONTINUOUS
10
70.398
20
-149.731
11
70.2551
21
-149.874
0
LINE
8
BLACK
6
CONTINUOUS
10
70.2551
20
-149.874
11
69.9694
21
-150.017
0
LINE
8
BLACK
6
CONTINUOUS
10
69.9694
20
-150.017
11
69.1123
21
-150.017
0
LINE
8
BLACK
6
CONTINUOUS
10
69.1123
20
-150.017
11
68.8266
21
-149.874
0
LINE
8
BLACK
6
CONTINUOUS
10
68.8266
20
-149.874
11
68.6837
21
-149.731
0
LINE
8
BLACK
6
CONTINUOUS
10
73.398
20
-150.017
11
71.6837
21
-150.017
0
LINE
8
BLACK
6
CONTINUOUS
10
72.5409
20
-150.017
11
72.5409
21
-147.017
0
LINE
8
BLACK
6
CONTINUOUS
10
72.5409
20
-147.017
11
72.2551
21
-147.446
0
LINE
8
BLACK
6
CONTINUOUS
10
72.2551
20
-147.446
11
71.9694
21
-147.731
0
LINE
8
BLACK
6
CONTINUOUS
10
71.9694
20
-147.731
11
71.6837
21
-147.874
0
LINE
8
BLACK
6
CONTINUOUS
10
74.5409
20
-147.017
11
74.5409
21
-147.589
0
LINE
8
BLACK
6
CONTINUOUS
10
75.6837
20
-147.017
11
75.6837
21
-147.589
0
LINE
8
BLACK
6
CONTINUOUS
10
80.1123
20
-151.16
11
79.9694
21
-151.017
0
LINE
8
BLACK
6
CONTINUOUS
10
79.9694
20
-151.017
11
79.6837
21
-150.589
0
LINE
8
BLACK
6
CONTINUOUS
10
79.6837
20
-150.589
11
79.5409
21
-150.303
0
LINE
8
BLACK
6
CONTINUOUS
10
79.5409
20
-150.303
11
79.398
21
-149.874
0
LINE
8
BLACK
6
CONTINUOUS
10
79.398
20
-149.874
11
79.2551
21
-149.16
0
LINE
8
BLACK
6
CONTINUOUS
10
79.2551
20
-149.16
11
79.2551
21
-148.589
0
LINE
8
BLACK
6
CONTINUOUS
10
79.2551
20
-148.589
11
79.398
21
-147.874
0
LINE
8
BLACK
6
CONTINUOUS
10
79.398
20
-147.874
11
79.5409
21
-147.446
0
LINE
8
BLACK
6
CONTINUOUS
10
79.5409
20
-147.446
11
79.6837
21
-147.16
0
LINE
8
BLACK
6
CONTINUOUS
10
79.6837
20
-147.16
11
79.9694
21
-146.731
0
LINE
8
BLACK
6
CONTINUOUS
10
79.9694
20
-146.731
11
80.1123
21
-146.589
0
LINE
8
BLACK
6
CONTINUOUS
10
80.9694
20
-147.017
11
82.8266
21
-147.017
0
LINE
8
BLACK
6
CONTINUOUS
10
82.8266
20
-147.017
11
81.8266
21
-148.16
0
LINE
8
BLACK
6
CONTINUOUS
10
81.8266
20
-148.16
11
82.2551
21
-148.16
0
LINE
8
BLACK
6
CONTINUOUS
10
82.2551
20
-148.16
11
82.5409
21
-148.303
0
LINE
8
BLACK
6
CONTINUOUS
10
82.5409
20
-148.303
11
82.6837
21
-148.446
0
LINE
8
BLACK
6
CONTINUOUS
10
82.6837
20
-148.446
11
82.8266
21
-148.731
0
LINE
8
BLACK
6
CONTINUOUS
10
82.8266
20
-148.731
11
82.8266
21
-149.446
0
LINE
8
BLACK
6
CONTINUOUS
10
82.8266
20
-149.446
11
82.6837
21
-149.731
0
LINE
8
BLACK
6
CONTINUOUS
10
82.6837
20
-149.731
11
82.5409
21
-149.874
0
LINE
8
BLACK
6
CONTINUOUS
10
82.5409
20
-149.874
11
82.2551
21
-150.017
0
LINE
8
BLACK
6
CONTINUOUS
10
82.2551
20
-150.017
11
81.398
21
-150.017
0
LINE
8
BLACK
6
CONTINUOUS
10
81.398
20
-150.017
11
81.1123
21
-149.874
0
LINE
8
BLACK
6
CONTINUOUS
10
81.1123
20
-149.874
11
80.9694
21
-149.731
0
LINE
8
BLACK
6
CONTINUOUS
10
84.5409
20
-148.303
11
84.2551
21
-148.16
0
LINE
8
BLACK
6
CONTINUOUS
10
84.2551
20
-148.16
11
84.1123
21
-148.017
0
LINE
8
BLACK
6
CONTINUOUS
10
84.1123
20
-148.017
11
83.9694
21
-147.731
0
LINE
8
BLACK
6
CONTINUOUS
10
83.9694
20
-147.731
11
83.9694
21
-147.589
0
LINE
8
BLACK
6
CONTINUOUS
10
83.9694
20
-147.589
11
84.1123
21
-147.303
0
LINE
8
BLACK
6
CONTINUOUS
10
84.1123
20
-147.303
11
84.2551
21
-147.16
0
LINE
8
BLACK
6
CONTINUOUS
10
84.2551
20
-147.16
11
84.5409
21
-147.017
0
LINE
8
BLACK
6
CONTINUOUS
10
84.5409
20
-147.017
11
85.1123
21
-147.017
0
LINE
8
BLACK
6
CONTINUOUS
10
85.1123
20
-147.017
11
85.398
21
-147.16
0
LINE
8
BLACK
6
CONTINUOUS
10
85.398
20
-147.16
11
85.5409
21
-147.303
0
LINE
8
BLACK
6
CONTINUOUS
10
85.5409
20
-147.303
11
85.6837
21
-147.589
0
LINE
8
BLACK
6
CONTINUOUS
10
85.6837
20
-147.589
11
85.6837
21
-147.731
0
LINE
8
BLACK
6
CONTINUOUS
10
85.6837
20
-147.731
11
85.5409
21
-148.017
0
LINE
8
BLACK
6
CONTINUOUS
10
85.5409
20
-148.017
11
85.398
21
-148.16
0
LINE
8
BLACK
6
CONTINUOUS
10
85.398
20
-148.16
11
85.1123
21
-148.303
0
LINE
8
BLACK
6
CONTINUOUS
10
85.1123
20
-148.303
11
84.5409
21
-148.303
0
LINE
8
BLACK
6
CONTINUOUS
10
84.5409
20
-148.303
11
84.2551
21
-148.446
0
LINE
8
BLACK
6
CONTINUOUS
10
84.2551
20
-148.446
11
84.1123
21
-148.589
0
LINE
8
BLACK
6
CONTINUOUS
10
84.1123
20
-148.589
11
83.9694
21
-148.874
0
LINE
8
BLACK
6
CONTINUOUS
10
83.9694
20
-148.874
11
83.9694
21
-149.446
0
LINE
8
BLACK
6
CONTINUOUS
10
83.9694
20
-149.446
11
84.1123
21
-149.731
0
LINE
8
BLACK
6
CONTINUOUS
10
84.1123
20
-149.731
11
84.2551
21
-149.874
0
LINE
8
BLACK
6
CONTINUOUS
10
84.2551
20
-149.874
11
84.5409
21
-150.017
0
LINE
8
BLACK
6
CONTINUOUS
10
84.5409
20
-150.017
11
85.1123
21
-150.017
0
LINE
8
BLACK
6
CONTINUOUS
10
85.1123
20
-150.017
11
85.398
21
-149.874
0
LINE
8
BLACK
6
CONTINUOUS
10
85.398
20
-149.874
11
85.5409
21
-149.731
0
LINE
8
BLACK
6
CONTINUOUS
10
85.5409
20
-149.731
11
85.6837
21
-149.446
0
LINE
8
BLACK
6
CONTINUOUS
10
85.6837
20
-149.446
11
85.6837
21
-148.874
0
LINE
8
BLACK
6
CONTINUOUS
10
85.6837
20
-148.874
11
85.5409
21
-148.589
0
LINE
8
BLACK
6
CONTINUOUS
10
85.5409
20
-148.589
11
85.398
21
-148.446
0
LINE
8
BLACK
6
CONTINUOUS
10
85.398
20
-148.446
11
85.1123
21
-148.303
0
LINE
8
BLACK
6
CONTINUOUS
10
89.2551
20
-150.017
11
89.2551
21
-147.017
0
LINE
8
BLACK
6
CONTINUOUS
10
90.5409
20
-150.017
11
90.5409
21
-148.446
0
LINE
8
BLACK
6
CONTINUOUS
10
90.5409
20
-148.446
11
90.398
21
-148.16
0
LINE
8
BLACK
6
CONTINUOUS
10
90.398
20
-148.16
11
90.1123
21
-148.017
0
LINE
8
BLACK
6
CONTINUOUS
10
90.1123
20
-148.017
11
89.6837
21
-148.017
0
LINE
8
BLACK
6
CONTINUOUS
10
89.6837
20
-148.017
11
89.398
21
-148.16
0
LINE
8
BLACK
6
CONTINUOUS
10
89.398
20
-148.16
11
89.2551
21
-148.303
0
LINE
8
BLACK
6
CONTINUOUS
10
92.398
20
-150.017
11
92.1123
21
-149.874
0
LINE
8
BLACK
6
CONTINUOUS
10
92.1123
20
-149.874
11
91.9694
21
-149.731
0
LINE
8
BLACK
6
CONTINUOUS
10
91.9694
20
-149.731
11
91.8266
21
-149.446
0
LINE
8
BLACK
6
CONTINUOUS
10
91.8266
20
-149.446
11
91.8266
21
-148.589
0
LINE
8
BLACK
6
CONTINUOUS
10
91.8266
20
-148.589
11
91.9694
21
-148.303
0
LINE
8
BLACK
6
CONTINUOUS
10
91.9694
20
-148.303
11
92.1123
21
-148.16
0
LINE
8
BLACK
6
CONTINUOUS
10
92.1123
20
-148.16
11
92.398
21
-148.017
0
LINE
8
BLACK
6
CONTINUOUS
10
92.398
20
-148.017
11
92.8266
21
-148.017
0
LINE
8
BLACK
6
CONTINUOUS
10
92.8266
20
-148.017
11
93.1123
21
-148.16
0
LINE
8
BLACK
6
CONTINUOUS
10
93.1123
20
-148.16
11
93.2551
21
-148.303
0
LINE
8
BLACK
6
CONTINUOUS
10
93.2551
20
-148.303
11
93.398
21
-148.589
0
LINE
8
BLACK
6
CONTINUOUS
10
93.398
20
-148.589
11
93.398
21
-149.446
0
LINE
8
BLACK
6
CONTINUOUS
10
93.398
20
-149.446
11
93.2551
21
-149.731
0
LINE
8
BLACK
6
CONTINUOUS
10
93.2551
20
-149.731
11
93.1123
21
-149.874
0
LINE
8
BLACK
6
CONTINUOUS
10
93.1123
20
-149.874
11
92.8266
21
-150.017
0
LINE
8
BLACK
6
CONTINUOUS
10
92.8266
20
-150.017
11
92.398
21
-150.017
0
LINE
8
BLACK
6
CONTINUOUS
10
95.1123
20
-150.017
11
94.8266
21
-149.874
0
LINE
8
BLACK
6
CONTINUOUS
10
94.8266
20
-149.874
11
94.6837
21
-149.589
0
LINE
8
BLACK
6
CONTINUOUS
10
94.6837
20
-149.589
11
94.6837
21
-147.017
0
LINE
8
BLACK
6
CONTINUOUS
10
97.398
20
-149.874
11
97.1123
21
-150.017
0
LINE
8
BLACK
6
CONTINUOUS
10
97.1123
20
-150.017
11
96.5409
21
-150.017
0
LINE
8
BLACK
6
CONTINUOUS
10
96.5409
20
-150.017
11
96.2551
21
-149.874
0
LINE
8
BLACK
6
CONTINUOUS
10
96.2551
20
-149.874
11
96.1123
21
-149.589
0
LINE
8
BLACK
6
CONTINUOUS
10
96.1123
20
-149.589
11
96.1123
21
-148.446
0
LINE
8
BLACK
6
CONTINUOUS
10
96.1123
20
-148.446
11
96.2551
21
-148.16
0
LINE
8
BLACK
6
CONTINUOUS
10
96.2551
20
-148.16
11
96.5409
21
-148.017
0
LINE
8
BLACK
6
CONTINUOUS
10
96.5409
20
-148.017
11
97.1123
21
-148.017
0
LINE
8
BLACK
6
CONTINUOUS
10
97.1123
20
-148.017
11
97.398
21
-148.16
0
LINE
8
BLACK
6
CONTINUOUS
10
97.398
20
-148.16
11
97.5409
21
-148.446
0
LINE
8
BLACK
6
CONTINUOUS
10
97.5409
20
-148.446
11
97.5409
21
-148.731
0
LINE
8
BLACK
6
CONTINUOUS
10
97.5409
20
-148.731
11
96.1123
21
-149.017
0
LINE
8
BLACK
6
CONTINUOUS
10
98.6837
20
-149.874
11
98.9694
21
-150.017
0
LINE
8
BLACK
6
CONTINUOUS
10
98.9694
20
-150.017
11
99.5409
21
-150.017
0
LINE
8
BLACK
6
CONTINUOUS
10
99.5409
20
-150.017
11
99.8266
21
-149.874
0
LINE
8
BLACK
6
CONTINUOUS
10
99.8266
20
-149.874
11
99.9694
21
-149.589
0
LINE
8
BLACK
6
CONTINUOUS
10
99.9694
20
-149.589
11
99.9694
21
-149.446
0
LINE
8
BLACK
6
CONTINUOUS
10
99.9694
20
-149.446
11
99.8266
21
-149.16
0
LINE
8
BLACK
6
CONTINUOUS
10
99.8266
20
-149.16
11
99.5409
21
-149.017
0
LINE
8
BLACK
6
CONTINUOUS
10
99.5409
20
-149.017
11
99.1123
21
-149.017
0
LINE
8
BLACK
6
CONTINUOUS
10
99.1123
20
-149.017
11
98.8266
21
-148.874
0
LINE
8
BLACK
6
CONTINUOUS
10
98.8266
20
-148.874
11
98.6837
21
-148.589
0
LINE
8
BLACK
6
CONTINUOUS
10
98.6837
20
-148.589
11
98.6837
21
-148.446
0
LINE
8
BLACK
6
CONTINUOUS
10
98.6837
20
-148.446
11
98.8266
21
-148.16
0
LINE
8
BLACK
6
CONTINUOUS
10
98.8266
20
-148.16
11
99.1123
21
-148.017
0
LINE
8
BLACK
6
CONTINUOUS
10
99.1123
20
-148.017
11
99.5409
21
-148.017
0
LINE
8
BLACK
6
CONTINUOUS
10
99.5409
20
-148.017
11
99.8266
21
-148.16
0
LINE
8
BLACK
6
CONTINUOUS
10
100.969
20
-151.16
11
101.112
21
-151.017
0
LINE
8
BLACK
6
CONTINUOUS
10
101.112
20
-151.017
11
101.398
21
-150.589
0
LINE
8
BLACK
6
CONTINUOUS
10
101.398
20
-150.589
11
101.541
21
-150.303
0
LINE
8
BLACK
6
CONTINUOUS
10
101.541
20
-150.303
11
101.684
21
-149.874
0
LINE
8
BLACK
6
CONTINUOUS
10
101.684
20
-149.874
11
101.827
21
-149.16
0
LINE
8
BLACK
6
CONTINUOUS
10
101.827
20
-149.16
11
101.827
21
-148.589
0
LINE
8
BLACK
6
CONTINUOUS
10
101.827
20
-148.589
11
101.684
21
-147.874
0
LINE
8
BLACK
6
CONTINUOUS
10
101.684
20
-147.874
11
101.541
21
-147.446
0
LINE
8
BLACK
6
CONTINUOUS
10
101.541
20
-147.446
11
101.398
21
-147.16
0
LINE
8
BLACK
6
CONTINUOUS
10
101.398
20
-147.16
11
101.112
21
-146.731
0
LINE
8
BLACK
6
CONTINUOUS
10
101.112
20
-146.731
11
100.969
21
-146.589
0
LINE
8
BLACK
6
CONTINUOUS
10
32.748
20
-152.12
11
32.748
21
-153.12
0
LINE
8
BLACK
6
CONTINUOUS
10
32.248
20
-152.62
11
33.248
21
-152.62
0
LINE
8
BLACK
6
CONTINUOUS
10
37.6837
20
-153.977
11
35.9694
21
-153.977
0
LINE
8
BLACK
6
CONTINUOUS
10
36.8266
20
-153.977
11
36.8266
21
-150.977
0
LINE
8
BLACK
6
CONTINUOUS
10
36.8266
20
-150.977
11
36.5409
21
-151.406
0
LINE
8
BLACK
6
CONTINUOUS
10
36.5409
20
-151.406
11
36.2551
21
-151.691
0
LINE
8
BLACK
6
CONTINUOUS
10
36.2551
20
-151.691
11
35.9694
21
-151.834
0
LINE
8
BLACK
6
CONTINUOUS
10
38.9694
20
-153.691
11
39.1123
21
-153.834
0
LINE
8
BLACK
6
CONTINUOUS
10
39.1123
20
-153.834
11
38.9694
21
-153.977
0
LINE
8
BLACK
6
CONTINUOUS
10
38.9694
20
-153.977
11
38.8266
21
-153.834
0
LINE
8
BLACK
6
CONTINUOUS
10
38.8266
20
-153.834
11
38.9694
21
-153.691
0
LINE
8
BLACK
6
CONTINUOUS
10
38.9694
20
-153.691
11
38.9694
21
-153.977
0
LINE
8
BLACK
6
CONTINUOUS
10
40.9694
20
-150.977
11
41.2551
21
-150.977
0
LINE
8
BLACK
6
CONTINUOUS
10
41.2551
20
-150.977
11
41.5409
21
-151.12
0
LINE
8
BLACK
6
CONTINUOUS
10
41.5409
20
-151.12
11
41.6837
21
-151.263
0
LINE
8
BLACK
6
CONTINUOUS
10
41.6837
20
-151.263
11
41.8266
21
-151.549
0
LINE
8
BLACK
6
CONTINUOUS
10
41.8266
20
-151.549
11
41.9694
21
-152.12
0
LINE
8
BLACK
6
CONTINUOUS
10
41.9694
20
-152.12
11
41.9694
21
-152.834
0
LINE
8
BLACK
6
CONTINUOUS
10
41.9694
20
-152.834
11
41.8266
21
-153.406
0
LINE
8
BLACK
6
CONTINUOUS
10
41.8266
20
-153.406
11
41.6837
21
-153.691
0
LINE
8
BLACK
6
CONTINUOUS
10
41.6837
20
-153.691
11
41.5409
21
-153.834
0
LINE
8
BLACK
6
CONTINUOUS
10
41.5409
20
-153.834
11
41.2551
21
-153.977
0
LINE
8
BLACK
6
CONTINUOUS
10
41.2551
20
-153.977
11
40.9694
21
-153.977
0
LINE
8
BLACK
6
CONTINUOUS
10
40.9694
20
-153.977
11
40.6837
21
-153.834
0
LINE
8
BLACK
6
CONTINUOUS
10
40.6837
20
-153.834
11
40.5409
21
-153.691
0
LINE
8
BLACK
6
CONTINUOUS
10
40.5409
20
-153.691
11
40.398
21
-153.406
0
LINE
8
BLACK
6
CONTINUOUS
10
40.398
20
-153.406
11
40.2551
21
-152.834
0
LINE
8
BLACK
6
CONTINUOUS
10
40.2551
20
-152.834
11
40.2551
21
-152.12
0
LINE
8
BLACK
6
CONTINUOUS
10
40.2551
20
-152.12
11
40.398
21
-151.549
0
LINE
8
BLACK
6
CONTINUOUS
10
40.398
20
-151.549
11
40.5409
21
-151.263
0
LINE
8
BLACK
6
CONTINUOUS
10
40.5409
20
-151.263
11
40.6837
21
-151.12
0
LINE
8
BLACK
6
CONTINUOUS
10
40.6837
20
-151.12
11
40.9694
21
-150.977
0
LINE
8
BLACK
6
CONTINUOUS
10
43.8266
20
-150.977
11
44.1123
21
-150.977
0
LINE
8
BLACK
6
CONTINUOUS
10
44.1123
20
-150.977
11
44.398
21
-151.12
0
LINE
8
BLACK
6
CONTINUOUS
10
44.398
20
-151.12
11
44.5409
21
-151.263
0
LINE
8
BLACK
6
CONTINUOUS
10
44.5409
20
-151.263
11
44.6837
21
-151.549
0
LINE
8
BLACK
6
CONTINUOUS
10
44.6837
20
-151.549
11
44.8266
21
-152.12
0
LINE
8
BLACK
6
CONTINUOUS
10
44.8266
20
-152.12
11
44.8266
21
-152.834
0
LINE
8
BLACK
6
CONTINUOUS
10
44.8266
20
-152.834
11
44.6837
21
-153.406
0
LINE
8
BLACK
6
CONTINUOUS
10
44.6837
20
-153.406
11
44.5409
21
-153.691
0
LINE
8
BLACK
6
CONTINUOUS
10
44.5409
20
-153.691
11
44.398
21
-153.834
0
LINE
8
BLACK
6
CONTINUOUS
10
44.398
20
-153.834
11
44.1123
21
-153.977
0
LINE
8
BLACK
6
CONTINUOUS
10
44.1123
20
-153.977
11
43.8266
21
-153.977
0
LINE
8
BLACK
6
CONTINUOUS
10
43.8266
20
-153.977
11
43.5409
21
-153.834
0
LINE
8
BLACK
6
CONTINUOUS
10
43.5409
20
-153.834
11
43.398
21
-153.691
0
LINE
8
BLACK
6
CONTINUOUS
10
43.398
20
-153.691
11
43.2551
21
-153.406
0
LINE
8
BLACK
6
CONTINUOUS
10
43.2551
20
-153.406
11
43.1123
21
-152.834
0
LINE
8
BLACK
6
CONTINUOUS
10
43.1123
20
-152.834
11
43.1123
21
-152.12
0
LINE
8
BLACK
6
CONTINUOUS
10
43.1123
20
-152.12
11
43.2551
21
-151.549
0
LINE
8
BLACK
6
CONTINUOUS
10
43.2551
20
-151.549
11
43.398
21
-151.263
0
LINE
8
BLACK
6
CONTINUOUS
10
43.398
20
-151.263
11
43.5409
21
-151.12
0
LINE
8
BLACK
6
CONTINUOUS
10
43.5409
20
-151.12
11
43.8266
21
-150.977
0
LINE
8
BLACK
6
CONTINUOUS
10
46.1123
20
-153.977
11
46.1123
21
-151.977
0
LINE
8
BLACK
6
CONTINUOUS
10
46.1123
20
-152.263
11
46.2551
21
-152.12
0
LINE
8
BLACK
6
CONTINUOUS
10
46.2551
20
-152.12
11
46.5409
21
-151.977
0
LINE
8
BLACK
6
CONTINUOUS
10
46.5409
20
-151.977
11
46.9694
21
-151.977
0
LINE
8
BLACK
6
CONTINUOUS
10
46.9694
20
-151.977
11
47.2551
21
-152.12
0
LINE
8
BLACK
6
CONTINUOUS
10
47.2551
20
-152.12
11
47.398
21
-152.406
0
LINE
8
BLACK
6
CONTINUOUS
10
47.398
20
-152.406
11
47.398
21
-153.977
0
LINE
8
BLACK
6
CONTINUOUS
10
47.398
20
-152.406
11
47.5409
21
-152.12
0
LINE
8
BLACK
6
CONTINUOUS
10
47.5409
20
-152.12
11
47.8266
21
-151.977
0
LINE
8
BLACK
6
CONTINUOUS
10
47.8266
20
-151.977
11
48.2551
21
-151.977
0
LINE
8
BLACK
6
CONTINUOUS
10
48.2551
20
-151.977
11
48.5409
21
-152.12
0
LINE
8
BLACK
6
CONTINUOUS
10
48.5409
20
-152.12
11
48.6837
21
-152.406
0
LINE
8
BLACK
6
CONTINUOUS
10
48.6837
20
-152.406
11
48.6837
21
-153.977
0
LINE
8
BLACK
6
CONTINUOUS
10
50.1123
20
-153.977
11
50.1123
21
-151.977
0
LINE
8
BLACK
6
CONTINUOUS
10
50.1123
20
-152.263
11
50.2551
21
-152.12
0
LINE
8
BLACK
6
CONTINUOUS
10
50.2551
20
-152.12
11
50.5409
21
-151.977
0
LINE
8
BLACK
6
CONTINUOUS
10
50.5409
20
-151.977
11
50.9694
21
-151.977
0
LINE
8
BLACK
6
CONTINUOUS
10
50.9694
20
-151.977
11
51.2551
21
-152.12
0
LINE
8
BLACK
6
CONTINUOUS
10
51.2551
20
-152.12
11
51.398
21
-152.406
0
LINE
8
BLACK
6
CONTINUOUS
10
51.398
20
-152.406
11
51.398
21
-153.977
0
LINE
8
BLACK
6
CONTINUOUS
10
51.398
20
-152.406
11
51.5409
21
-152.12
0
LINE
8
BLACK
6
CONTINUOUS
10
51.5409
20
-152.12
11
51.8266
21
-151.977
0
LINE
8
BLACK
6
CONTINUOUS
10
51.8266
20
-151.977
11
52.2551
21
-151.977
0
LINE
8
BLACK
6
CONTINUOUS
10
52.2551
20
-151.977
11
52.5409
21
-152.12
0
LINE
8
BLACK
6
CONTINUOUS
10
52.5409
20
-152.12
11
52.6837
21
-152.406
0
LINE
8
BLACK
6
CONTINUOUS
10
52.6837
20
-152.406
11
52.6837
21
-153.977
0
LINE
8
BLACK
6
CONTINUOUS
10
58.5409
20
-150.834
11
55.9694
21
-154.691
0
LINE
8
BLACK
6
CONTINUOUS
10
62.398
20
-150.977
11
62.6837
21
-150.977
0
LINE
8
BLACK
6
CONTINUOUS
10
62.6837
20
-150.977
11
62.9694
21
-151.12
0
LINE
8
BLACK
6
CONTINUOUS
10
62.9694
20
-151.12
11
63.1123
21
-151.263
0
LINE
8
BLACK
6
CONTINUOUS
10
63.1123
20
-151.263
11
63.2551
21
-151.549
0
LINE
8
BLACK
6
CONTINUOUS
10
63.2551
20
-151.549
11
63.398
21
-152.12
0
LINE
8
BLACK
6
CONTINUOUS
10
63.398
20
-152.12
11
63.398
21
-152.834
0
LINE
8
BLACK
6
CONTINUOUS
10
63.398
20
-152.834
11
63.2551
21
-153.406
0
LINE
8
BLACK
6
CONTINUOUS
10
63.2551
20
-153.406
11
63.1123
21
-153.691
0
LINE
8
BLACK
6
CONTINUOUS
10
63.1123
20
-153.691
11
62.9694
21
-153.834
0
LINE
8
BLACK
6
CONTINUOUS
10
62.9694
20
-153.834
11
62.6837
21
-153.977
0
LINE
8
BLACK
6
CONTINUOUS
10
62.6837
20
-153.977
11
62.398
21
-153.977
0
LINE
8
BLACK
6
CONTINUOUS
10
62.398
20
-153.977
11
62.1123
21
-153.834
0
LINE
8
BLACK
6
CONTINUOUS
10
62.1123
20
-153.834
11
61.9694
21
-153.691
0
LINE
8
BLACK
6
CONTINUOUS
10
61.9694
20
-153.691
11
61.8266
21
-153.406
0
LINE
8
BLACK
6
CONTINUOUS
10
61.8266
20
-153.406
11
61.6837
21
-152.834
0
LINE
8
BLACK
6
CONTINUOUS
10
61.6837
20
-152.834
11
61.6837
21
-152.12
0
LINE
8
BLACK
6
CONTINUOUS
10
61.6837
20
-152.12
11
61.8266
21
-151.549
0
LINE
8
BLACK
6
CONTINUOUS
10
61.8266
20
-151.549
11
61.9694
21
-151.263
0
LINE
8
BLACK
6
CONTINUOUS
10
61.9694
20
-151.263
11
62.1123
21
-151.12
0
LINE
8
BLACK
6
CONTINUOUS
10
62.1123
20
-151.12
11
62.398
21
-150.977
0
LINE
8
BLACK
6
CONTINUOUS
10
64.6837
20
-153.691
11
64.8266
21
-153.834
0
LINE
8
BLACK
6
CONTINUOUS
10
64.8266
20
-153.834
11
64.6837
21
-153.977
0
LINE
8
BLACK
6
CONTINUOUS
10
64.6837
20
-153.977
11
64.5409
21
-153.834
0
LINE
8
BLACK
6
CONTINUOUS
10
64.5409
20
-153.834
11
64.6837
21
-153.691
0
LINE
8
BLACK
6
CONTINUOUS
10
64.6837
20
-153.691
11
64.6837
21
-153.977
0
LINE
8
BLACK
6
CONTINUOUS
10
66.6837
20
-150.977
11
66.9694
21
-150.977
0
LINE
8
BLACK
6
CONTINUOUS
10
66.9694
20
-150.977
11
67.2551
21
-151.12
0
LINE
8
BLACK
6
CONTINUOUS
10
67.2551
20
-151.12
11
67.398
21
-151.263
0
LINE
8
BLACK
6
CONTINUOUS
10
67.398
20
-151.263
11
67.5409
21
-151.549
0
LINE
8
BLACK
6
CONTINUOUS
10
67.5409
20
-151.549
11
67.6837
21
-152.12
0
LINE
8
BLACK
6
CONTINUOUS
10
67.6837
20
-152.12
11
67.6837
21
-152.834
0
LINE
8
BLACK
6
CONTINUOUS
10
67.6837
20
-152.834
11
67.5409
21
-153.406
0
LINE
8
BLACK
6
CONTINUOUS
10
67.5409
20
-153.406
11
67.398
21
-153.691
0
LINE
8
BLACK
6
CONTINUOUS
10
67.398
20
-153.691
11
67.2551
21
-153.834
0
LINE
8
BLACK
6
CONTINUOUS
10
67.2551
20
-153.834
11
66.9694
21
-153.977
0
LINE
8
BLACK
6
CONTINUOUS
10
66.9694
20
-153.977
11
66.6837
21
-153.977
0
LINE
8
BLACK
6
CONTINUOUS
10
66.6837
20
-153.977
11
66.398
21
-153.834
0
LINE
8
BLACK
6
CONTINUOUS
10
66.398
20
-153.834
11
66.2551
21
-153.691
0
LINE
8
BLACK
6
CONTINUOUS
10
66.2551
20
-153.691
11
66.1123
21
-153.406
0
LINE
8
BLACK
6
CONTINUOUS
10
66.1123
20
-153.406
11
65.9694
21
-152.834
0
LINE
8
BLACK
6
CONTINUOUS
10
65.9694
20
-152.834
11
65.9694
21
-152.12
0
LINE
8
BLACK
6
CONTINUOUS
10
65.9694
20
-152.12
11
66.1123
21
-151.549
0
LINE
8
BLACK
6
CONTINUOUS
10
66.1123
20
-151.549
11
66.2551
21
-151.263
0
LINE
8
BLACK
6
CONTINUOUS
10
66.2551
20
-151.263
11
66.398
21
-151.12
0
LINE
8
BLACK
6
CONTINUOUS
10
66.398
20
-151.12
11
66.6837
21
-150.977
0
LINE
8
BLACK
6
CONTINUOUS
10
68.6837
20
-150.977
11
70.5409
21
-150.977
0
LINE
8
BLACK
6
CONTINUOUS
10
70.5409
20
-150.977
11
69.5409
21
-152.12
0
LINE
8
BLACK
6
CONTINUOUS
10
69.5409
20
-152.12
11
69.9694
21
-152.12
0
LINE
8
BLACK
6
CONTINUOUS
10
69.9694
20
-152.12
11
70.2551
21
-152.263
0
LINE
8
BLACK
6
CONTINUOUS
10
70.2551
20
-152.263
11
70.398
21
-152.406
0
LINE
8
BLACK
6
CONTINUOUS
10
70.398
20
-152.406
11
70.5409
21
-152.691
0
LINE
8
BLACK
6
CONTINUOUS
10
70.5409
20
-152.691
11
70.5409
21
-153.406
0
LINE
8
BLACK
6
CONTINUOUS
10
70.5409
20
-153.406
11
70.398
21
-153.691
0
LINE
8
BLACK
6
CONTINUOUS
10
70.398
20
-153.691
11
70.2551
21
-153.834
0
LINE
8
BLACK
6
CONTINUOUS
10
70.2551
20
-153.834
11
69.9694
21
-153.977
0
LINE
8
BLACK
6
CONTINUOUS
10
69.9694
20
-153.977
11
69.1123
21
-153.977
0
LINE
8
BLACK
6
CONTINUOUS
10
69.1123
20
-153.977
11
68.8266
21
-153.834
0
LINE
8
BLACK
6
CONTINUOUS
10
68.8266
20
-153.834
11
68.6837
21
-153.691
0
LINE
8
BLACK
6
CONTINUOUS
10
71.9694
20
-153.977
11
72.5409
21
-153.977
0
LINE
8
BLACK
6
CONTINUOUS
10
72.5409
20
-153.977
11
72.8266
21
-153.834
0
LINE
8
BLACK
6
CONTINUOUS
10
72.8266
20
-153.834
11
72.9694
21
-153.691
0
LINE
8
BLACK
6
CONTINUOUS
10
72.9694
20
-153.691
11
73.2551
21
-153.263
0
LINE
8
BLACK
6
CONTINUOUS
10
73.2551
20
-153.263
11
73.398
21
-152.691
0
LINE
8
BLACK
6
CONTINUOUS
10
73.398
20
-152.691
11
73.398
21
-151.549
0
LINE
8
BLACK
6
CONTINUOUS
10
73.398
20
-151.549
11
73.2551
21
-151.263
0
LINE
8
BLACK
6
CONTINUOUS
10
73.2551
20
-151.263
11
73.1123
21
-151.12
0
LINE
8
BLACK
6
CONTINUOUS
10
73.1123
20
-151.12
11
72.8266
21
-150.977
0
LINE
8
BLACK
6
CONTINUOUS
10
72.8266
20
-150.977
11
72.2551
21
-150.977
0
LINE
8
BLACK
6
CONTINUOUS
10
72.2551
20
-150.977
11
71.9694
21
-151.12
0
LINE
8
BLACK
6
CONTINUOUS
10
71.9694
20
-151.12
11
71.8266
21
-151.263
0
LINE
8
BLACK
6
CONTINUOUS
10
71.8266
20
-151.263
11
71.6837
21
-151.549
0
LINE
8
BLACK
6
CONTINUOUS
10
71.6837
20
-151.549
11
71.6837
21
-152.263
0
LINE
8
BLACK
6
CONTINUOUS
10
71.6837
20
-152.263
11
71.8266
21
-152.549
0
LINE
8
BLACK
6
CONTINUOUS
10
71.8266
20
-152.549
11
71.9694
21
-152.691
0
LINE
8
BLACK
6
CONTINUOUS
10
71.9694
20
-152.691
11
72.2551
21
-152.834
0
LINE
8
BLACK
6
CONTINUOUS
10
72.2551
20
-152.834
11
72.8266
21
-152.834
0
LINE
8
BLACK
6
CONTINUOUS
10
72.8266
20
-152.834
11
73.1123
21
-152.691
0
LINE
8
BLACK
6
CONTINUOUS
10
73.1123
20
-152.691
11
73.2551
21
-152.549
0
LINE
8
BLACK
6
CONTINUOUS
10
73.2551
20
-152.549
11
73.398
21
-152.263
0
LINE
8
BLACK
6
CONTINUOUS
10
74.5409
20
-150.977
11
74.5409
21
-151.549
0
LINE
8
BLACK
6
CONTINUOUS
10
75.6837
20
-150.977
11
75.6837
21
-151.549
0
LINE
8
BLACK
6
CONTINUOUS
10
80.1123
20
-155.12
11
79.9694
21
-154.977
0
LINE
8
BLACK
6
CONTINUOUS
10
79.9694
20
-154.977
11
79.6837
21
-154.549
0
LINE
8
BLACK
6
CONTINUOUS
10
79.6837
20
-154.549
11
79.5409
21
-154.263
0
LINE
8
BLACK
6
CONTINUOUS
10
79.5409
20
-154.263
11
79.398
21
-153.834
0
LINE
8
BLACK
6
CONTINUOUS
10
79.398
20
-153.834
11
79.2551
21
-153.12
0
LINE
8
BLACK
6
CONTINUOUS
10
79.2551
20
-153.12
11
79.2551
21
-152.549
0
LINE
8
BLACK
6
CONTINUOUS
10
79.2551
20
-152.549
11
79.398
21
-151.834
0
LINE
8
BLACK
6
CONTINUOUS
10
79.398
20
-151.834
11
79.5409
21
-151.406
0
LINE
8
BLACK
6
CONTINUOUS
10
79.5409
20
-151.406
11
79.6837
21
-151.12
0
LINE
8
BLACK
6
CONTINUOUS
10
79.6837
20
-151.12
11
79.9694
21
-150.691
0
LINE
8
BLACK
6
CONTINUOUS
10
79.9694
20
-150.691
11
80.1123
21
-150.549
0
LINE
8
BLACK
6
CONTINUOUS
10
80.9694
20
-150.977
11
82.8266
21
-150.977
0
LINE
8
BLACK
6
CONTINUOUS
10
82.8266
20
-150.977
11
81.8266
21
-152.12
0
LINE
8
BLACK
6
CONTINUOUS
10
81.8266
20
-152.12
11
82.2551
21
-152.12
0
LINE
8
BLACK
6
CONTINUOUS
10
82.2551
20
-152.12
11
82.5409
21
-152.263
0
LINE
8
BLACK
6
CONTINUOUS
10
82.5409
20
-152.263
11
82.6837
21
-152.406
0
LINE
8
BLACK
6
CONTINUOUS
10
82.6837
20
-152.406
11
82.8266
21
-152.691
0
LINE
8
BLACK
6
CONTINUOUS
10
82.8266
20
-152.691
11
82.8266
21
-153.406
0
LINE
8
BLACK
6
CONTINUOUS
10
82.8266
20
-153.406
11
82.6837
21
-153.691
0
LINE
8
BLACK
6
CONTINUOUS
10
82.6837
20
-153.691
11
82.5409
21
-153.834
0
LINE
8
BLACK
6
CONTINUOUS
10
82.5409
20
-153.834
11
82.2551
21
-153.977
0
LINE
8
BLACK
6
CONTINUOUS
10
82.2551
20
-153.977
11
81.398
21
-153.977
0
LINE
8
BLACK
6
CONTINUOUS
10
81.398
20
-153.977
11
81.1123
21
-153.834
0
LINE
8
BLACK
6
CONTINUOUS
10
81.1123
20
-153.834
11
80.9694
21
-153.691
0
LINE
8
BLACK
6
CONTINUOUS
10
83.8266
20
-150.977
11
85.6837
21
-150.977
0
LINE
8
BLACK
6
CONTINUOUS
10
85.6837
20
-150.977
11
84.6837
21
-152.12
0
LINE
8
BLACK
6
CONTINUOUS
10
84.6837
20
-152.12
11
85.1123
21
-152.12
0
LINE
8
BLACK
6
CONTINUOUS
10
85.1123
20
-152.12
11
85.398
21
-152.263
0
LINE
8
BLACK
6
CONTINUOUS
10
85.398
20
-152.263
11
85.5409
21
-152.406
0
LINE
8
BLACK
6
CONTINUOUS
10
85.5409
20
-152.406
11
85.6837
21
-152.691
0
LINE
8
BLACK
6
CONTINUOUS
10
85.6837
20
-152.691
11
85.6837
21
-153.406
0
LINE
8
BLACK
6
CONTINUOUS
10
85.6837
20
-153.406
11
85.5409
21
-153.691
0
LINE
8
BLACK
6
CONTINUOUS
10
85.5409
20
-153.691
11
85.398
21
-153.834
0
LINE
8
BLACK
6
CONTINUOUS
10
85.398
20
-153.834
11
85.1123
21
-153.977
0
LINE
8
BLACK
6
CONTINUOUS
10
85.1123
20
-153.977
11
84.2551
21
-153.977
0
LINE
8
BLACK
6
CONTINUOUS
10
84.2551
20
-153.977
11
83.9694
21
-153.834
0
LINE
8
BLACK
6
CONTINUOUS
10
83.9694
20
-153.834
11
83.8266
21
-153.691
0
LINE
8
BLACK
6
CONTINUOUS
10
89.2551
20
-153.977
11
89.2551
21
-150.977
0
LINE
8
BLACK
6
CONTINUOUS
10
90.5409
20
-153.977
11
90.5409
21
-152.406
0
LINE
8
BLACK
6
CONTINUOUS
10
90.5409
20
-152.406
11
90.398
21
-152.12
0
LINE
8
BLACK
6
CONTINUOUS
10
90.398
20
-152.12
11
90.1123
21
-151.977
0
LINE
8
BLACK
6
CONTINUOUS
10
90.1123
20
-151.977
11
89.6837
21
-151.977
0
LINE
8
BLACK
6
CONTINUOUS
10
89.6837
20
-151.977
11
89.398
21
-152.12
0
LINE
8
BLACK
6
CONTINUOUS
10
89.398
20
-152.12
11
89.2551
21
-152.263
0
LINE
8
BLACK
6
CONTINUOUS
10
92.398
20
-153.977
11
92.1123
21
-153.834
0
LINE
8
BLACK
6
CONTINUOUS
10
92.1123
20
-153.834
11
91.9694
21
-153.691
0
LINE
8
BLACK
6
CONTINUOUS
10
91.9694
20
-153.691
11
91.8266
21
-153.406
0
LINE
8
BLACK
6
CONTINUOUS
10
91.8266
20
-153.406
11
91.8266
21
-152.549
0
LINE
8
BLACK
6
CONTINUOUS
10
91.8266
20
-152.549
11
91.9694
21
-152.263
0
LINE
8
BLACK
6
CONTINUOUS
10
91.9694
20
-152.263
11
92.1123
21
-152.12
0
LINE
8
BLACK
6
CONTINUOUS
10
92.1123
20
-152.12
11
92.398
21
-151.977
0
LINE
8
BLACK
6
CONTINUOUS
10
92.398
20
-151.977
11
92.8266
21
-151.977
0
LINE
8
BLACK
6
CONTINUOUS
10
92.8266
20
-151.977
11
93.1123
21
-152.12
0
LINE
8
BLACK
6
CONTINUOUS
10
93.1123
20
-152.12
11
93.2551
21
-152.263
0
LINE
8
BLACK
6
CONTINUOUS
10
93.2551
20
-152.263
11
93.398
21
-152.549
0
LINE
8
BLACK
6
CONTINUOUS
10
93.398
20
-152.549
11
93.398
21
-153.406
0
LINE
8
BLACK
6
CONTINUOUS
10
93.398
20
-153.406
11
93.2551
21
-153.691
0
LINE
8
BLACK
6
CONTINUOUS
10
93.2551
20
-153.691
11
93.1123
21
-153.834
0
LINE
8
BLACK
6
CONTINUOUS
10
93.1123
20
-153.834
11
92.8266
21
-153.977
0
LINE
8
BLACK
6
CONTINUOUS
10
92.8266
20
-153.977
11
92.398
21
-153.977
0
LINE
8
BLACK
6
CONTINUOUS
10
95.1123
20
-153.977
11
94.8266
21
-153.834
0
LINE
8
BLACK
6
CONTINUOUS
10
94.8266
20
-153.834
11
94.6837
21
-153.549
0
LINE
8
BLACK
6
CONTINUOUS
10
94.6837
20
-153.549
11
94.6837
21
-150.977
0
LINE
8
BLACK
6
CONTINUOUS
10
97.398
20
-153.834
11
97.1123
21
-153.977
0
LINE
8
BLACK
6
CONTINUOUS
10
97.1123
20
-153.977
11
96.5409
21
-153.977
0
LINE
8
BLACK
6
CONTINUOUS
10
96.5409
20
-153.977
11
96.2551
21
-153.834
0
LINE
8
BLACK
6
CONTINUOUS
10
96.2551
20
-153.834
11
96.1123
21
-153.549
0
LINE
8
BLACK
6
CONTINUOUS
10
96.1123
20
-153.549
11
96.1123
21
-152.406
0
LINE
8
BLACK
6
CONTINUOUS
10
96.1123
20
-152.406
11
96.2551
21
-152.12
0
LINE
8
BLACK
6
CONTINUOUS
10
96.2551
20
-152.12
11
96.5409
21
-151.977
0
LINE
8
BLACK
6
CONTINUOUS
10
96.5409
20
-151.977
11
97.1123
21
-151.977
0
LINE
8
BLACK
6
CONTINUOUS
10
97.1123
20
-151.977
11
97.398
21
-152.12
0
LINE
8
BLACK
6
CONTINUOUS
10
97.398
20
-152.12
11
97.5409
21
-152.406
0
LINE
8
BLACK
6
CONTINUOUS
10
97.5409
20
-152.406
11
97.5409
21
-152.691
0
LINE
8
BLACK
6
CONTINUOUS
10
97.5409
20
-152.691
11
96.1123
21
-152.977
0
LINE
8
BLACK
6
CONTINUOUS
10
98.6837
20
-153.834
11
98.9694
21
-153.977
0
LINE
8
BLACK
6
CONTINUOUS
10
98.9694
20
-153.977
11
99.5409
21
-153.977
0
LINE
8
BLACK
6
CONTINUOUS
10
99.5409
20
-153.977
11
99.8266
21
-153.834
0
LINE
8
BLACK
6
CONTINUOUS
10
99.8266
20
-153.834
11
99.9694
21
-153.549
0
LINE
8
BLACK
6
CONTINUOUS
10
99.9694
20
-153.549
11
99.9694
21
-153.406
0
LINE
8
BLACK
6
CONTINUOUS
10
99.9694
20
-153.406
11
99.8266
21
-153.12
0
LINE
8
BLACK
6
CONTINUOUS
10
99.8266
20
-153.12
11
99.5409
21
-152.977
0
LINE
8
BLACK
6
CONTINUOUS
10
99.5409
20
-152.977
11
99.1123
21
-152.977
0
LINE
8
BLACK
6
CONTINUOUS
10
99.1123
20
-152.977
11
98.8266
21
-152.834
0
LINE
8
BLACK
6
CONTINUOUS
10
98.8266
20
-152.834
11
98.6837
21
-152.549
0
LINE
8
BLACK
6
CONTINUOUS
10
98.6837
20
-152.549
11
98.6837
21
-152.406
0
LINE
8
BLACK
6
CONTINUOUS
10
98.6837
20
-152.406
11
98.8266
21
-152.12
0
LINE
8
BLACK
6
CONTINUOUS
10
98.8266
20
-152.12
11
99.1123
21
-151.977
0
LINE
8
BLACK
6
CONTINUOUS
10
99.1123
20
-151.977
11
99.5409
21
-151.977
0
LINE
8
BLACK
6
CONTINUOUS
10
99.5409
20
-151.977
11
99.8266
21
-152.12
0
LINE
8
BLACK
6
CONTINUOUS
10
100.969
20
-155.12
11
101.112
21
-154.977
0
LINE
8
BLACK
6
CONTINUOUS
10
101.112
20
-154.977
11
101.398
21
-154.549
0
LINE
8
BLACK
6
CONTINUOUS
10
101.398
20
-154.549
11
101.541
21
-154.263
0
LINE
8
BLACK
6
CONTINUOUS
10
101.541
20
-154.263
11
101.684
21
-153.834
0
LINE
8
BLACK
6
CONTINUOUS
10
101.684
20
-153.834
11
101.827
21
-153.12
0
LINE
8
BLACK
6
CONTINUOUS
10
101.827
20
-153.12
11
101.827
21
-152.549
0
LINE
8
BLACK
6
CONTINUOUS
10
101.827
20
-152.549
11
101.684
21
-151.834
0
LINE
8
BLACK
6
CONTINUOUS
10
101.684
20
-151.834
11
101.541
21
-151.406
0
LINE
8
BLACK
6
CONTINUOUS
10
101.541
20
-151.406
11
101.398
21
-151.12
0
LINE
8
BLACK
6
CONTINUOUS
10
101.398
20
-151.12
11
101.112
21
-150.691
0
LINE
8
BLACK
6
CONTINUOUS
10
101.112
20
-150.691
11
100.969
21
-150.549
0
LINE
8
BLACK
6
CONTINUOUS
10
33.0723
20
-157.004
11
33.0723
21
-156.156
0
LINE
8
BLACK
6
CONTINUOUS
10
33.0723
20
-156.156
11
32.2237
21
-156.156
0
LINE
8
BLACK
6
CONTINUOUS
10
32.2237
20
-156.156
11
32.2237
21
-157.004
0
LINE
8
BLACK
6
CONTINUOUS
10
32.2237
20
-157.004
11
33.0723
21
-157.004
0
LINE
8
BLACK
6
CONTINUOUS
10
37.6837
20
-157.937
11
35.9694
21
-157.937
0
LINE
8
BLACK
6
CONTINUOUS
10
36.8266
20
-157.937
11
36.8266
21
-154.937
0
LINE
8
BLACK
6
CONTINUOUS
10
36.8266
20
-154.937
11
36.5409
21
-155.366
0
LINE
8
BLACK
6
CONTINUOUS
10
36.5409
20
-155.366
11
36.2551
21
-155.651
0
LINE
8
BLACK
6
CONTINUOUS
10
36.2551
20
-155.651
11
35.9694
21
-155.794
0
LINE
8
BLACK
6
CONTINUOUS
10
38.9694
20
-157.651
11
39.1123
21
-157.794
0
LINE
8
BLACK
6
CONTINUOUS
10
39.1123
20
-157.794
11
38.9694
21
-157.937
0
LINE
8
BLACK
6
CONTINUOUS
10
38.9694
20
-157.937
11
38.8266
21
-157.794
0
LINE
8
BLACK
6
CONTINUOUS
10
38.8266
20
-157.794
11
38.9694
21
-157.651
0
LINE
8
BLACK
6
CONTINUOUS
10
38.9694
20
-157.651
11
38.9694
21
-157.937
0
LINE
8
BLACK
6
CONTINUOUS
10
40.2551
20
-155.223
11
40.398
21
-155.08
0
LINE
8
BLACK
6
CONTINUOUS
10
40.398
20
-155.08
11
40.6837
21
-154.937
0
LINE
8
BLACK
6
CONTINUOUS
10
40.6837
20
-154.937
11
41.398
21
-154.937
0
LINE
8
BLACK
6
CONTINUOUS
10
41.398
20
-154.937
11
41.6837
21
-155.08
0
LINE
8
BLACK
6
CONTINUOUS
10
41.6837
20
-155.08
11
41.8266
21
-155.223
0
LINE
8
BLACK
6
CONTINUOUS
10
41.8266
20
-155.223
11
41.9694
21
-155.509
0
LINE
8
BLACK
6
CONTINUOUS
10
41.9694
20
-155.509
11
41.9694
21
-155.794
0
LINE
8
BLACK
6
CONTINUOUS
10
41.9694
20
-155.794
11
41.8266
21
-156.223
0
LINE
8
BLACK
6
CONTINUOUS
10
41.8266
20
-156.223
11
40.1123
21
-157.937
0
LINE
8
BLACK
6
CONTINUOUS
10
40.1123
20
-157.937
11
41.9694
21
-157.937
0
LINE
8
BLACK
6
CONTINUOUS
10
43.8266
20
-154.937
11
44.1123
21
-154.937
0
LINE
8
BLACK
6
CONTINUOUS
10
44.1123
20
-154.937
11
44.398
21
-155.08
0
LINE
8
BLACK
6
CONTINUOUS
10
44.398
20
-155.08
11
44.5409
21
-155.223
0
LINE
8
BLACK
6
CONTINUOUS
10
44.5409
20
-155.223
11
44.6837
21
-155.509
0
LINE
8
BLACK
6
CONTINUOUS
10
44.6837
20
-155.509
11
44.8266
21
-156.08
0
LINE
8
BLACK
6
CONTINUOUS
10
44.8266
20
-156.08
11
44.8266
21
-156.794
0
LINE
8
BLACK
6
CONTINUOUS
10
44.8266
20
-156.794
11
44.6837
21
-157.366
0
LINE
8
BLACK
6
CONTINUOUS
10
44.6837
20
-157.366
11
44.5409
21
-157.651
0
LINE
8
BLACK
6
CONTINUOUS
10
44.5409
20
-157.651
11
44.398
21
-157.794
0
LINE
8
BLACK
6
CONTINUOUS
10
44.398
20
-157.794
11
44.1123
21
-157.937
0
LINE
8
BLACK
6
CONTINUOUS
10
44.1123
20
-157.937
11
43.8266
21
-157.937
0
LINE
8
BLACK
6
CONTINUOUS
10
43.8266
20
-157.937
11
43.5409
21
-157.794
0
LINE
8
BLACK
6
CONTINUOUS
10
43.5409
20
-157.794
11
43.398
21
-157.651
0
LINE
8
BLACK
6
CONTINUOUS
10
43.398
20
-157.651
11
43.2551
21
-157.366
0
LINE
8
BLACK
6
CONTINUOUS
10
43.2551
20
-157.366
11
43.1123
21
-156.794
0
LINE
8
BLACK
6
CONTINUOUS
10
43.1123
20
-156.794
11
43.1123
21
-156.08
0
LINE
8
BLACK
6
CONTINUOUS
10
43.1123
20
-156.08
11
43.2551
21
-155.509
0
LINE
8
BLACK
6
CONTINUOUS
10
43.2551
20
-155.509
11
43.398
21
-155.223
0
LINE
8
BLACK
6
CONTINUOUS
10
43.398
20
-155.223
11
43.5409
21
-155.08
0
LINE
8
BLACK
6
CONTINUOUS
10
43.5409
20
-155.08
11
43.8266
21
-154.937
0
LINE
8
BLACK
6
CONTINUOUS
10
46.1123
20
-157.937
11
46.1123
21
-155.937
0
LINE
8
BLACK
6
CONTINUOUS
10
46.1123
20
-156.223
11
46.2551
21
-156.08
0
LINE
8
BLACK
6
CONTINUOUS
10
46.2551
20
-156.08
11
46.5409
21
-155.937
0
LINE
8
BLACK
6
CONTINUOUS
10
46.5409
20
-155.937
11
46.9694
21
-155.937
0
LINE
8
BLACK
6
CONTINUOUS
10
46.9694
20
-155.937
11
47.2551
21
-156.08
0
LINE
8
BLACK
6
CONTINUOUS
10
47.2551
20
-156.08
11
47.398
21
-156.366
0
LINE
8
BLACK
6
CONTINUOUS
10
47.398
20
-156.366
11
47.398
21
-157.937
0
LINE
8
BLACK
6
CONTINUOUS
10
47.398
20
-156.366
11
47.5409
21
-156.08
0
LINE
8
BLACK
6
CONTINUOUS
10
47.5409
20
-156.08
11
47.8266
21
-155.937
0
LINE
8
BLACK
6
CONTINUOUS
10
47.8266
20
-155.937
11
48.2551
21
-155.937
0
LINE
8
BLACK
6
CONTINUOUS
10
48.2551
20
-155.937
11
48.5409
21
-156.08
0
LINE
8
BLACK
6
CONTINUOUS
10
48.5409
20
-156.08
11
48.6837
21
-156.366
0
LINE
8
BLACK
6
CONTINUOUS
10
48.6837
20
-156.366
11
48.6837
21
-157.937
0
LINE
8
BLACK
6
CONTINUOUS
10
50.1123
20
-157.937
11
50.1123
21
-155.937
0
LINE
8
BLACK
6
CONTINUOUS
10
50.1123
20
-156.223
11
50.2551
21
-156.08
0
LINE
8
BLACK
6
CONTINUOUS
10
50.2551
20
-156.08
11
50.5409
21
-155.937
0
LINE
8
BLACK
6
CONTINUOUS
10
50.5409
20
-155.937
11
50.9694
21
-155.937
0
LINE
8
BLACK
6
CONTINUOUS
10
50.9694
20
-155.937
11
51.2551
21
-156.08
0
LINE
8
BLACK
6
CONTINUOUS
10
51.2551
20
-156.08
11
51.398
21
-156.366
0
LINE
8
BLACK
6
CONTINUOUS
10
51.398
20
-156.366
11
51.398
21
-157.937
0
LINE
8
BLACK
6
CONTINUOUS
10
51.398
20
-156.366
11
51.5409
21
-156.08
0
LINE
8
BLACK
6
CONTINUOUS
10
51.5409
20
-156.08
11
51.8266
21
-155.937
0
LINE
8
BLACK
6
CONTINUOUS
10
51.8266
20
-155.937
11
52.2551
21
-155.937
0
LINE
8
BLACK
6
CONTINUOUS
10
52.2551
20
-155.937
11
52.5409
21
-156.08
0
LINE
8
BLACK
6
CONTINUOUS
10
52.5409
20
-156.08
11
52.6837
21
-156.366
0
LINE
8
BLACK
6
CONTINUOUS
10
52.6837
20
-156.366
11
52.6837
21
-157.937
0
LINE
8
BLACK
6
CONTINUOUS
10
58.5409
20
-154.794
11
55.9694
21
-158.651
0
LINE
8
BLACK
6
CONTINUOUS
10
62.398
20
-154.937
11
62.6837
21
-154.937
0
LINE
8
BLACK
6
CONTINUOUS
10
62.6837
20
-154.937
11
62.9694
21
-155.08
0
LINE
8
BLACK
6
CONTINUOUS
10
62.9694
20
-155.08
11
63.1123
21
-155.223
0
LINE
8
BLACK
6
CONTINUOUS
10
63.1123
20
-155.223
11
63.2551
21
-155.509
0
LINE
8
BLACK
6
CONTINUOUS
10
63.2551
20
-155.509
11
63.398
21
-156.08
0
LINE
8
BLACK
6
CONTINUOUS
10
63.398
20
-156.08
11
63.398
21
-156.794
0
LINE
8
BLACK
6
CONTINUOUS
10
63.398
20
-156.794
11
63.2551
21
-157.366
0
LINE
8
BLACK
6
CONTINUOUS
10
63.2551
20
-157.366
11
63.1123
21
-157.651
0
LINE
8
BLACK
6
CONTINUOUS
10
63.1123
20
-157.651
11
62.9694
21
-157.794
0
LINE
8
BLACK
6
CONTINUOUS
10
62.9694
20
-157.794
11
62.6837
21
-157.937
0
LINE
8
BLACK
6
CONTINUOUS
10
62.6837
20
-157.937
11
62.398
21
-157.937
0
LINE
8
BLACK
6
CONTINUOUS
10
62.398
20
-157.937
11
62.1123
21
-157.794
0
LINE
8
BLACK
6
CONTINUOUS
10
62.1123
20
-157.794
11
61.9694
21
-157.651
0
LINE
8
BLACK
6
CONTINUOUS
10
61.9694
20
-157.651
11
61.8266
21
-157.366
0
LINE
8
BLACK
6
CONTINUOUS
10
61.8266
20
-157.366
11
61.6837
21
-156.794
0
LINE
8
BLACK
6
CONTINUOUS
10
61.6837
20
-156.794
11
61.6837
21
-156.08
0
LINE
8
BLACK
6
CONTINUOUS
10
61.6837
20
-156.08
11
61.8266
21
-155.509
0
LINE
8
BLACK
6
CONTINUOUS
10
61.8266
20
-155.509
11
61.9694
21
-155.223
0
LINE
8
BLACK
6
CONTINUOUS
10
61.9694
20
-155.223
11
62.1123
21
-155.08
0
LINE
8
BLACK
6
CONTINUOUS
10
62.1123
20
-155.08
11
62.398
21
-154.937
0
LINE
8
BLACK
6
CONTINUOUS
10
64.6837
20
-157.651
11
64.8266
21
-157.794
0
LINE
8
BLACK
6
CONTINUOUS
10
64.8266
20
-157.794
11
64.6837
21
-157.937
0
LINE
8
BLACK
6
CONTINUOUS
10
64.6837
20
-157.937
11
64.5409
21
-157.794
0
LINE
8
BLACK
6
CONTINUOUS
10
64.5409
20
-157.794
11
64.6837
21
-157.651
0
LINE
8
BLACK
6
CONTINUOUS
10
64.6837
20
-157.651
11
64.6837
21
-157.937
0
LINE
8
BLACK
6
CONTINUOUS
10
66.6837
20
-154.937
11
66.9694
21
-154.937
0
LINE
8
BLACK
6
CONTINUOUS
10
66.9694
20
-154.937
11
67.2551
21
-155.08
0
LINE
8
BLACK
6
CONTINUOUS
10
67.2551
20
-155.08
11
67.398
21
-155.223
0
LINE
8
BLACK
6
CONTINUOUS
10
67.398
20
-155.223
11
67.5409
21
-155.509
0
LINE
8
BLACK
6
CONTINUOUS
10
67.5409
20
-155.509
11
67.6837
21
-156.08
0
LINE
8
BLACK
6
CONTINUOUS
10
67.6837
20
-156.08
11
67.6837
21
-156.794
0
LINE
8
BLACK
6
CONTINUOUS
10
67.6837
20
-156.794
11
67.5409
21
-157.366
0
LINE
8
BLACK
6
CONTINUOUS
10
67.5409
20
-157.366
11
67.398
21
-157.651
0
LINE
8
BLACK
6
CONTINUOUS
10
67.398
20
-157.651
11
67.2551
21
-157.794
0
LINE
8
BLACK
6
CONTINUOUS
10
67.2551
20
-157.794
11
66.9694
21
-157.937
0
LINE
8
BLACK
6
CONTINUOUS
10
66.9694
20
-157.937
11
66.6837
21
-157.937
0
LINE
8
BLACK
6
CONTINUOUS
10
66.6837
20
-157.937
11
66.398
21
-157.794
0
LINE
8
BLACK
6
CONTINUOUS
10
66.398
20
-157.794
11
66.2551
21
-157.651
0
LINE
8
BLACK
6
CONTINUOUS
10
66.2551
20
-157.651
11
66.1123
21
-157.366
0
LINE
8
BLACK
6
CONTINUOUS
10
66.1123
20
-157.366
11
65.9694
21
-156.794
0
LINE
8
BLACK
6
CONTINUOUS
10
65.9694
20
-156.794
11
65.9694
21
-156.08
0
LINE
8
BLACK
6
CONTINUOUS
10
65.9694
20
-156.08
11
66.1123
21
-155.509
0
LINE
8
BLACK
6
CONTINUOUS
10
66.1123
20
-155.509
11
66.2551
21
-155.223
0
LINE
8
BLACK
6
CONTINUOUS
10
66.2551
20
-155.223
11
66.398
21
-155.08
0
LINE
8
BLACK
6
CONTINUOUS
10
66.398
20
-155.08
11
66.6837
21
-154.937
0
LINE
8
BLACK
6
CONTINUOUS
10
70.2551
20
-155.937
11
70.2551
21
-157.937
0
LINE
8
BLACK
6
CONTINUOUS
10
69.5409
20
-154.794
11
68.8266
21
-156.937
0
LINE
8
BLACK
6
CONTINUOUS
10
68.8266
20
-156.937
11
70.6837
21
-156.937
0
LINE
8
BLACK
6
CONTINUOUS
10
71.5409
20
-154.937
11
73.5409
21
-154.937
0
LINE
8
BLACK
6
CONTINUOUS
10
73.5409
20
-154.937
11
72.2551
21
-157.937
0
LINE
8
BLACK
6
CONTINUOUS
10
74.5409
20
-154.937
11
74.5409
21
-155.509
0
LINE
8
BLACK
6
CONTINUOUS
10
75.6837
20
-154.937
11
75.6837
21
-155.509
0
LINE
8
BLACK
6
CONTINUOUS
10
80.1123
20
-159.08
11
79.9694
21
-158.937
0
LINE
8
BLACK
6
CONTINUOUS
10
79.9694
20
-158.937
11
79.6837
21
-158.509
0
LINE
8
BLACK
6
CONTINUOUS
10
79.6837
20
-158.509
11
79.5409
21
-158.223
0
LINE
8
BLACK
6
CONTINUOUS
10
79.5409
20
-158.223
11
79.398
21
-157.794
0
LINE
8
BLACK
6
CONTINUOUS
10
79.398
20
-157.794
11
79.2551
21
-157.08
0
LINE
8
BLACK
6
CONTINUOUS
10
79.2551
20
-157.08
11
79.2551
21
-156.509
0
LINE
8
BLACK
6
CONTINUOUS
10
79.2551
20
-156.509
11
79.398
21
-155.794
0
LINE
8
BLACK
6
CONTINUOUS
10
79.398
20
-155.794
11
79.5409
21
-155.366
0
LINE
8
BLACK
6
CONTINUOUS
10
79.5409
20
-155.366
11
79.6837
21
-155.08
0
LINE
8
BLACK
6
CONTINUOUS
10
79.6837
20
-155.08
11
79.9694
21
-154.651
0
LINE
8
BLACK
6
CONTINUOUS
10
79.9694
20
-154.651
11
80.1123
21
-154.509
0
LINE
8
BLACK
6
CONTINUOUS
10
81.1123
20
-155.223
11
81.2551
21
-155.08
0
LINE
8
BLACK
6
CONTINUOUS
10
81.2551
20
-155.08
11
81.5409
21
-154.937
0
LINE
8
BLACK
6
CONTINUOUS
10
81.5409
20
-154.937
11
82.2551
21
-154.937
0
LINE
8
BLACK
6
CONTINUOUS
10
82.2551
20
-154.937
11
82.5409
21
-155.08
0
LINE
8
BLACK
6
CONTINUOUS
10
82.5409
20
-155.08
11
82.6837
21
-155.223
0
LINE
8
BLACK
6
CONTINUOUS
10
82.6837
20
-155.223
11
82.8266
21
-155.509
0
LINE
8
BLACK
6
CONTINUOUS
10
82.8266
20
-155.509
11
82.8266
21
-155.794
0
LINE
8
BLACK
6
CONTINUOUS
10
82.8266
20
-155.794
11
82.6837
21
-156.223
0
LINE
8
BLACK
6
CONTINUOUS
10
82.6837
20
-156.223
11
80.9694
21
-157.937
0
LINE
8
BLACK
6
CONTINUOUS
10
80.9694
20
-157.937
11
82.8266
21
-157.937
0
LINE
8
BLACK
6
CONTINUOUS
10
85.6837
20
-157.937
11
83.9694
21
-157.937
0
LINE
8
BLACK
6
CONTINUOUS
10
84.8266
20
-157.937
11
84.8266
21
-154.937
0
LINE
8
BLACK
6
CONTINUOUS
10
84.8266
20
-154.937
11
84.5409
21
-155.366
0
LINE
8
BLACK
6
CONTINUOUS
10
84.5409
20
-155.366
11
84.2551
21
-155.651
0
LINE
8
BLACK
6
CONTINUOUS
10
84.2551
20
-155.651
11
83.9694
21
-155.794
0
LINE
8
BLACK
6
CONTINUOUS
10
89.2551
20
-157.937
11
89.2551
21
-154.937
0
LINE
8
BLACK
6
CONTINUOUS
10
90.5409
20
-157.937
11
90.5409
21
-156.366
0
LINE
8
BLACK
6
CONTINUOUS
10
90.5409
20
-156.366
11
90.398
21
-156.08
0
LINE
8
BLACK
6
CONTINUOUS
10
90.398
20
-156.08
11
90.1123
21
-155.937
0
LINE
8
BLACK
6
CONTINUOUS
10
90.1123
20
-155.937
11
89.6837
21
-155.937
0
LINE
8
BLACK
6
CONTINUOUS
10
89.6837
20
-155.937
11
89.398
21
-156.08
0
LINE
8
BLACK
6
CONTINUOUS
10
89.398
20
-156.08
11
89.2551
21
-156.223
0
LINE
8
BLACK
6
CONTINUOUS
10
92.398
20
-157.937
11
92.1123
21
-157.794
0
LINE
8
BLACK
6
CONTINUOUS
10
92.1123
20
-157.794
11
91.9694
21
-157.651
0
LINE
8
BLACK
6
CONTINUOUS
10
91.9694
20
-157.651
11
91.8266
21
-157.366
0
LINE
8
BLACK
6
CONTINUOUS
10
91.8266
20
-157.366
11
91.8266
21
-156.509
0
LINE
8
BLACK
6
CONTINUOUS
10
91.8266
20
-156.509
11
91.9694
21
-156.223
0
LINE
8
BLACK
6
CONTINUOUS
10
91.9694
20
-156.223
11
92.1123
21
-156.08
0
LINE
8
BLACK
6
CONTINUOUS
10
92.1123
20
-156.08
11
92.398
21
-155.937
0
LINE
8
BLACK
6
CONTINUOUS
10
92.398
20
-155.937
11
92.8266
21
-155.937
0
LINE
8
BLACK
6
CONTINUOUS
10
92.8266
20
-155.937
11
93.1123
21
-156.08
0
LINE
8
BLACK
6
CONTINUOUS
10
93.1123
20
-156.08
11
93.2551
21
-156.223
0
LINE
8
BLACK
6
CONTINUOUS
10
93.2551
20
-156.223
11
93.398
21
-156.509
0
LINE
8
BLACK
6
CONTINUOUS
10
93.398
20
-156.509
11
93.398
21
-157.366
0
LINE
8
BLACK
6
CONTINUOUS
10
93.398
20
-157.366
11
93.2551
21
-157.651
0
LINE
8
BLACK
6
CONTINUOUS
10
93.2551
20
-157.651
11
93.1123
21
-157.794
0
LINE
8
BLACK
6
CONTINUOUS
10
93.1123
20
-157.794
11
92.8266
21
-157.937
0
LINE
8
BLACK
6
CONTINUOUS
10
92.8266
20
-157.937
11
92.398
21
-157.937
0
LINE
8
BLACK
6
CONTINUOUS
10
95.1123
20
-157.937
11
94.8266
21
-157.794
0
LINE
8
BLACK
6
CONTINUOUS
10
94.8266
20
-157.794
11
94.6837
21
-157.509
0
LINE
8
BLACK
6
CONTINUOUS
10
94.6837
20
-157.509
11
94.6837
21
-154.937
0
LINE
8
BLACK
6
CONTINUOUS
10
97.398
20
-157.794
11
97.1123
21
-157.937
0
LINE
8
BLACK
6
CONTINUOUS
10
97.1123
20
-157.937
11
96.5409
21
-157.937
0
LINE
8
BLACK
6
CONTINUOUS
10
96.5409
20
-157.937
11
96.2551
21
-157.794
0
LINE
8
BLACK
6
CONTINUOUS
10
96.2551
20
-157.794
11
96.1123
21
-157.509
0
LINE
8
BLACK
6
CONTINUOUS
10
96.1123
20
-157.509
11
96.1123
21
-156.366
0
LINE
8
BLACK
6
CONTINUOUS
10
96.1123
20
-156.366
11
96.2551
21
-156.08
0
LINE
8
BLACK
6
CONTINUOUS
10
96.2551
20
-156.08
11
96.5409
21
-155.937
0
LINE
8
BLACK
6
CONTINUOUS
10
96.5409
20
-155.937
11
97.1123
21
-155.937
0
LINE
8
BLACK
6
CONTINUOUS
10
97.1123
20
-155.937
11
97.398
21
-156.08
0
LINE
8
BLACK
6
CONTINUOUS
10
97.398
20
-156.08
11
97.5409
21
-156.366
0
LINE
8
BLACK
6
CONTINUOUS
10
97.5409
20
-156.366
11
97.5409
21
-156.651
0
LINE
8
BLACK
6
CONTINUOUS
10
97.5409
20
-156.651
11
96.1123
21
-156.937
0
LINE
8
BLACK
6
CONTINUOUS
10
98.6837
20
-157.794
11
98.9694
21
-157.937
0
LINE
8
BLACK
6
CONTINUOUS
10
98.9694
20
-157.937
11
99.5409
21
-157.937
0
LINE
8
BLACK
6
CONTINUOUS
10
99.5409
20
-157.937
11
99.8266
21
-157.794
0
LINE
8
BLACK
6
CONTINUOUS
10
99.8266
20
-157.794
11
99.9694
21
-157.509
0
LINE
8
BLACK
6
CONTINUOUS
10
99.9694
20
-157.509
11
99.9694
21
-157.366
0
LINE
8
BLACK
6
CONTINUOUS
10
99.9694
20
-157.366
11
99.8266
21
-157.08
0
LINE
8
BLACK
6
CONTINUOUS
10
99.8266
20
-157.08
11
99.5409
21
-156.937
0
LINE
8
BLACK
6
CONTINUOUS
10
99.5409
20
-156.937
11
99.1123
21
-156.937
0
LINE
8
BLACK
6
CONTINUOUS
10
99.1123
20
-156.937
11
98.8266
21
-156.794
0
LINE
8
BLACK
6
CONTINUOUS
10
98.8266
20
-156.794
11
98.6837
21
-156.509
0
LINE
8
BLACK
6
CONTINUOUS
10
98.6837
20
-156.509
11
98.6837
21
-156.366
0
LINE
8
BLACK
6
CONTINUOUS
10
98.6837
20
-156.366
11
98.8266
21
-156.08
0
LINE
8
BLACK
6
CONTINUOUS
10
98.8266
20
-156.08
11
99.1123
21
-155.937
0
LINE
8
BLACK
6
CONTINUOUS
10
99.1123
20
-155.937
11
99.5409
21
-155.937
0
LINE
8
BLACK
6
CONTINUOUS
10
99.5409
20
-155.937
11
99.8266
21
-156.08
0
LINE
8
BLACK
6
CONTINUOUS
10
100.969
20
-159.08
11
101.112
21
-158.937
0
LINE
8
BLACK
6
CONTINUOUS
10
101.112
20
-158.937
11
101.398
21
-158.509
0
LINE
8
BLACK
6
CONTINUOUS
10
101.398
20
-158.509
11
101.541
21
-158.223
0
LINE
8
BLACK
6
CONTINUOUS
10
101.541
20
-158.223
11
101.684
21
-157.794
0
LINE
8
BLACK
6
CONTINUOUS
10
101.684
20
-157.794
11
101.827
21
-157.08
0
LINE
8
BLACK
6
CONTINUOUS
10
101.827
20
-157.08
11
101.827
21
-156.509
0
LINE
8
BLACK
6
CONTINUOUS
10
101.827
20
-156.509
11
101.684
21
-155.794
0
LINE
8
BLACK
6
CONTINUOUS
10
101.684
20
-155.794
11
101.541
21
-155.366
0
LINE
8
BLACK
6
CONTINUOUS
10
101.541
20
-155.366
11
101.398
21
-155.08
0
LINE
8
BLACK
6
CONTINUOUS
10
101.398
20
-155.08
11
101.112
21
-154.651
0
LINE
8
BLACK
6
CONTINUOUS
10
101.112
20
-154.651
11
100.969
21
-154.509
0
LINE
8
BLACK
6
CONTINUOUS
10
32.498
20
-161.29
11
33.248
21
-160.54
0
LINE
8
BLACK
6
CONTINUOUS
10
33.248
20
-160.54
11
32.498
21
-159.79
0
LINE
8
BLACK
6
CONTINUOUS
10
32.498
20
-159.79
11
31.748
21
-160.54
0
LINE
8
BLACK
6
CONTINUOUS
10
31.748
20
-160.54
11
32.498
21
-161.29
0
LINE
8
BLACK
6
CONTINUOUS
10
37.6837
20
-161.897
11
35.9694
21
-161.897
0
LINE
8
BLACK
6
CONTINUOUS
10
36.8266
20
-161.897
11
36.8266
21
-158.897
0
LINE
8
BLACK
6
CONTINUOUS
10
36.8266
20
-158.897
11
36.5409
21
-159.326
0
LINE
8
BLACK
6
CONTINUOUS
10
36.5409
20
-159.326
11
36.2551
21
-159.611
0
LINE
8
BLACK
6
CONTINUOUS
10
36.2551
20
-159.611
11
35.9694
21
-159.754
0
LINE
8
BLACK
6
CONTINUOUS
10
38.9694
20
-161.611
11
39.1123
21
-161.754
0
LINE
8
BLACK
6
CONTINUOUS
10
39.1123
20
-161.754
11
38.9694
21
-161.897
0
LINE
8
BLACK
6
CONTINUOUS
10
38.9694
20
-161.897
11
38.8266
21
-161.754
0
LINE
8
BLACK
6
CONTINUOUS
10
38.8266
20
-161.754
11
38.9694
21
-161.611
0
LINE
8
BLACK
6
CONTINUOUS
10
38.9694
20
-161.611
11
38.9694
21
-161.897
0
LINE
8
BLACK
6
CONTINUOUS
10
41.8266
20
-158.897
11
40.398
21
-158.897
0
LINE
8
BLACK
6
CONTINUOUS
10
40.398
20
-158.897
11
40.2551
21
-160.326
0
LINE
8
BLACK
6
CONTINUOUS
10
40.2551
20
-160.326
11
40.398
21
-160.183
0
LINE
8
BLACK
6
CONTINUOUS
10
40.398
20
-160.183
11
40.6837
21
-160.04
0
LINE
8
BLACK
6
CONTINUOUS
10
40.6837
20
-160.04
11
41.398
21
-160.04
0
LINE
8
BLACK
6
CONTINUOUS
10
41.398
20
-160.04
11
41.6837
21
-160.183
0
LINE
8
BLACK
6
CONTINUOUS
10
41.6837
20
-160.183
11
41.8266
21
-160.326
0
LINE
8
BLACK
6
CONTINUOUS
10
41.8266
20
-160.326
11
41.9694
21
-160.611
0
LINE
8
BLACK
6
CONTINUOUS
10
41.9694
20
-160.611
11
41.9694
21
-161.326
0
LINE
8
BLACK
6
CONTINUOUS
10
41.9694
20
-161.326
11
41.8266
21
-161.611
0
LINE
8
BLACK
6
CONTINUOUS
10
41.8266
20
-161.611
11
41.6837
21
-161.754
0
LINE
8
BLACK
6
CONTINUOUS
10
41.6837
20
-161.754
11
41.398
21
-161.897
0
LINE
8
BLACK
6
CONTINUOUS
10
41.398
20
-161.897
11
40.6837
21
-161.897
0
LINE
8
BLACK
6
CONTINUOUS
10
40.6837
20
-161.897
11
40.398
21
-161.754
0
LINE
8
BLACK
6
CONTINUOUS
10
40.398
20
-161.754
11
40.2551
21
-161.611
0
LINE
8
BLACK
6
CONTINUOUS
10
43.8266
20
-158.897
11
44.1123
21
-158.897
0
LINE
8
BLACK
6
CONTINUOUS
10
44.1123
20
-158.897
11
44.398
21
-159.04
0
LINE
8
BLACK
6
CONTINUOUS
10
44.398
20
-159.04
11
44.5409
21
-159.183
0
LINE
8
BLACK
6
CONTINUOUS
10
44.5409
20
-159.183
11
44.6837
21
-159.469
0
LINE
8
BLACK
6
CONTINUOUS
10
44.6837
20
-159.469
11
44.8266
21
-160.04
0
LINE
8
BLACK
6
CONTINUOUS
10
44.8266
20
-160.04
11
44.8266
21
-160.754
0
LINE
8
BLACK
6
CONTINUOUS
10
44.8266
20
-160.754
11
44.6837
21
-161.326
0
LINE
8
BLACK
6
CONTINUOUS
10
44.6837
20
-161.326
11
44.5409
21
-161.611
0
LINE
8
BLACK
6
CONTINUOUS
10
44.5409
20
-161.611
11
44.398
21
-161.754
0
LINE
8
BLACK
6
CONTINUOUS
10
44.398
20
-161.754
11
44.1123
21
-161.897
0
LINE
8
BLACK
6
CONTINUOUS
10
44.1123
20
-161.897
11
43.8266
21
-161.897
0
LINE
8
BLACK
6
CONTINUOUS
10
43.8266
20
-161.897
11
43.5409
21
-161.754
0
LINE
8
BLACK
6
CONTINUOUS
10
43.5409
20
-161.754
11
43.398
21
-161.611
0
LINE
8
BLACK
6
CONTINUOUS
10
43.398
20
-161.611
11
43.2551
21
-161.326
0
LINE
8
BLACK
6
CONTINUOUS
10
43.2551
20
-161.326
11
43.1123
21
-160.754
0
LINE
8
BLACK
6
CONTINUOUS
10
43.1123
20
-160.754
11
43.1123
21
-160.04
0
LINE
8
BLACK
6
CONTINUOUS
10
43.1123
20
-160.04
11
43.2551
21
-159.469
0
LINE
8
BLACK
6
CONTINUOUS
10
43.2551
20
-159.469
11
43.398
21
-159.183
0
LINE
8
BLACK
6
CONTINUOUS
10
43.398
20
-159.183
11
43.5409
21
-159.04
0
LINE
8
BLACK
6
CONTINUOUS
10
43.5409
20
-159.04
11
43.8266
21
-158.897
0
LINE
8
BLACK
6
CONTINUOUS
10
46.1123
20
-161.897
11
46.1123
21
-159.897
0
LINE
8
BLACK
6
CONTINUOUS
10
46.1123
20
-160.183
11
46.2551
21
-160.04
0
LINE
8
BLACK
6
CONTINUOUS
10
46.2551
20
-160.04
11
46.5409
21
-159.897
0
LINE
8
BLACK
6
CONTINUOUS
10
46.5409
20
-159.897
11
46.9694
21
-159.897
0
LINE
8
BLACK
6
CONTINUOUS
10
46.9694
20
-159.897
11
47.2551
21
-160.04
0
LINE
8
BLACK
6
CONTINUOUS
10
47.2551
20
-160.04
11
47.398
21
-160.326
0
LINE
8
BLACK
6
CONTINUOUS
10
47.398
20
-160.326
11
47.398
21
-161.897
0
LINE
8
BLACK
6
CONTINUOUS
10
47.398
20
-160.326
11
47.5409
21
-160.04
0
LINE
8
BLACK
6
CONTINUOUS
10
47.5409
20
-160.04
11
47.8266
21
-159.897
0
LINE
8
BLACK
6
CONTINUOUS
10
47.8266
20
-159.897
11
48.2551
21
-159.897
0
LINE
8
BLACK
6
CONTINUOUS
10
48.2551
20
-159.897
11
48.5409
21
-160.04
0
LINE
8
BLACK
6
CONTINUOUS
10
48.5409
20
-160.04
11
48.6837
21
-160.326
0
LINE
8
BLACK
6
CONTINUOUS
10
48.6837
20
-160.326
11
48.6837
21
-161.897
0
LINE
8
BLACK
6
CONTINUOUS
10
50.1123
20
-161.897
11
50.1123
21
-159.897
0
LINE
8
BLACK
6
CONTINUOUS
10
50.1123
20
-160.183
11
50.2551
21
-160.04
0
LINE
8
BLACK
6
CONTINUOUS
10
50.2551
20
-160.04
11
50.5409
21
-159.897
0
LINE
8
BLACK
6
CONTINUOUS
10
50.5409
20
-159.897
11
50.9694
21
-159.897
0
LINE
8
BLACK
6
CONTINUOUS
10
50.9694
20
-159.897
11
51.2551
21
-160.04
0
LINE
8
BLACK
6
CONTINUOUS
10
51.2551
20
-160.04
11
51.398
21
-160.326
0
LINE
8
BLACK
6
CONTINUOUS
10
51.398
20
-160.326
11
51.398
21
-161.897
0
LINE
8
BLACK
6
CONTINUOUS
10
51.398
20
-160.326
11
51.5409
21
-160.04
0
LINE
8
BLACK
6
CONTINUOUS
10
51.5409
20
-160.04
11
51.8266
21
-159.897
0
LINE
8
BLACK
6
CONTINUOUS
10
51.8266
20
-159.897
11
52.2551
21
-159.897
0
LINE
8
BLACK
6
CONTINUOUS
10
52.2551
20
-159.897
11
52.5409
21
-160.04
0
LINE
8
BLACK
6
CONTINUOUS
10
52.5409
20
-160.04
11
52.6837
21
-160.326
0
LINE
8
BLACK
6
CONTINUOUS
10
52.6837
20
-160.326
11
52.6837
21
-161.897
0
LINE
8
BLACK
6
CONTINUOUS
10
58.5409
20
-158.754
11
55.9694
21
-162.611
0
LINE
8
BLACK
6
CONTINUOUS
10
62.398
20
-158.897
11
62.6837
21
-158.897
0
LINE
8
BLACK
6
CONTINUOUS
10
62.6837
20
-158.897
11
62.9694
21
-159.04
0
LINE
8
BLACK
6
CONTINUOUS
10
62.9694
20
-159.04
11
63.1123
21
-159.183
0
LINE
8
BLACK
6
CONTINUOUS
10
63.1123
20
-159.183
11
63.2551
21
-159.469
0
LINE
8
BLACK
6
CONTINUOUS
10
63.2551
20
-159.469
11
63.398
21
-160.04
0
LINE
8
BLACK
6
CONTINUOUS
10
63.398
20
-160.04
11
63.398
21
-160.754
0
LINE
8
BLACK
6
CONTINUOUS
10
63.398
20
-160.754
11
63.2551
21
-161.326
0
LINE
8
BLACK
6
CONTINUOUS
10
63.2551
20
-161.326
11
63.1123
21
-161.611
0
LINE
8
BLACK
6
CONTINUOUS
10
63.1123
20
-161.611
11
62.9694
21
-161.754
0
LINE
8
BLACK
6
CONTINUOUS
10
62.9694
20
-161.754
11
62.6837
21
-161.897
0
LINE
8
BLACK
6
CONTINUOUS
10
62.6837
20
-161.897
11
62.398
21
-161.897
0
LINE
8
BLACK
6
CONTINUOUS
10
62.398
20
-161.897
11
62.1123
21
-161.754
0
LINE
8
BLACK
6
CONTINUOUS
10
62.1123
20
-161.754
11
61.9694
21
-161.611
0
LINE
8
BLACK
6
CONTINUOUS
10
61.9694
20
-161.611
11
61.8266
21
-161.326
0
LINE
8
BLACK
6
CONTINUOUS
10
61.8266
20
-161.326
11
61.6837
21
-160.754
0
LINE
8
BLACK
6
CONTINUOUS
10
61.6837
20
-160.754
11
61.6837
21
-160.04
0
LINE
8
BLACK
6
CONTINUOUS
10
61.6837
20
-160.04
11
61.8266
21
-159.469
0
LINE
8
BLACK
6
CONTINUOUS
10
61.8266
20
-159.469
11
61.9694
21
-159.183
0
LINE
8
BLACK
6
CONTINUOUS
10
61.9694
20
-159.183
11
62.1123
21
-159.04
0
LINE
8
BLACK
6
CONTINUOUS
10
62.1123
20
-159.04
11
62.398
21
-158.897
0
LINE
8
BLACK
6
CONTINUOUS
10
64.6837
20
-161.611
11
64.8266
21
-161.754
0
LINE
8
BLACK
6
CONTINUOUS
10
64.8266
20
-161.754
11
64.6837
21
-161.897
0
LINE
8
BLACK
6
CONTINUOUS
10
64.6837
20
-161.897
11
64.5409
21
-161.754
0
LINE
8
BLACK
6
CONTINUOUS
10
64.5409
20
-161.754
11
64.6837
21
-161.611
0
LINE
8
BLACK
6
CONTINUOUS
10
64.6837
20
-161.611
11
64.6837
21
-161.897
0
LINE
8
BLACK
6
CONTINUOUS
10
66.6837
20
-158.897
11
66.9694
21
-158.897
0
LINE
8
BLACK
6
CONTINUOUS
10
66.9694
20
-158.897
11
67.2551
21
-159.04
0
LINE
8
BLACK
6
CONTINUOUS
10
67.2551
20
-159.04
11
67.398
21
-159.183
0
LINE
8
BLACK
6
CONTINUOUS
10
67.398
20
-159.183
11
67.5409
21
-159.469
0
LINE
8
BLACK
6
CONTINUOUS
10
67.5409
20
-159.469
11
67.6837
21
-160.04
0
LINE
8
BLACK
6
CONTINUOUS
10
67.6837
20
-160.04
11
67.6837
21
-160.754
0
LINE
8
BLACK
6
CONTINUOUS
10
67.6837
20
-160.754
11
67.5409
21
-161.326
0
LINE
8
BLACK
6
CONTINUOUS
10
67.5409
20
-161.326
11
67.398
21
-161.611
0
LINE
8
BLACK
6
CONTINUOUS
10
67.398
20
-161.611
11
67.2551
21
-161.754
0
LINE
8
BLACK
6
CONTINUOUS
10
67.2551
20
-161.754
11
66.9694
21
-161.897
0
LINE
8
BLACK
6
CONTINUOUS
10
66.9694
20
-161.897
11
66.6837
21
-161.897
0
LINE
8
BLACK
6
CONTINUOUS
10
66.6837
20
-161.897
11
66.398
21
-161.754
0
LINE
8
BLACK
6
CONTINUOUS
10
66.398
20
-161.754
11
66.2551
21
-161.611
0
LINE
8
BLACK
6
CONTINUOUS
10
66.2551
20
-161.611
11
66.1123
21
-161.326
0
LINE
8
BLACK
6
CONTINUOUS
10
66.1123
20
-161.326
11
65.9694
21
-160.754
0
LINE
8
BLACK
6
CONTINUOUS
10
65.9694
20
-160.754
11
65.9694
21
-160.04
0
LINE
8
BLACK
6
CONTINUOUS
10
65.9694
20
-160.04
11
66.1123
21
-159.469
0
LINE
8
BLACK
6
CONTINUOUS
10
66.1123
20
-159.469
11
66.2551
21
-159.183
0
LINE
8
BLACK
6
CONTINUOUS
10
66.2551
20
-159.183
11
66.398
21
-159.04
0
LINE
8
BLACK
6
CONTINUOUS
10
66.398
20
-159.04
11
66.6837
21
-158.897
0
LINE
8
BLACK
6
CONTINUOUS
10
70.398
20
-158.897
11
68.9694
21
-158.897
0
LINE
8
BLACK
6
CONTINUOUS
10
68.9694
20
-158.897
11
68.8266
21
-160.326
0
LINE
8
BLACK
6
CONTINUOUS
10
68.8266
20
-160.326
11
68.9694
21
-160.183
0
LINE
8
BLACK
6
CONTINUOUS
10
68.9694
20
-160.183
11
69.2551
21
-160.04
0
LINE
8
BLACK
6
CONTINUOUS
10
69.2551
20
-160.04
11
69.9694
21
-160.04
0
LINE
8
BLACK
6
CONTINUOUS
10
69.9694
20
-160.04
11
70.2551
21
-160.183
0
LINE
8
BLACK
6
CONTINUOUS
10
70.2551
20
-160.183
11
70.398
21
-160.326
0
LINE
8
BLACK
6
CONTINUOUS
10
70.398
20
-160.326
11
70.5409
21
-160.611
0
LINE
8
BLACK
6
CONTINUOUS
10
70.5409
20
-160.611
11
70.5409
21
-161.326
0
LINE
8
BLACK
6
CONTINUOUS
10
70.5409
20
-161.326
11
70.398
21
-161.611
0
LINE
8
BLACK
6
CONTINUOUS
10
70.398
20
-161.611
11
70.2551
21
-161.754
0
LINE
8
BLACK
6
CONTINUOUS
10
70.2551
20
-161.754
11
69.9694
21
-161.897
0
LINE
8
BLACK
6
CONTINUOUS
10
69.9694
20
-161.897
11
69.2551
21
-161.897
0
LINE
8
BLACK
6
CONTINUOUS
10
69.2551
20
-161.897
11
68.9694
21
-161.754
0
LINE
8
BLACK
6
CONTINUOUS
10
68.9694
20
-161.754
11
68.8266
21
-161.611
0
LINE
8
BLACK
6
CONTINUOUS
10
71.9694
20
-161.897
11
72.5409
21
-161.897
0
LINE
8
BLACK
6
CONTINUOUS
10
72.5409
20
-161.897
11
72.8266
21
-161.754
0
LINE
8
BLACK
6
CONTINUOUS
10
72.8266
20
-161.754
11
72.9694
21
-161.611
0
LINE
8
BLACK
6
CONTINUOUS
10
72.9694
20
-161.611
11
73.2551
21
-161.183
0
LINE
8
BLACK
6
CONTINUOUS
10
73.2551
20
-161.183
11
73.398
21
-160.611
0
LINE
8
BLACK
6
CONTINUOUS
10
73.398
20
-160.611
11
73.398
21
-159.469
0
LINE
8
BLACK
6
CONTINUOUS
10
73.398
20
-159.469
11
73.2551
21
-159.183
0
LINE
8
BLACK
6
CONTINUOUS
10
73.2551
20
-159.183
11
73.1123
21
-159.04
0
LINE
8
BLACK
6
CONTINUOUS
10
73.1123
20
-159.04
11
72.8266
21
-158.897
0
LINE
8
BLACK
6
CONTINUOUS
10
72.8266
20
-158.897
11
72.2551
21
-158.897
0
LINE
8
BLACK
6
CONTINUOUS
10
72.2551
20
-158.897
11
71.9694
21
-159.04
0
LINE
8
BLACK
6
CONTINUOUS
10
71.9694
20
-159.04
11
71.8266
21
-159.183
0
LINE
8
BLACK
6
CONTINUOUS
10
71.8266
20
-159.183
11
71.6837
21
-159.469
0
LINE
8
BLACK
6
CONTINUOUS
10
71.6837
20
-159.469
11
71.6837
21
-160.183
0
LINE
8
BLACK
6
CONTINUOUS
10
71.6837
20
-160.183
11
71.8266
21
-160.469
0
LINE
8
BLACK
6
CONTINUOUS
10
71.8266
20
-160.469
11
71.9694
21
-160.611
0
LINE
8
BLACK
6
CONTINUOUS
10
71.9694
20
-160.611
11
72.2551
21
-160.754
0
LINE
8
BLACK
6
CONTINUOUS
10
72.2551
20
-160.754
11
72.8266
21
-160.754
0
LINE
8
BLACK
6
CONTINUOUS
10
72.8266
20
-160.754
11
73.1123
21
-160.611
0
LINE
8
BLACK
6
CONTINUOUS
10
73.1123
20
-160.611
11
73.2551
21
-160.469
0
LINE
8
BLACK
6
CONTINUOUS
10
73.2551
20
-160.469
11
73.398
21
-160.183
0
LINE
8
BLACK
6
CONTINUOUS
10
74.5409
20
-158.897
11
74.5409
21
-159.469
0
LINE
8
BLACK
6
CONTINUOUS
10
75.6837
20
-158.897
11
75.6837
21
-159.469
0
LINE
8
BLACK
6
CONTINUOUS
10
80.1123
20
-163.04
11
79.9694
21
-162.897
0
LINE
8
BLACK
6
CONTINUOUS
10
79.9694
20
-162.897
11
79.6837
21
-162.469
0
LINE
8
BLACK
6
CONTINUOUS
10
79.6837
20
-162.469
11
79.5409
21
-162.183
0
LINE
8
BLACK
6
CONTINUOUS
10
79.5409
20
-162.183
11
79.398
21
-161.754
0
LINE
8
BLACK
6
CONTINUOUS
10
79.398
20
-161.754
11
79.2551
21
-161.04
0
LINE
8
BLACK
6
CONTINUOUS
10
79.2551
20
-161.04
11
79.2551
21
-160.469
0
LINE
8
BLACK
6
CONTINUOUS
10
79.2551
20
-160.469
11
79.398
21
-159.754
0
LINE
8
BLACK
6
CONTINUOUS
10
79.398
20
-159.754
11
79.5409
21
-159.326
0
LINE
8
BLACK
6
CONTINUOUS
10
79.5409
20
-159.326
11
79.6837
21
-159.04
0
LINE
8
BLACK
6
CONTINUOUS
10
79.6837
20
-159.04
11
79.9694
21
-158.611
0
LINE
8
BLACK
6
CONTINUOUS
10
79.9694
20
-158.611
11
80.1123
21
-158.469
0
LINE
8
BLACK
6
CONTINUOUS
10
82.5409
20
-159.897
11
82.5409
21
-161.897
0
LINE
8
BLACK
6
CONTINUOUS
10
81.8266
20
-158.754
11
81.1123
21
-160.897
0
LINE
8
BLACK
6
CONTINUOUS
10
81.1123
20
-160.897
11
82.9694
21
-160.897
0
LINE
8
BLACK
6
CONTINUOUS
10
86.398
20
-161.897
11
86.398
21
-158.897
0
LINE
8
BLACK
6
CONTINUOUS
10
87.6837
20
-161.897
11
87.6837
21
-160.326
0
LINE
8
BLACK
6
CONTINUOUS
10
87.6837
20
-160.326
11
87.5409
21
-160.04
0
LINE
8
BLACK
6
CONTINUOUS
10
87.5409
20
-160.04
11
87.2551
21
-159.897
0
LINE
8
BLACK
6
CONTINUOUS
10
87.2551
20
-159.897
11
86.8266
21
-159.897
0
LINE
8
BLACK
6
CONTINUOUS
10
86.8266
20
-159.897
11
86.5409
21
-160.04
0
LINE
8
BLACK
6
CONTINUOUS
10
86.5409
20
-160.04
11
86.398
21
-160.183
0
LINE
8
BLACK
6
CONTINUOUS
10
89.5409
20
-161.897
11
89.2551
21
-161.754
0
LINE
8
BLACK
6
CONTINUOUS
10
89.2551
20
-161.754
11
89.1123
21
-161.611
0
LINE
8
BLACK
6
CONTINUOUS
10
89.1123
20
-161.611
11
88.9694
21
-161.326
0
LINE
8
BLACK
6
CONTINUOUS
10
88.9694
20
-161.326
11
88.9694
21
-160.469
0
LINE
8
BLACK
6
CONTINUOUS
10
88.9694
20
-160.469
11
89.1123
21
-160.183
0
LINE
8
BLACK
6
CONTINUOUS
10
89.1123
20
-160.183
11
89.2551
21
-160.04
0
LINE
8
BLACK
6
CONTINUOUS
10
89.2551
20
-160.04
11
89.5409
21
-159.897
0
LINE
8
BLACK
6
CONTINUOUS
10
89.5409
20
-159.897
11
89.9694
21
-159.897
0
LINE
8
BLACK
6
CONTINUOUS
10
89.9694
20
-159.897
11
90.2551
21
-160.04
0
LINE
8
BLACK
6
CONTINUOUS
10
90.2551
20
-160.04
11
90.398
21
-160.183
0
LINE
8
BLACK
6
CONTINUOUS
10
90.398
20
-160.183
11
90.5409
21
-160.469
0
LINE
8
BLACK
6
CONTINUOUS
10
90.5409
20
-160.469
11
90.5409
21
-161.326
0
LINE
8
BLACK
6
CONTINUOUS
10
90.5409
20
-161.326
11
90.398
21
-161.611
0
LINE
8
BLACK
6
CONTINUOUS
10
90.398
20
-161.611
11
90.2551
21
-161.754
0
LINE
8
BLACK
6
CONTINUOUS
10
90.2551
20
-161.754
11
89.9694
21
-161.897
0
LINE
8
BLACK
6
CONTINUOUS
10
89.9694
20
-161.897
11
89.5409
21
-161.897
0
LINE
8
BLACK
6
CONTINUOUS
10
92.2551
20
-161.897
11
91.9694
21
-161.754
0
LINE
8
BLACK
6
CONTINUOUS
10
91.9694
20
-161.754
11
91.8266
21
-161.469
0
LINE
8
BLACK
6
CONTINUOUS
10
91.8266
20
-161.469
11
91.8266
21
-158.897
0
LINE
8
BLACK
6
CONTINUOUS
10
94.5409
20
-161.754
11
94.2551
21
-161.897
0
LINE
8
BLACK
6
CONTINUOUS
10
94.2551
20
-161.897
11
93.6837
21
-161.897
0
LINE
8
BLACK
6
CONTINUOUS
10
93.6837
20
-161.897
11
93.398
21
-161.754
0
LINE
8
BLACK
6
CONTINUOUS
10
93.398
20
-161.754
11
93.2551
21
-161.469
0
LINE
8
BLACK
6
CONTINUOUS
10
93.2551
20
-161.469
11
93.2551
21
-160.326
0
LINE
8
BLACK
6
CONTINUOUS
10
93.2551
20
-160.326
11
93.398
21
-160.04
0
LINE
8
BLACK
6
CONTINUOUS
10
93.398
20
-160.04
11
93.6837
21
-159.897
0
LINE
8
BLACK
6
CONTINUOUS
10
93.6837
20
-159.897
11
94.2551
21
-159.897
0
LINE
8
BLACK
6
CONTINUOUS
10
94.2551
20
-159.897
11
94.5409
21
-160.04
0
LINE
8
BLACK
6
CONTINUOUS
10
94.5409
20
-160.04
11
94.6837
21
-160.326
0
LINE
8
BLACK
6
CONTINUOUS
10
94.6837
20
-160.326
11
94.6837
21
-160.611
0
LINE
8
BLACK
6
CONTINUOUS
10
94.6837
20
-160.611
11
93.2551
21
-160.897
0
LINE
8
BLACK
6
CONTINUOUS
10
95.8266
20
-161.754
11
96.1123
21
-161.897
0
LINE
8
BLACK
6
CONTINUOUS
10
96.1123
20
-161.897
11
96.6837
21
-161.897
0
LINE
8
BLACK
6
CONTINUOUS
10
96.6837
20
-161.897
11
96.9694
21
-161.754
0
LINE
8
BLACK
6
CONTINUOUS
10
96.9694
20
-161.754
11
97.1123
21
-161.469
0
LINE
8
BLACK
6
CONTINUOUS
10
97.1123
20
-161.469
11
97.1123
21
-161.326
0
LINE
8
BLACK
6
CONTINUOUS
10
97.1123
20
-161.326
11
96.9694
21
-161.04
0
LINE
8
BLACK
6
CONTINUOUS
10
96.9694
20
-161.04
11
96.6837
21
-160.897
0
LINE
8
BLACK
6
CONTINUOUS
10
96.6837
20
-160.897
11
96.2551
21
-160.897
0
LINE
8
BLACK
6
CONTINUOUS
10
96.2551
20
-160.897
11
95.9694
21
-160.754
0
LINE
8
BLACK
6
CONTINUOUS
10
95.9694
20
-160.754
11
95.8266
21
-160.469
0
LINE
8
BLACK
6
CONTINUOUS
10
95.8266
20
-160.469
11
95.8266
21
-160.326
0
LINE
8
BLACK
6
CONTINUOUS
10
95.8266
20
-160.326
11
95.9694
21
-160.04
0
LINE
8
BLACK
6
CONTINUOUS
10
95.9694
20
-160.04
11
96.2551
21
-159.897
0
LINE
8
BLACK
6
CONTINUOUS
10
96.2551
20
-159.897
11
96.6837
21
-159.897
0
LINE
8
BLACK
6
CONTINUOUS
10
96.6837
20
-159.897
11
96.9694
21
-160.04
0
LINE
8
BLACK
6
CONTINUOUS
10
98.1123
20
-163.04
11
98.2551
21
-162.897
0
LINE
8
BLACK
6
CONTINUOUS
10
98.2551
20
-162.897
11
98.5409
21
-162.469
0
LINE
8
BLACK
6
CONTINUOUS
10
98.5409
20
-162.469
11
98.6837
21
-162.183
0
LINE
8
BLACK
6
CONTINUOUS
10
98.6837
20
-162.183
11
98.8266
21
-161.754
0
LINE
8
BLACK
6
CONTINUOUS
10
98.8266
20
-161.754
11
98.9694
21
-161.04
0
LINE
8
BLACK
6
CONTINUOUS
10
98.9694
20
-161.04
11
98.9694
21
-160.469
0
LINE
8
BLACK
6
CONTINUOUS
10
98.9694
20
-160.469
11
98.8266
21
-159.754
0
LINE
8
BLACK
6
CONTINUOUS
10
98.8266
20
-159.754
11
98.6837
21
-159.326
0
LINE
8
BLACK
6
CONTINUOUS
10
98.6837
20
-159.326
11
98.5409
21
-159.04
0
LINE
8
BLACK
6
CONTINUOUS
10
98.5409
20
-159.04
11
98.2551
21
-158.611
0
LINE
8
BLACK
6
CONTINUOUS
10
98.2551
20
-158.611
11
98.1123
21
-158.469
0
LINE
8
BLACK
6
CONTINUOUS
10
30.948
20
-163.35
11
33.248
21
-165.65
0
LINE
8
BLACK
6
CONTINUOUS
10
33.248
20
-163.35
11
30.948
21
-165.65
0
CIRCLE
8
BLACK
10
32.098
20
-164.5
40
1.15
0
LINE
8
BLACK
6
CONTINUOUS
10
35.9694
20
-163.143
11
36.1123
21
-163
0
LINE
8
BLACK
6
CONTINUOUS
10
36.1123
20
-163
11
36.398
21
-162.857
0
LINE
8
BLACK
6
CONTINUOUS
10
36.398
20
-162.857
11
37.1123
21
-162.857
0
LINE
8
BLACK
6
CONTINUOUS
10
37.1123
20
-162.857
11
37.398
21
-163
0
LINE
8
BLACK
6
CONTINUOUS
10
37.398
20
-163
11
37.5409
21
-163.143
0
LINE
8
BLACK
6
CONTINUOUS
10
37.5409
20
-163.143
11
37.6837
21
-163.429
0
LINE
8
BLACK
6
CONTINUOUS
10
37.6837
20
-163.429
11
37.6837
21
-163.714
0
LINE
8
BLACK
6
CONTINUOUS
10
37.6837
20
-163.714
11
37.5409
21
-164.143
0
LINE
8
BLACK
6
CONTINUOUS
10
37.5409
20
-164.143
11
35.8266
21
-165.857
0
LINE
8
BLACK
6
CONTINUOUS
10
35.8266
20
-165.857
11
37.6837
21
-165.857
0
LINE
8
BLACK
6
CONTINUOUS
10
38.9694
20
-165.571
11
39.1123
21
-165.714
0
LINE
8
BLACK
6
CONTINUOUS
10
39.1123
20
-165.714
11
38.9694
21
-165.857
0
LINE
8
BLACK
6
CONTINUOUS
10
38.9694
20
-165.857
11
38.8266
21
-165.714
0
LINE
8
BLACK
6
CONTINUOUS
10
38.8266
20
-165.714
11
38.9694
21
-165.571
0
LINE
8
BLACK
6
CONTINUOUS
10
38.9694
20
-165.571
11
38.9694
21
-165.857
0
LINE
8
BLACK
6
CONTINUOUS
10
40.1123
20
-162.857
11
41.9694
21
-162.857
0
LINE
8
BLACK
6
CONTINUOUS
10
41.9694
20
-162.857
11
40.9694
21
-164
0
LINE
8
BLACK
6
CONTINUOUS
10
40.9694
20
-164
11
41.398
21
-164
0
LINE
8
BLACK
6
CONTINUOUS
10
41.398
20
-164
11
41.6837
21
-164.143
0
LINE
8
BLACK
6
CONTINUOUS
10
41.6837
20
-164.143
11
41.8266
21
-164.286
0
LINE
8
BLACK
6
CONTINUOUS
10
41.8266
20
-164.286
11
41.9694
21
-164.571
0
LINE
8
BLACK
6
CONTINUOUS
10
41.9694
20
-164.571
11
41.9694
21
-165.286
0
LINE
8
BLACK
6
CONTINUOUS
10
41.9694
20
-165.286
11
41.8266
21
-165.571
0
LINE
8
BLACK
6
CONTINUOUS
10
41.8266
20
-165.571
11
41.6837
21
-165.714
0
LINE
8
BLACK
6
CONTINUOUS
10
41.6837
20
-165.714
11
41.398
21
-165.857
0
LINE
8
BLACK
6
CONTINUOUS
10
41.398
20
-165.857
11
40.5409
21
-165.857
0
LINE
8
BLACK
6
CONTINUOUS
10
40.5409
20
-165.857
11
40.2551
21
-165.714
0
LINE
8
BLACK
6
CONTINUOUS
10
40.2551
20
-165.714
11
40.1123
21
-165.571
0
LINE
8
BLACK
6
CONTINUOUS
10
43.8266
20
-162.857
11
44.1123
21
-162.857
0
LINE
8
BLACK
6
CONTINUOUS
10
44.1123
20
-162.857
11
44.398
21
-163
0
LINE
8
BLACK
6
CONTINUOUS
10
44.398
20
-163
11
44.5409
21
-163.143
0
LINE
8
BLACK
6
CONTINUOUS
10
44.5409
20
-163.143
11
44.6837
21
-163.429
0
LINE
8
BLACK
6
CONTINUOUS
10
44.6837
20
-163.429
11
44.8266
21
-164
0
LINE
8
BLACK
6
CONTINUOUS
10
44.8266
20
-164
11
44.8266
21
-164.714
0
LINE
8
BLACK
6
CONTINUOUS
10
44.8266
20
-164.714
11
44.6837
21
-165.286
0
LINE
8
BLACK
6
CONTINUOUS
10
44.6837
20
-165.286
11
44.5409
21
-165.571
0
LINE
8
BLACK
6
CONTINUOUS
10
44.5409
20
-165.571
11
44.398
21
-165.714
0
LINE
8
BLACK
6
CONTINUOUS
10
44.398
20
-165.714
11
44.1123
21
-165.857
0
LINE
8
BLACK
6
CONTINUOUS
10
44.1123
20
-165.857
11
43.8266
21
-165.857
0
LINE
8
BLACK
6
CONTINUOUS
10
43.8266
20
-165.857
11
43.5409
21
-165.714
0
LINE
8
BLACK
6
CONTINUOUS
10
43.5409
20
-165.714
11
43.398
21
-165.571
0
LINE
8
BLACK
6
CONTINUOUS
10
43.398
20
-165.571
11
43.2551
21
-165.286
0
LINE
8
BLACK
6
CONTINUOUS
10
43.2551
20
-165.286
11
43.1123
21
-164.714
0
LINE
8
BLACK
6
CONTINUOUS
10
43.1123
20
-164.714
11
43.1123
21
-164
0
LINE
8
BLACK
6
CONTINUOUS
10
43.1123
20
-164
11
43.2551
21
-163.429
0
LINE
8
BLACK
6
CONTINUOUS
10
43.2551
20
-163.429
11
43.398
21
-163.143
0
LINE
8
BLACK
6
CONTINUOUS
10
43.398
20
-163.143
11
43.5409
21
-163
0
LINE
8
BLACK
6
CONTINUOUS
10
43.5409
20
-163
11
43.8266
21
-162.857
0
LINE
8
BLACK
6
CONTINUOUS
10
46.1123
20
-165.857
11
46.1123
21
-163.857
0
LINE
8
BLACK
6
CONTINUOUS
10
46.1123
20
-164.143
11
46.2551
21
-164
0
LINE
8
BLACK
6
CONTINUOUS
10
46.2551
20
-164
11
46.5409
21
-163.857
0
LINE
8
BLACK
6
CONTINUOUS
10
46.5409
20
-163.857
11
46.9694
21
-163.857
0
LINE
8
BLACK
6
CONTINUOUS
10
46.9694
20
-163.857
11
47.2551
21
-164
0
LINE
8
BLACK
6
CONTINUOUS
10
47.2551
20
-164
11
47.398
21
-164.286
0
LINE
8
BLACK
6
CONTINUOUS
10
47.398
20
-164.286
11
47.398
21
-165.857
0
LINE
8
BLACK
6
CONTINUOUS
10
47.398
20
-164.286
11
47.5409
21
-164
0
LINE
8
BLACK
6
CONTINUOUS
10
47.5409
20
-164
11
47.8266
21
-163.857
0
LINE
8
BLACK
6
CONTINUOUS
10
47.8266
20
-163.857
11
48.2551
21
-163.857
0
LINE
8
BLACK
6
CONTINUOUS
10
48.2551
20
-163.857
11
48.5409
21
-164
0
LINE
8
BLACK
6
CONTINUOUS
10
48.5409
20
-164
11
48.6837
21
-164.286
0
LINE
8
BLACK
6
CONTINUOUS
10
48.6837
20
-164.286
11
48.6837
21
-165.857
0
LINE
8
BLACK
6
CONTINUOUS
10
50.1123
20
-165.857
11
50.1123
21
-163.857
0
LINE
8
BLACK
6
CONTINUOUS
10
50.1123
20
-164.143
11
50.2551
21
-164
0
LINE
8
BLACK
6
CONTINUOUS
10
50.2551
20
-164
11
50.5409
21
-163.857
0
LINE
8
BLACK
6
CONTINUOUS
10
50.5409
20
-163.857
11
50.9694
21
-163.857
0
LINE
8
BLACK
6
CONTINUOUS
10
50.9694
20
-163.857
11
51.2551
21
-164
0
LINE
8
BLACK
6
CONTINUOUS
10
51.2551
20
-164
11
51.398
21
-164.286
0
LINE
8
BLACK
6
CONTINUOUS
10
51.398
20
-164.286
11
51.398
21
-165.857
0
LINE
8
BLACK
6
CONTINUOUS
10
51.398
20
-164.286
11
51.5409
21
-164
0
LINE
8
BLACK
6
CONTINUOUS
10
51.5409
20
-164
11
51.8266
21
-163.857
0
LINE
8
BLACK
6
CONTINUOUS
10
51.8266
20
-163.857
11
52.2551
21
-163.857
0
LINE
8
BLACK
6
CONTINUOUS
10
52.2551
20
-163.857
11
52.5409
21
-164
0
LINE
8
BLACK
6
CONTINUOUS
10
52.5409
20
-164
11
52.6837
21
-164.286
0
LINE
8
BLACK
6
CONTINUOUS
10
52.6837
20
-164.286
11
52.6837
21
-165.857
0
LINE
8
BLACK
6
CONTINUOUS
10
58.5409
20
-162.714
11
55.9694
21
-166.571
0
LINE
8
BLACK
6
CONTINUOUS
10
62.398
20
-162.857
11
62.6837
21
-162.857
0
LINE
8
BLACK
6
CONTINUOUS
10
62.6837
20
-162.857
11
62.9694
21
-163
0
LINE
8
BLACK
6
CONTINUOUS
10
62.9694
20
-163
11
63.1123
21
-163.143
0
LINE
8
BLACK
6
CONTINUOUS
10
63.1123
20
-163.143
11
63.2551
21
-163.429
0
LINE
8
BLACK
6
CONTINUOUS
10
63.2551
20
-163.429
11
63.398
21
-164
0
LINE
8
BLACK
6
CONTINUOUS
10
63.398
20
-164
11
63.398
21
-164.714
0
LINE
8
BLACK
6
CONTINUOUS
10
63.398
20
-164.714
11
63.2551
21
-165.286
0
LINE
8
BLACK
6
CONTINUOUS
10
63.2551
20
-165.286
11
63.1123
21
-165.571
0
LINE
8
BLACK
6
CONTINUOUS
10
63.1123
20
-165.571
11
62.9694
21
-165.714
0
LINE
8
BLACK
6
CONTINUOUS
10
62.9694
20
-165.714
11
62.6837
21
-165.857
0
LINE
8
BLACK
6
CONTINUOUS
10
62.6837
20
-165.857
11
62.398
21
-165.857
0
LINE
8
BLACK
6
CONTINUOUS
10
62.398
20
-165.857
11
62.1123
21
-165.714
0
LINE
8
BLACK
6
CONTINUOUS
10
62.1123
20
-165.714
11
61.9694
21
-165.571
0
LINE
8
BLACK
6
CONTINUOUS
10
61.9694
20
-165.571
11
61.8266
21
-165.286
0
LINE
8
BLACK
6
CONTINUOUS
10
61.8266
20
-165.286
11
61.6837
21
-164.714
0
LINE
8
BLACK
6
CONTINUOUS
10
61.6837
20
-164.714
11
61.6837
21
-164
0
LINE
8
BLACK
6
CONTINUOUS
10
61.6837
20
-164
11
61.8266
21
-163.429
0
LINE
8
BLACK
6
CONTINUOUS
10
61.8266
20
-163.429
11
61.9694
21
-163.143
0
LINE
8
BLACK
6
CONTINUOUS
10
61.9694
20
-163.143
11
62.1123
21
-163
0
LINE
8
BLACK
6
CONTINUOUS
10
62.1123
20
-163
11
62.398
21
-162.857
0
LINE
8
BLACK
6
CONTINUOUS
10
64.6837
20
-165.571
11
64.8266
21
-165.714
0
LINE
8
BLACK
6
CONTINUOUS
10
64.8266
20
-165.714
11
64.6837
21
-165.857
0
LINE
8
BLACK
6
CONTINUOUS
10
64.6837
20
-165.857
11
64.5409
21
-165.714
0
LINE
8
BLACK
6
CONTINUOUS
10
64.5409
20
-165.714
11
64.6837
21
-165.571
0
LINE
8
BLACK
6
CONTINUOUS
10
64.6837
20
-165.571
11
64.6837
21
-165.857
0
LINE
8
BLACK
6
CONTINUOUS
10
66.6837
20
-162.857
11
66.9694
21
-162.857
0
LINE
8
BLACK
6
CONTINUOUS
10
66.9694
20
-162.857
11
67.2551
21
-163
0
LINE
8
BLACK
6
CONTINUOUS
10
67.2551
20
-163
11
67.398
21
-163.143
0
LINE
8
BLACK
6
CONTINUOUS
10
67.398
20
-163.143
11
67.5409
21
-163.429
0
LINE
8
BLACK
6
CONTINUOUS
10
67.5409
20
-163.429
11
67.6837
21
-164
0
LINE
8
BLACK
6
CONTINUOUS
10
67.6837
20
-164
11
67.6837
21
-164.714
0
LINE
8
BLACK
6
CONTINUOUS
10
67.6837
20
-164.714
11
67.5409
21
-165.286
0
LINE
8
BLACK
6
CONTINUOUS
10
67.5409
20
-165.286
11
67.398
21
-165.571
0
LINE
8
BLACK
6
CONTINUOUS
10
67.398
20
-165.571
11
67.2551
21
-165.714
0
LINE
8
BLACK
6
CONTINUOUS
10
67.2551
20
-165.714
11
66.9694
21
-165.857
0
LINE
8
BLACK
6
CONTINUOUS
10
66.9694
20
-165.857
11
66.6837
21
-165.857
0
LINE
8
BLACK
6
CONTINUOUS
10
66.6837
20
-165.857
11
66.398
21
-165.714
0
LINE
8
BLACK
6
CONTINUOUS
10
66.398
20
-165.714
11
66.2551
21
-165.571
0
LINE
8
BLACK
6
CONTINUOUS
10
66.2551
20
-165.571
11
66.1123
21
-165.286
0
LINE
8
BLACK
6
CONTINUOUS
10
66.1123
20
-165.286
11
65.9694
21
-164.714
0
LINE
8
BLACK
6
CONTINUOUS
10
65.9694
20
-164.714
11
65.9694
21
-164
0
LINE
8
BLACK
6
CONTINUOUS
10
65.9694
20
-164
11
66.1123
21
-163.429
0
LINE
8
BLACK
6
CONTINUOUS
10
66.1123
20
-163.429
11
66.2551
21
-163.143
0
LINE
8
BLACK
6
CONTINUOUS
10
66.2551
20
-163.143
11
66.398
21
-163
0
LINE
8
BLACK
6
CONTINUOUS
10
66.398
20
-163
11
66.6837
21
-162.857
0
LINE
8
BLACK
6
CONTINUOUS
10
69.1123
20
-165.857
11
69.6837
21
-165.857
0
LINE
8
BLACK
6
CONTINUOUS
10
69.6837
20
-165.857
11
69.9694
21
-165.714
0
LINE
8
BLACK
6
CONTINUOUS
10
69.9694
20
-165.714
11
70.1123
21
-165.571
0
LINE
8
BLACK
6
CONTINUOUS
10
70.1123
20
-165.571
11
70.398
21
-165.143
0
LINE
8
BLACK
6
CONTINUOUS
10
70.398
20
-165.143
11
70.5409
21
-164.571
0
LINE
8
BLACK
6
CONTINUOUS
10
70.5409
20
-164.571
11
70.5409
21
-163.429
0
LINE
8
BLACK
6
CONTINUOUS
10
70.5409
20
-163.429
11
70.398
21
-163.143
0
LINE
8
BLACK
6
CONTINUOUS
10
70.398
20
-163.143
11
70.2551
21
-163
0
LINE
8
BLACK
6
CONTINUOUS
10
70.2551
20
-163
11
69.9694
21
-162.857
0
LINE
8
BLACK
6
CONTINUOUS
10
69.9694
20
-162.857
11
69.398
21
-162.857
0
LINE
8
BLACK
6
CONTINUOUS
10
69.398
20
-162.857
11
69.1123
21
-163
0
LINE
8
BLACK
6
CONTINUOUS
10
69.1123
20
-163
11
68.9694
21
-163.143
0
LINE
8
BLACK
6
CONTINUOUS
10
68.9694
20
-163.143
11
68.8266
21
-163.429
0
LINE
8
BLACK
6
CONTINUOUS
10
68.8266
20
-163.429
11
68.8266
21
-164.143
0
LINE
8
BLACK
6
CONTINUOUS
10
68.8266
20
-164.143
11
68.9694
21
-164.429
0
LINE
8
BLACK
6
CONTINUOUS
10
68.9694
20
-164.429
11
69.1123
21
-164.571
0
LINE
8
BLACK
6
CONTINUOUS
10
69.1123
20
-164.571
11
69.398
21
-164.714
0
LINE
8
BLACK
6
CONTINUOUS
10
69.398
20
-164.714
11
69.9694
21
-164.714
0
LINE
8
BLACK
6
CONTINUOUS
10
69.9694
20
-164.714
11
70.2551
21
-164.571
0
LINE
8
BLACK
6
CONTINUOUS
10
70.2551
20
-164.571
11
70.398
21
-164.429
0
LINE
8
BLACK
6
CONTINUOUS
10
70.398
20
-164.429
11
70.5409
21
-164.143
0
LINE
8
BLACK
6
CONTINUOUS
10
73.398
20
-165.857
11
71.6837
21
-165.857
0
LINE
8
BLACK
6
CONTINUOUS
10
72.5409
20
-165.857
11
72.5409
21
-162.857
0
LINE
8
BLACK
6
CONTINUOUS
10
72.5409
20
-162.857
11
72.2551
21
-163.286
0
LINE
8
BLACK
6
CONTINUOUS
10
72.2551
20
-163.286
11
71.9694
21
-163.571
0
LINE
8
BLACK
6
CONTINUOUS
10
71.9694
20
-163.571
11
71.6837
21
-163.714
0
LINE
8
BLACK
6
CONTINUOUS
10
74.5409
20
-162.857
11
74.5409
21
-163.429
0
LINE
8
BLACK
6
CONTINUOUS
10
75.6837
20
-162.857
11
75.6837
21
-163.429
0
LINE
8
BLACK
6
CONTINUOUS
10
80.1123
20
-167
11
79.9694
21
-166.857
0
LINE
8
BLACK
6
CONTINUOUS
10
79.9694
20
-166.857
11
79.6837
21
-166.429
0
LINE
8
BLACK
6
CONTINUOUS
10
79.6837
20
-166.429
11
79.5409
21
-166.143
0
LINE
8
BLACK
6
CONTINUOUS
10
79.5409
20
-166.143
11
79.398
21
-165.714
0
LINE
8
BLACK
6
CONTINUOUS
10
79.398
20
-165.714
11
79.2551
21
-165
0
LINE
8
BLACK
6
CONTINUOUS
10
79.2551
20
-165
11
79.2551
21
-164.429
0
LINE
8
BLACK
6
CONTINUOUS
10
79.2551
20
-164.429
11
79.398
21
-163.714
0
LINE
8
BLACK
6
CONTINUOUS
10
79.398
20
-163.714
11
79.5409
21
-163.286
0
LINE
8
BLACK
6
CONTINUOUS
10
79.5409
20
-163.286
11
79.6837
21
-163
0
LINE
8
BLACK
6
CONTINUOUS
10
79.6837
20
-163
11
79.9694
21
-162.571
0
LINE
8
BLACK
6
CONTINUOUS
10
79.9694
20
-162.571
11
80.1123
21
-162.429
0
LINE
8
BLACK
6
CONTINUOUS
10
82.5409
20
-162.857
11
81.9694
21
-162.857
0
LINE
8
BLACK
6
CONTINUOUS
10
81.9694
20
-162.857
11
81.6837
21
-163
0
LINE
8
BLACK
6
CONTINUOUS
10
81.6837
20
-163
11
81.5409
21
-163.143
0
LINE
8
BLACK
6
CONTINUOUS
10
81.5409
20
-163.143
11
81.2551
21
-163.571
0
LINE
8
BLACK
6
CONTINUOUS
10
81.2551
20
-163.571
11
81.1123
21
-164.143
0
LINE
8
BLACK
6
CONTINUOUS
10
81.1123
20
-164.143
11
81.1123
21
-165.286
0
LINE
8
BLACK
6
CONTINUOUS
10
81.1123
20
-165.286
11
81.2551
21
-165.571
0
LINE
8
BLACK
6
CONTINUOUS
10
81.2551
20
-165.571
11
81.398
21
-165.714
0
LINE
8
BLACK
6
CONTINUOUS
10
81.398
20
-165.714
11
81.6837
21
-165.857
0
LINE
8
BLACK
6
CONTINUOUS
10
81.6837
20
-165.857
11
82.2551
21
-165.857
0
LINE
8
BLACK
6
CONTINUOUS
10
82.2551
20
-165.857
11
82.5409
21
-165.714
0
LINE
8
BLACK
6
CONTINUOUS
10
82.5409
20
-165.714
11
82.6837
21
-165.571
0
LINE
8
BLACK
6
CONTINUOUS
10
82.6837
20
-165.571
11
82.8266
21
-165.286
0
LINE
8
BLACK
6
CONTINUOUS
10
82.8266
20
-165.286
11
82.8266
21
-164.571
0
LINE
8
BLACK
6
CONTINUOUS
10
82.8266
20
-164.571
11
82.6837
21
-164.286
0
LINE
8
BLACK
6
CONTINUOUS
10
82.6837
20
-164.286
11
82.5409
21
-164.143
0
LINE
8
BLACK
6
CONTINUOUS
10
82.5409
20
-164.143
11
82.2551
21
-164
0
LINE
8
BLACK
6
CONTINUOUS
10
82.2551
20
-164
11
81.6837
21
-164
0
LINE
8
BLACK
6
CONTINUOUS
10
81.6837
20
-164
11
81.398
21
-164.143
0
LINE
8
BLACK
6
CONTINUOUS
10
81.398
20
-164.143
11
81.2551
21
-164.286
0
LINE
8
BLACK
6
CONTINUOUS
10
81.2551
20
-164.286
11
81.1123
21
-164.571
0
LINE
8
BLACK
6
CONTINUOUS
10
86.398
20
-165.857
11
86.398
21
-162.857
0
LINE
8
BLACK
6
CONTINUOUS
10
87.6837
20
-165.857
11
87.6837
21
-164.286
0
LINE
8
BLACK
6
CONTINUOUS
10
87.6837
20
-164.286
11
87.5409
21
-164
0
LINE
8
BLACK
6
CONTINUOUS
10
87.5409
20
-164
11
87.2551
21
-163.857
0
LINE
8
BLACK
6
CONTINUOUS
10
87.2551
20
-163.857
11
86.8266
21
-163.857
0
LINE
8
BLACK
6
CONTINUOUS
10
86.8266
20
-163.857
11
86.5409
21
-164
0
LINE
8
BLACK
6
CONTINUOUS
10
86.5409
20
-164
11
86.398
21
-164.143
0
LINE
8
BLACK
6
CONTINUOUS
10
89.5409
20
-165.857
11
89.2551
21
-165.714
0
LINE
8
BLACK
6
CONTINUOUS
10
89.2551
20
-165.714
11
89.1123
21
-165.571
0
LINE
8
BLACK
6
CONTINUOUS
10
89.1123
20
-165.571
11
88.9694
21
-165.286
0
LINE
8
BLACK
6
CONTINUOUS
10
88.9694
20
-165.286
11
88.9694
21
-164.429
0
LINE
8
BLACK
6
CONTINUOUS
10
88.9694
20
-164.429
11
89.1123
21
-164.143
0
LINE
8
BLACK
6
CONTINUOUS
10
89.1123
20
-164.143
11
89.2551
21
-164
0
LINE
8
BLACK
6
CONTINUOUS
10
89.2551
20
-164
11
89.5409
21
-163.857
0
LINE
8
BLACK
6
CONTINUOUS
10
89.5409
20
-163.857
11
89.9694
21
-163.857
0
LINE
8
BLACK
6
CONTINUOUS
10
89.9694
20
-163.857
11
90.2551
21
-164
0
LINE
8
BLACK
6
CONTINUOUS
10
90.2551
20
-164
11
90.398
21
-164.143
0
LINE
8
BLACK
6
CONTINUOUS
10
90.398
20
-164.143
11
90.5409
21
-164.429
0
LINE
8
BLACK
6
CONTINUOUS
10
90.5409
20
-164.429
11
90.5409
21
-165.286
0
LINE
8
BLACK
6
CONTINUOUS
10
90.5409
20
-165.286
11
90.398
21
-165.571
0
LINE
8
BLACK
6
CONTINUOUS
10
90.398
20
-165.571
11
90.2551
21
-165.714
0
LINE
8
BLACK
6
CONTINUOUS
10
90.2551
20
-165.714
11
89.9694
21
-165.857
0
LINE
8
BLACK
6
CONTINUOUS
10
89.9694
20
-165.857
11
89.5409
21
-165.857
0
LINE
8
BLACK
6
CONTINUOUS
10
92.2551
20
-165.857
11
91.9694
21
-165.714
0
LINE
8
BLACK
6
CONTINUOUS
10
91.9694
20
-165.714
11
91.8266
21
-165.429
0
LINE
8
BLACK
6
CONTINUOUS
10
91.8266
20
-165.429
11
91.8266
21
-162.857
0
LINE
8
BLACK
6
CONTINUOUS
10
94.5409
20
-165.714
11
94.2551
21
-165.857
0
LINE
8
BLACK
6
CONTINUOUS
10
94.2551
20
-165.857
11
93.6837
21
-165.857
0
LINE
8
BLACK
6
CONTINUOUS
10
93.6837
20
-165.857
11
93.398
21
-165.714
0
LINE
8
BLACK
6
CONTINUOUS
10
93.398
20
-165.714
11
93.2551
21
-165.429
0
LINE
8
BLACK
6
CONTINUOUS
10
93.2551
20
-165.429
11
93.2551
21
-164.286
0
LINE
8
BLACK
6
CONTINUOUS
10
93.2551
20
-164.286
11
93.398
21
-164
0
LINE
8
BLACK
6
CONTINUOUS
10
93.398
20
-164
11
93.6837
21
-163.857
0
LINE
8
BLACK
6
CONTINUOUS
10
93.6837
20
-163.857
11
94.2551
21
-163.857
0
LINE
8
BLACK
6
CONTINUOUS
10
94.2551
20
-163.857
11
94.5409
21
-164
0
LINE
8
BLACK
6
CONTINUOUS
10
94.5409
20
-164
11
94.6837
21
-164.286
0
LINE
8
BLACK
6
CONTINUOUS
10
94.6837
20
-164.286
11
94.6837
21
-164.571
0
LINE
8
BLACK
6
CONTINUOUS
10
94.6837
20
-164.571
11
93.2551
21
-164.857
0
LINE
8
BLACK
6
CONTINUOUS
10
95.8266
20
-165.714
11
96.1123
21
-165.857
0
LINE
8
BLACK
6
CONTINUOUS
10
96.1123
20
-165.857
11
96.6837
21
-165.857
0
LINE
8
BLACK
6
CONTINUOUS
10
96.6837
20
-165.857
11
96.9694
21
-165.714
0
LINE
8
BLACK
6
CONTINUOUS
10
96.9694
20
-165.714
11
97.1123
21
-165.429
0
LINE
8
BLACK
6
CONTINUOUS
10
97.1123
20
-165.429
11
97.1123
21
-165.286
0
LINE
8
BLACK
6
CONTINUOUS
10
97.1123
20
-165.286
11
96.9694
21
-165
0
LINE
8
BLACK
6
CONTINUOUS
10
96.9694
20
-165
11
96.6837
21
-164.857
0
LINE
8
BLACK
6
CONTINUOUS
10
96.6837
20
-164.857
11
96.2551
21
-164.857
0
LINE
8
BLACK
6
CONTINUOUS
10
96.2551
20
-164.857
11
95.9694
21
-164.714
0
LINE
8
BLACK
6
CONTINUOUS
10
95.9694
20
-164.714
11
95.8266
21
-164.429
0
LINE
8
BLACK
6
CONTINUOUS
10
95.8266
20
-164.429
11
95.8266
21
-164.286
0
LINE
8
BLACK
6
CONTINUOUS
10
95.8266
20
-164.286
11
95.9694
21
-164
0
LINE
8
BLACK
6
CONTINUOUS
10
95.9694
20
-164
11
96.2551
21
-163.857
0
LINE
8
BLACK
6
CONTINUOUS
10
96.2551
20
-163.857
11
96.6837
21
-163.857
0
LINE
8
BLACK
6
CONTINUOUS
10
96.6837
20
-163.857
11
96.9694
21
-164
0
LINE
8
BLACK
6
CONTINUOUS
10
98.1123
20
-167
11
98.2551
21
-166.857
0
LINE
8
BLACK
6
CONTINUOUS
10
98.2551
20
-166.857
11
98.5409
21
-166.429
0
LINE
8
BLACK
6
CONTINUOUS
10
98.5409
20
-166.429
11
98.6837
21
-166.143
0
LINE
8
BLACK
6
CONTINUOUS
10
98.6837
20
-166.143
11
98.8266
21
-165.714
0
LINE
8
BLACK
6
CONTINUOUS
10
98.8266
20
-165.714
11
98.9694
21
-165
0
LINE
8
BLACK
6
CONTINUOUS
10
98.9694
20
-165
11
98.9694
21
-164.429
0
LINE
8
BLACK
6
CONTINUOUS
10
98.9694
20
-164.429
11
98.8266
21
-163.714
0
LINE
8
BLACK
6
CONTINUOUS
10
98.8266
20
-163.714
11
98.6837
21
-163.286
0
LINE
8
BLACK
6
CONTINUOUS
10
98.6837
20
-163.286
11
98.5409
21
-163
0
LINE
8
BLACK
6
CONTINUOUS
10
98.5409
20
-163
11
98.2551
21
-162.571
0
LINE
8
BLACK
6
CONTINUOUS
10
98.2551
20
-162.571
11
98.1123
21
-162.429
  0
ENDSEC
  0
EOF
